<svg width="186" height="130" viewBox="0 0 186 130" fill="none" xmlns="http://www.w3.org/2000/svg">
<path d="M63.6251 66.1368C63.6251 66.1368 59.8751 66.3368 58.4563 66.3431C57.0376 66.3493 53.3813 69.0368 52.2063 68.6181C51.0313 68.1993 55.2501 65.6931 55.2501 65.6931C55.2501 65.6931 49.9251 66.0306 48.6001 66.8681C47.2751 67.7056 45.4751 68.8493 44.8001 68.6243C44.1251 68.3993 46.2126 64.9743 49.0751 63.7431C51.9376 62.5118 60.7126 59.9181 60.7126 59.9181" fill="white"/>
<path d="M52.4688 68.9618C52.3349 68.9645 52.2016 68.9433 52.0751 68.8993C51.9667 68.8696 51.8698 68.8076 51.7973 68.7217C51.7248 68.6358 51.68 68.53 51.6688 68.4181C51.6126 67.7931 52.8188 66.8556 53.9688 66.0931C52.1688 66.2681 49.5438 66.6118 48.7376 67.1181C46.8626 68.2868 45.4001 69.1556 44.6751 68.9056C44.5748 68.8707 44.4884 68.8045 44.4287 68.7167C44.3691 68.6289 44.3393 68.5242 44.3438 68.4181C44.3126 67.4181 46.3626 64.5431 48.9251 63.4181C51.7751 62.1993 60.2376 59.6681 60.6001 59.5806C60.683 59.5574 60.7717 59.568 60.8467 59.6102C60.9217 59.6524 60.9769 59.7227 61.0001 59.8056C61.0233 59.8885 61.0126 59.9772 60.9704 60.0522C60.9282 60.1272 60.858 60.1824 60.7751 60.2056C60.6876 60.2056 51.9876 62.8118 49.1688 64.0181C46.7126 65.0743 45.0313 67.6931 44.9688 68.3306C45.5938 68.3306 47.4688 67.1681 48.3876 66.5868C49.7688 65.7181 54.9626 65.3806 55.1813 65.3681C55.2517 65.3611 55.3223 65.3792 55.3806 65.4193C55.439 65.4593 55.4813 65.5186 55.5001 65.5868C55.5213 65.6539 55.5193 65.7262 55.4943 65.792C55.4694 65.8578 55.423 65.9132 55.3626 65.9493C53.8063 66.8743 52.4563 67.9181 52.2876 68.3118C52.8563 68.4556 54.2688 67.7493 55.4126 67.1743C56.5563 66.5993 57.7063 66.0243 58.4126 66.0181C59.7813 66.0181 63.5251 65.8118 63.5626 65.8118C63.6042 65.8065 63.6465 65.8101 63.6865 65.8224C63.7266 65.8348 63.7636 65.8556 63.795 65.8834C63.8264 65.9112 63.8514 65.9455 63.8685 65.9838C63.8855 66.0221 63.8942 66.0636 63.8938 66.1056C63.8955 66.1466 63.8891 66.1876 63.8749 66.2262C63.8607 66.2647 63.8391 66.3001 63.8112 66.3303C63.7834 66.3605 63.7498 66.3849 63.7125 66.4021C63.6752 66.4193 63.6349 66.429 63.5938 66.4306C63.4438 66.4306 59.8001 66.6368 58.4126 66.6431C57.8563 66.6431 56.7563 67.1993 55.6938 67.7368C54.4563 68.3743 53.2688 68.9618 52.4688 68.9618Z" fill="#231F20"/>
<path d="M142.094 35.3368C142.425 35.8868 150.875 45.9618 152.344 45.7743C153.813 45.5868 150.119 41.3993 150.425 40.7743C150.731 40.1493 154.175 41.3556 158.056 39.8431C161.938 38.3306 164.269 35.4681 161.369 34.0868C158.469 32.7056 152.238 35.9181 150.35 33.9493C148.463 31.9806 144.725 28.8556 144.725 28.8556" fill="white"/>
<path d="M152.319 46.0868C150.356 46.0868 141.894 35.6118 141.825 35.5056C141.804 35.4703 141.789 35.4312 141.783 35.3904C141.777 35.3496 141.778 35.3079 141.788 35.2678C141.798 35.2277 141.816 35.1899 141.84 35.1567C141.865 35.1235 141.896 35.0955 141.931 35.0743C141.966 35.0527 142.004 35.038 142.044 35.0313C142.084 35.0246 142.125 35.026 142.165 35.0353C142.204 35.0446 142.242 35.0617 142.275 35.0856C142.307 35.1094 142.335 35.1396 142.356 35.1743C142.981 36.1806 151.019 45.4618 152.275 45.4618C152.296 45.4674 152.317 45.4674 152.338 45.4618C152.525 45.1806 151.519 43.5868 151.088 42.9056C150.3 41.6556 149.925 41.0306 150.119 40.6493C150.313 40.2681 150.913 40.2618 151.994 40.3118C154.006 40.5015 156.035 40.2476 157.938 39.5681C160.488 38.5681 162.313 37.0056 162.313 35.7806C162.313 35.2181 161.956 34.7431 161.194 34.3806C159.906 33.7556 157.819 34.1368 155.8 34.4993C153.431 34.9243 151.194 35.3306 150.088 34.1743C148.213 32.2431 144.531 29.1368 144.494 29.1056C144.457 29.0812 144.426 29.0494 144.403 29.0122C144.379 28.9749 144.364 28.9332 144.357 28.8896C144.351 28.846 144.354 28.8016 144.366 28.7593C144.378 28.717 144.399 28.6777 144.428 28.644C144.456 28.6103 144.491 28.583 144.531 28.5639C144.571 28.5448 144.614 28.5342 144.658 28.5329C144.702 28.5317 144.746 28.5397 144.786 28.5565C144.827 28.5734 144.864 28.5986 144.894 28.6306C144.931 28.6306 148.644 31.7556 150.519 33.7431C151.394 34.6556 153.569 34.2618 155.675 33.8806C157.781 33.4993 159.975 33.1118 161.45 33.8181C162.7 34.4431 162.938 35.2306 162.919 35.7993C162.863 37.2931 160.931 39.0431 158.113 40.1743C156.129 40.8884 154.012 41.1572 151.913 40.9618C151.497 40.9187 151.078 40.9187 150.663 40.9618C150.917 41.5333 151.224 42.0795 151.581 42.5931C152.569 44.1493 153.144 45.1431 152.869 45.7181C152.818 45.8219 152.741 45.911 152.646 45.9766C152.551 46.0423 152.44 46.0824 152.325 46.0931L152.319 46.0868Z" fill="#231F20"/>
<path d="M93.7937 60.7993C93.7937 60.7993 68.575 76.4243 63.75 81.5806C58.925 86.7368 46.125 112.712 46.125 112.712L67.8062 105.837C67.8062 105.837 73.3312 91.4618 76.3125 88.8681C79.2937 86.2743 115.181 59.7493 115.181 59.7493C115.181 59.7493 105.9 53.8306 93.7937 60.7993Z" fill="white"/>
<path d="M46.125 112.993C46.0811 112.993 46.0375 112.984 45.9976 112.966C45.9576 112.947 45.9222 112.92 45.8938 112.887C45.8526 112.841 45.8264 112.783 45.8186 112.722C45.8108 112.66 45.8218 112.598 45.85 112.543C46.3688 111.487 58.7063 86.4931 63.5063 81.3681C68.3063 76.2431 92.575 61.1743 93.6063 60.5368C105.738 53.5493 115.244 59.3743 115.338 59.4306C115.381 59.4578 115.417 59.4956 115.442 59.5403C115.467 59.5851 115.481 59.6355 115.481 59.6868C115.483 59.7374 115.473 59.7878 115.451 59.8335C115.429 59.8792 115.397 59.919 115.356 59.9493C115 60.2118 79.45 86.5118 76.5063 89.0556C73.5625 91.5993 68.1375 105.756 68.0813 105.931C68.0647 105.974 68.0387 106.013 68.0052 106.046C67.9717 106.078 67.9316 106.103 67.8875 106.118L46.2125 112.993C46.1836 112.998 46.154 112.998 46.125 112.993ZM93.9313 61.0681C93.475 61.3493 68.6813 76.7493 63.9313 81.7931C59.6188 86.3993 48.7313 108.087 46.7063 112.162L67.5375 105.531C68.1625 103.943 73.1625 91.0743 76.0813 88.5806C79 86.0868 110.456 62.7618 114.575 59.7306C112.796 58.8283 110.881 58.2224 108.906 57.9368C105.5 57.4118 100.113 57.5243 93.95 61.0681H93.9313Z" fill="#231F20"/>
<path d="M101.85 61.6931C101.85 61.6931 82.4751 77.1743 81.4876 80.8681C80.5001 84.5618 102.819 101.356 102.819 101.356L110.4 98.9618L97.7126 79.7556C97.7126 79.7556 115.425 69.4618 118.3 66.1868C121.175 62.9118 112.888 56.6931 101.85 61.6931Z" fill="white"/>
<path d="M102.819 101.668C102.749 101.669 102.681 101.647 102.625 101.606C100.325 99.8743 80.1251 84.5806 81.1813 80.7868C82.2376 76.9931 100.863 62.0868 101.656 61.4618L101.719 61.4181C109.844 57.7431 116.413 60.0118 118.481 62.8056C119.4 64.0556 119.419 65.3806 118.531 66.3868C115.825 69.4743 100.525 78.4681 98.1563 79.8493L110.656 98.7868C110.684 98.8265 110.701 98.8721 110.708 98.9198C110.715 98.9676 110.71 99.0163 110.694 99.0618C110.677 99.1069 110.65 99.1477 110.616 99.1812C110.581 99.2147 110.539 99.2401 110.494 99.2556L102.913 101.668C102.882 101.674 102.85 101.674 102.819 101.668ZM102.013 61.9618C95.3376 67.2993 82.5626 78.1118 81.7876 80.9556C81.0876 83.4993 93.9626 94.3056 102.875 101.012L109.906 98.7743L97.4501 79.9056C97.4259 79.8704 97.4094 79.8305 97.4019 79.7884C97.3943 79.7464 97.3959 79.7032 97.4063 79.6618C97.4167 79.6209 97.4353 79.5826 97.4611 79.5493C97.4869 79.516 97.5193 79.4883 97.5563 79.4681C97.7313 79.3618 115.256 69.1618 118.063 65.9618C118.39 65.5639 118.562 65.0605 118.546 64.5454C118.529 64.0303 118.327 63.5386 117.975 63.1618C114.794 58.8681 106.588 59.9056 102.013 61.9618Z" fill="#231F20"/>
<path d="M87.8438 24.1431C87.8438 24.1431 84.1626 31.9306 82.8438 36.9056C81.5251 41.8806 89.0313 48.6806 92.5813 50.0806C96.1313 51.4806 99.8625 56.0556 99.8625 56.0556L92.2751 61.6806C92.2751 61.6806 95.7813 59.8993 98.7813 64.1806C98.7813 64.1806 109.281 62.6931 114.631 69.5368C114.631 69.5368 129.488 62.1368 126.794 50.5056C124.1 38.8743 105.775 22.9618 101.869 20.9181C97.9626 18.8743 87.8438 24.1431 87.8438 24.1431Z" fill="#135E46"/>
<path d="M93.4564 20.9993L95.7689 25.8931C95.7689 25.8931 96.1814 28.9181 92.7877 29.0556C91.7829 29.0895 90.7832 28.8983 89.8619 28.496C88.9406 28.0937 88.1208 27.4905 87.4626 26.7306L84.9626 17.7556C84.9626 17.7118 85.3626 17.1306 85.4001 17.0681C85.707 16.3727 85.8441 15.6144 85.8001 14.8556C85.6762 13.661 85.4673 12.4768 85.1751 11.3118C86.2262 11.1245 87.2356 10.7521 88.1564 10.2118C89.0939 9.58683 90.1627 6.94308 90.1627 6.94308C90.7877 8.59933 95.2877 10.1118 95.2877 10.1118C95.2877 10.1118 96.3002 16.1306 96.5377 18.0056C96.7877 20.5618 93.4564 20.9993 93.4564 20.9993Z" fill="white"/>
<path d="M92.5064 29.3493C91.504 29.3453 90.5143 29.1248 89.605 28.7031C88.6957 28.2813 87.8882 27.6682 87.2376 26.9056C87.2125 26.8796 87.1952 26.8471 87.1876 26.8118C85.1189 19.4618 84.7376 18.1056 84.6876 17.8306C84.6439 17.6743 84.6876 17.5806 85.0189 17.1368C85.0751 17.0431 85.1314 16.9681 85.1501 16.9368C85.4328 16.2833 85.5591 15.5728 85.5189 14.8618C85.3928 13.6881 85.184 12.5248 84.8939 11.3806C84.8841 11.3425 84.8823 11.3029 84.8888 11.2641C84.8952 11.2254 84.9097 11.1884 84.9314 11.1556C84.9533 11.1225 84.9818 11.0943 85.0152 11.0728C85.0485 11.0513 85.0859 11.0369 85.1251 11.0306C86.1389 10.8429 87.1119 10.4791 88.0001 9.95558C88.7126 9.48058 89.6126 7.52433 89.8751 6.83058C89.8965 6.77684 89.9336 6.7308 89.9815 6.69847C90.0295 6.66613 90.086 6.649 90.1439 6.64933C90.2004 6.65104 90.2553 6.66906 90.3019 6.70122C90.3484 6.73337 90.3847 6.77829 90.4064 6.83058C90.9064 8.08058 94.1564 9.42433 95.3564 9.83683C95.4061 9.85315 95.4504 9.88273 95.4845 9.92238C95.5187 9.96203 95.5414 10.0102 95.5501 10.0618C95.5501 10.1181 96.5689 16.1056 96.7689 17.9681C96.9939 20.0118 95.1376 20.9431 93.8564 21.2243L96.0126 25.7806C96.0153 25.8076 96.0153 25.8348 96.0126 25.8618C96.0808 26.3158 96.0457 26.7794 95.9098 27.218C95.7739 27.6565 95.5407 28.0587 95.2277 28.3945C94.9146 28.7304 94.5298 28.9913 94.1019 29.1577C93.674 29.3241 93.2141 29.3917 92.7564 29.3556L92.5064 29.3493ZM87.7189 26.5931C88.3528 27.3019 89.1335 27.8642 90.0066 28.2409C90.8798 28.6175 91.8245 28.7996 92.7751 28.7743C93.1773 28.7877 93.5777 28.7161 93.9503 28.5642C94.3229 28.4124 94.6593 28.1837 94.9376 27.8931C95.3531 27.3415 95.5511 26.6563 95.4939 25.9681L93.2001 21.1181C93.1803 21.0783 93.17 21.0344 93.17 20.99C93.17 20.9455 93.1803 20.9016 93.2001 20.8618C93.2216 20.8222 93.252 20.788 93.2889 20.762C93.3257 20.736 93.3681 20.7188 93.4126 20.7118C93.5376 20.7118 96.4626 20.2806 96.2189 18.0181C96.0314 16.3493 95.1876 11.2931 95.0251 10.3056C94.2814 10.0431 91.2751 8.91183 90.2001 7.54308C89.8251 8.37433 89.0564 9.92433 88.3251 10.4306C87.4546 10.9601 86.4987 11.3344 85.5001 11.5368C85.7838 12.6236 85.9803 13.7313 86.0876 14.8493C86.1327 15.6538 85.9848 16.4573 85.6564 17.1931C85.6049 17.2836 85.5486 17.3712 85.4876 17.4556L85.2626 17.7868C85.5001 18.7368 87.5189 25.8743 87.7189 26.5931Z" fill="#231F20"/>
<path d="M94.5876 23.2493C94.0202 23.4831 93.4093 23.5929 92.796 23.5713C92.1827 23.5498 91.581 23.3974 91.0314 23.1243C90.5368 22.8946 90.0982 22.5597 89.7463 22.143C89.3944 21.7263 89.1377 21.2379 88.9939 20.7118C88.9939 20.7118 91.7564 21.9618 93.7189 20.9368L94.5876 23.2493Z" fill="#231F20"/>
<path d="M92.9063 23.8556C92.209 23.8593 91.5217 23.6896 90.9063 23.3618C90.3739 23.1145 89.9022 22.7536 89.5243 22.3044C89.1463 21.8552 88.8714 21.3287 88.7188 20.7618C88.7112 20.7116 88.7171 20.6603 88.7357 20.6131C88.7544 20.5659 88.7852 20.5245 88.8251 20.4931C88.8674 20.4671 88.916 20.4534 88.9657 20.4534C89.0153 20.4534 89.064 20.4671 89.1063 20.4931C89.1063 20.4931 91.7751 21.6618 93.5938 20.7243C93.6288 20.7072 93.6673 20.6983 93.7063 20.6983C93.7453 20.6983 93.7838 20.7072 93.8188 20.7243C93.8553 20.7362 93.8885 20.7566 93.9156 20.7837C93.9428 20.8109 93.9632 20.8441 93.9751 20.8806L94.8501 23.1993C94.8736 23.2642 94.8719 23.3356 94.8453 23.3993C94.8186 23.4629 94.769 23.5143 94.7063 23.5431C94.1331 23.7662 93.5211 23.8725 92.9063 23.8556ZM89.4501 21.1806C89.8229 21.9169 90.4235 22.5132 91.1626 22.8806C91.6347 23.1168 92.149 23.2571 92.6757 23.2936C93.2024 23.3301 93.7311 23.2619 94.2313 23.0931L93.5688 21.3118C92.0876 21.9118 90.3313 21.4618 89.4501 21.1806Z" fill="#231F20"/>
<path d="M94.6125 13.2306C94.6125 13.2306 97.0563 15.1556 96.8063 15.7306C96.5563 16.3056 95.3688 16.3556 95.3688 16.3556" fill="white"/>
<path d="M95.3688 16.6118C95.2974 16.612 95.2285 16.5849 95.1763 16.5362C95.124 16.4874 95.0923 16.4206 95.0876 16.3493C95.0859 16.3132 95.0913 16.2771 95.1036 16.2431C95.1159 16.2091 95.1348 16.1778 95.1592 16.1511C95.1836 16.1244 95.213 16.1028 95.2457 16.0875C95.2785 16.0722 95.3139 16.0634 95.3501 16.0618C95.6813 16.0618 96.4126 15.8931 96.5563 15.5931C96.5563 15.3493 95.5688 14.3431 94.4438 13.4493C94.3975 13.4003 94.3703 13.3363 94.3672 13.269C94.3642 13.2016 94.3854 13.1354 94.427 13.0824C94.4687 13.0293 94.528 12.993 94.5942 12.9801C94.6604 12.9672 94.729 12.9784 94.7876 13.0118C95.9813 13.9618 97.3751 15.2118 97.0563 15.8368C96.7376 16.4618 95.5188 16.6181 95.3813 16.6243L95.3688 16.6118Z" fill="#231F20"/>
<path d="M94.2501 18.1931C93.8378 18.203 93.4291 18.1139 93.0583 17.9334C92.6875 17.7529 92.3653 17.4862 92.1188 17.1556C92.0741 17.0976 92.0542 17.0241 92.0636 16.9515C92.0729 16.8788 92.1108 16.8128 92.1688 16.7681C92.2268 16.7233 92.3002 16.7035 92.3729 16.7128C92.4456 16.7222 92.5116 16.7601 92.5563 16.8181C93.8751 18.5306 96.1501 17.0743 96.2438 17.0118C96.3055 16.9735 96.3797 16.9605 96.4508 16.9757C96.5219 16.9908 96.5843 17.0329 96.6251 17.0931C96.6448 17.1234 96.6584 17.1574 96.6651 17.193C96.6717 17.2286 96.6712 17.2652 96.6637 17.3006C96.6561 17.336 96.6416 17.3696 96.6211 17.3994C96.6005 17.4292 96.5742 17.4547 96.5438 17.4743C95.8605 17.9216 95.0664 18.1704 94.2501 18.1931Z" fill="#231F20"/>
<path d="M95.7189 12.9931H95.6501C95.4367 12.9211 95.2078 12.9082 94.9876 12.9556C94.9569 12.9734 94.9229 12.985 94.8877 12.9896C94.8525 12.9942 94.8167 12.9918 94.7824 12.9825C94.7481 12.9732 94.716 12.9572 94.6879 12.9354C94.6598 12.9136 94.6364 12.8865 94.6189 12.8556C94.6001 12.8237 94.588 12.7884 94.5832 12.7518C94.5785 12.7152 94.5811 12.678 94.591 12.6424C94.6009 12.6068 94.6179 12.5736 94.641 12.5447C94.664 12.5158 94.6926 12.4919 94.7251 12.4743C95.0663 12.3386 95.4464 12.3386 95.7876 12.4743C95.851 12.4936 95.9056 12.5347 95.9416 12.5903C95.9777 12.6459 95.993 12.7125 95.9848 12.7783C95.9766 12.844 95.9454 12.9048 95.8967 12.9498C95.8481 12.9948 95.7851 13.0212 95.7189 13.0243V12.9931Z" fill="#231F20"/>
<path d="M93.4001 13.2868C93.3474 13.2839 93.2961 13.269 93.2501 13.2431C93.1664 13.182 93.1032 13.097 93.0688 12.9993C92.9813 12.8118 92.8438 12.4931 91.7188 12.9118C91.65 12.9375 91.5739 12.9348 91.5071 12.9044C91.4402 12.8739 91.3883 12.8181 91.3626 12.7493C91.3369 12.6805 91.3396 12.6044 91.3701 12.5375C91.4005 12.4707 91.4563 12.4188 91.5251 12.3931C92.9501 11.8618 93.4001 12.3181 93.5751 12.7681C93.6057 12.7876 93.632 12.8132 93.6525 12.8432C93.6729 12.8732 93.6871 12.907 93.6941 12.9427C93.7011 12.9783 93.7008 13.015 93.6933 13.0505C93.6857 13.086 93.671 13.1196 93.6501 13.1493C93.624 13.192 93.5872 13.2272 93.5434 13.2513C93.4995 13.2754 93.4501 13.2876 93.4001 13.2868Z" fill="#231F20"/>
<path d="M82.8189 36.9056C82.8189 36.9056 80.0626 50.9243 74.6939 53.5868C69.3251 56.2493 58.3813 60.3993 58.3813 60.3993L62.6501 67.0868C62.6501 67.0868 73.2751 68.0868 79.6439 64.1431C86.0126 60.1993 94.1313 46.7431 94.1313 46.7431L82.8189 36.9056Z" fill="#135E46"/>
<path d="M97.5564 20.6368C97.5564 20.6368 124.819 14.6306 129.688 15.7368C134.556 16.8431 149.769 30.7931 149.769 30.7931L142.5 37.7118C142.5 37.7118 133.8 30.1306 125.838 26.3993C118.625 27.1993 102.906 31.1493 102.906 31.1493L97.5564 20.6368Z" fill="#135E46"/>
<path d="M90.1564 12.1618C90.5024 11.7994 90.7434 11.3498 90.8535 10.8609C90.9636 10.3721 90.9387 9.86257 90.7814 9.38682L95.7189 11.8243C96.5189 12.2181 94.8251 6.13682 94.5564 5.68057C93.4877 3.86807 92.5564 2.70557 90.5877 1.88682C85.0626 -0.413175 79.2189 3.68682 75.6814 7.41807C71.3751 11.9618 64.3564 13.2368 58.2689 12.2431C55.2376 11.7493 52.3189 10.6618 49.2689 10.3306C46.2002 9.99491 43.0962 10.4312 40.2389 11.5998C37.3816 12.7684 34.8615 14.6322 32.9075 17.0221C30.9535 19.412 29.6275 22.2522 29.0499 25.2847C28.4723 28.3172 28.6615 31.446 29.6001 34.3868C31.6376 40.7743 38.4314 46.0493 44.8876 44.2493C46.2314 43.8743 47.5251 43.2243 48.9126 43.2243C50.9376 43.2243 52.6626 44.6056 54.4064 45.6056C56.6786 46.849 59.2045 47.5578 61.7919 47.678C64.3792 47.7982 66.9599 47.3267 69.3376 46.2993C72.0814 45.1181 72.8876 44.1618 73.9314 41.5868C74.8064 39.4368 75.2626 36.7243 77.7126 35.7743C78.9251 35.2993 80.3189 35.4681 81.5377 35.0181C82.7932 34.4476 83.8412 33.5022 84.5377 32.3118C88.2877 26.7368 88.7064 19.6493 86.2439 13.5618C87.7189 13.9993 89.0751 13.4118 90.1564 12.1618Z" fill="white"/>
<path d="M62.5188 47.9993C59.6231 48.019 56.7718 47.2868 54.2438 45.8743C53.8876 45.6743 53.5313 45.4556 53.1751 45.2493C51.8251 44.4181 50.4313 43.5556 48.9063 43.5493C47.9738 43.6062 47.0572 43.8174 46.1938 44.1743C45.7938 44.3118 45.3876 44.4493 44.9813 44.5618C39.4563 46.1056 31.8563 42.4243 29.3063 34.4931C28.3534 31.5027 28.1623 28.3217 28.7502 25.2388C29.3381 22.1558 30.6865 19.2684 32.6731 16.8386C34.6596 14.4088 37.2215 12.5135 40.1261 11.3246C43.0307 10.1357 46.1862 9.69095 49.3063 10.0306C51.0197 10.26 52.7154 10.6067 54.3813 11.0681C55.6688 11.3931 56.9938 11.7306 58.3188 11.9431C63.6126 12.8118 70.8938 12.0243 75.4563 7.21183C77.9001 4.63683 84.2813 -1.06317 90.7063 1.58683C92.7188 2.42433 93.7063 3.61808 94.8251 5.51808C94.8251 5.56808 96.7438 11.3118 96.0751 12.0181C96.0111 12.0849 95.927 12.129 95.8356 12.1436C95.7442 12.1583 95.6506 12.1427 95.5688 12.0993L91.1938 9.95558C91.2221 10.3923 91.1625 10.8302 91.0187 11.2435C90.8748 11.6568 90.6496 12.037 90.3563 12.3618C89.9415 12.9138 89.3924 13.3506 88.7612 13.6306C88.13 13.9107 87.4377 14.0247 86.7501 13.9618C87.9243 16.9799 88.3594 20.235 88.0191 23.4555C87.6788 26.676 86.5729 29.7684 84.7938 32.4743C84.1688 33.4243 83.1251 34.7493 81.6688 35.2931C81.0349 35.5012 80.378 35.6313 79.7126 35.6806C79.0744 35.7225 78.4442 35.8464 77.8376 36.0493C75.9626 36.7743 75.3376 38.6181 74.7126 40.4243C74.5563 40.8618 74.4001 41.2993 74.2376 41.7118C73.1876 44.2868 72.3626 45.3493 69.4751 46.5931C67.2756 47.5283 64.9089 48.0067 62.5188 47.9993ZM48.8938 42.9118C50.6001 42.9118 52.0688 43.8243 53.4938 44.6993C53.8438 44.9181 54.1938 45.1306 54.5438 45.3243C56.7736 46.5434 59.2517 47.2383 61.7902 47.3564C64.3286 47.4744 66.8606 47.0124 69.1938 46.0056C71.8938 44.8431 72.6376 43.8993 73.6251 41.4618C73.7876 41.0618 73.9376 40.6368 74.0876 40.2118C74.7688 38.2931 75.4626 36.3056 77.5813 35.4806C78.2356 35.2569 78.9164 35.1203 79.6063 35.0743C80.22 35.0284 80.8262 34.9109 81.4126 34.7243C82.7251 34.2368 83.6626 33.0181 84.2626 32.1368C86.0354 29.4308 87.1154 26.3303 87.4075 23.1085C87.6996 19.8867 87.1948 16.6425 85.9376 13.6618C85.916 13.6063 85.9104 13.5458 85.9215 13.4873C85.9325 13.4287 85.9598 13.3744 86.0001 13.3306C86.0393 13.287 86.0901 13.2556 86.1466 13.2401C86.2031 13.2246 86.2629 13.2256 86.3188 13.2431C87.9251 13.7431 89.1563 12.8181 89.9063 11.9931C90.2154 11.674 90.4317 11.2767 90.5319 10.844C90.6321 10.4112 90.6125 9.95927 90.4751 9.53683C90.45 9.47737 90.4444 9.41151 90.459 9.34866C90.4736 9.28581 90.5077 9.22917 90.5563 9.18683C90.6028 9.14413 90.6611 9.1165 90.7236 9.10757C90.7861 9.09865 90.8498 9.10885 90.9063 9.13683L95.6188 11.4618C95.3598 9.54427 94.901 7.65903 94.2501 5.83683C93.1813 4.01183 92.2938 2.94308 90.4376 2.16808C84.3626 -0.33192 78.2313 5.14308 75.8751 7.62433C71.1501 12.6243 63.6438 13.4368 58.1813 12.5431C56.8376 12.3243 55.4938 11.9868 54.2001 11.6556C52.5591 11.2002 50.8884 10.8598 49.2001 10.6368C46.1837 10.3074 43.1329 10.7369 40.3246 11.8862C37.5164 13.0354 35.0398 14.8681 33.1199 17.2178C31.2 19.5674 29.8975 22.3595 29.3308 25.3404C28.7642 28.3213 28.9512 31.3966 29.8751 34.2868C31.7876 40.2931 38.3813 45.7306 44.7813 43.9493C45.1751 43.8368 45.5688 43.7056 45.9563 43.5681C46.8925 43.1885 47.8851 42.9667 48.8938 42.9118Z" fill="#231F20"/>
<path d="M30.5001 103.081C29.4438 102.349 66.5938 94.0493 126.388 78.4181C153.1 71.4306 175.706 70.0056 183.138 75.5618C190.569 81.1181 179.319 103.687 143.138 117.362C106.956 131.037 66.1251 127.618 30.5001 103.081Z" fill="#F2B32A"/>
<path d="M84.7188 111.637C84.6484 111.637 84.5804 111.611 84.5283 111.563C84.4762 111.516 84.4438 111.451 84.4376 111.381C84.4341 111.306 84.4594 111.234 84.5084 111.178C84.5573 111.122 84.626 111.087 84.7001 111.081C130.775 108.037 177.456 82.9556 177.919 82.6806C177.983 82.6458 178.059 82.6381 178.13 82.6592C178.2 82.6803 178.259 82.7284 178.294 82.7931C178.329 82.8577 178.336 82.9336 178.315 83.0039C178.294 83.0742 178.246 83.1333 178.181 83.1681C177.719 83.4181 130.931 108.581 84.7313 111.637H84.7188Z" fill="white"/>
<path d="M97.5564 54.0181C97.47 54.0182 97.387 53.9845 97.3251 53.9243C94.0251 50.4118 85.9314 45.3306 85.8501 45.2743C85.8147 45.2538 85.7839 45.2263 85.7595 45.1935C85.7352 45.1607 85.7178 45.1232 85.7084 45.0834C85.699 45.0436 85.6979 45.0023 85.7051 44.9621C85.7123 44.9218 85.7276 44.8834 85.7501 44.8493C85.7712 44.8137 85.7993 44.7828 85.8327 44.7584C85.8661 44.7339 85.9041 44.7165 85.9444 44.7072C85.9847 44.6978 86.0265 44.6967 86.0672 44.704C86.1079 44.7112 86.1468 44.7267 86.1814 44.7493C86.5126 44.9556 94.4251 49.9243 97.7814 53.4993C97.8255 53.5425 97.8556 53.5981 97.8676 53.6587C97.8797 53.7193 97.8731 53.7821 97.8487 53.8389C97.8244 53.8957 97.7834 53.9438 97.7313 53.9769C97.6791 54.01 97.6181 54.0265 97.5564 54.0243V54.0181Z" fill="#231F20"/>
<path d="M59.6313 126.293C34.952 118.73 14.2195 101.797 1.88129 79.1243C0.781295 77.0868 -0.0562037 74.1243 1.8313 72.8118C4.57182 74.4932 6.75814 76.9425 8.1188 79.8556C2.56255 73.3368 -1.48745 61.2181 1.93754 52.8368C2.37504 51.7681 3.25629 50.6243 4.43754 50.7618C5.61879 50.8993 6.12505 52.0868 6.46255 53.1118C7.5688 56.3243 7.77504 59.6618 9.09379 62.7993C10.4125 65.9368 11.75 68.9618 13.275 71.9306C16.2349 77.937 19.7724 83.6409 23.8375 88.9618C22.5875 87.3806 22.125 84.2993 21.5625 82.4056C20.8049 79.7502 20.8049 76.9359 21.5625 74.2806C21.7383 73.2972 22.2618 72.4099 23.0375 71.7806C23.5606 71.4915 24.1573 71.3629 24.753 71.4107C25.3487 71.4585 25.9172 71.6806 26.3875 72.0493C27.32 72.8022 28.0379 73.7873 28.4688 74.9056C30.6063 79.6556 30.7313 85.0931 32.6563 89.9368C34.7875 95.2868 39.4313 100.249 43.6375 104.087C48.4686 108.503 53.9839 112.106 59.9688 114.756C57.815 111.566 56.5232 107.873 56.2188 104.037C56.8438 103.099 58.325 103.137 59.25 103.787C60.175 104.437 60.7063 105.493 61.275 106.474C62.898 109.221 65.066 111.607 67.6457 113.485C70.2254 115.363 73.1621 116.693 76.275 117.393C79.9438 118.199 100.181 123.074 144.869 116.768C144.869 116.768 121.606 124.893 107.931 127.156C93.275 129.506 73.8438 130.574 59.6313 126.293Z" fill="white"/>
<path d="M83.0001 129.524C75.1688 129.524 66.8313 128.793 59.5188 126.593C34.744 119.045 13.9371 102.046 1.60008 79.2743C0.975079 78.1368 -0.806169 74.2743 1.65008 72.5556C1.70047 72.5203 1.76047 72.5015 1.82196 72.5015C1.88344 72.5015 1.94344 72.5203 1.99383 72.5556C2.66328 72.9655 3.30242 73.4229 3.90633 73.9243C0.643831 67.3056 -0.887419 58.9243 1.65008 52.7306C2.13758 51.5368 3.11883 50.3056 4.44383 50.4618C5.45008 50.5743 6.21258 51.4118 6.76258 53.0181C7.22372 54.4529 7.59938 55.9138 7.88758 57.3931C8.22158 59.1999 8.72161 60.972 9.38133 62.6868C10.7626 65.9806 12.1251 68.9368 13.5563 71.8056C16.0738 76.8887 19.0001 81.7589 22.3063 86.3681C22.0688 85.6118 21.8751 84.8243 21.6813 84.0806C21.5376 83.4993 21.4063 82.9493 21.2626 82.4743C20.49 79.7658 20.49 76.8953 21.2626 74.1868C21.4424 73.1156 22.0069 72.1467 22.8501 71.4618C23.4267 71.1391 24.0856 70.9931 24.7446 71.042C25.4036 71.0909 26.0336 71.3325 26.5563 71.7368C27.5284 72.5243 28.2781 73.552 28.7313 74.7181C29.7783 77.2929 30.5452 79.9729 31.0188 82.7118C31.4554 85.1158 32.0952 87.4785 32.9313 89.7743C34.6438 94.0931 38.2126 98.6806 43.8313 103.812C48.3737 107.971 53.5301 111.405 59.1188 113.993C57.2727 110.96 56.1678 107.534 55.8938 103.993C55.8888 103.923 55.9063 103.853 55.9438 103.793C56.0955 103.576 56.2894 103.392 56.5138 103.251C56.7382 103.11 56.9886 103.016 57.2501 102.974C58.0088 102.852 58.7853 103.027 59.4188 103.462C60.2304 104.121 60.8839 104.954 61.3313 105.899L61.5376 106.249C63.1405 108.956 65.2786 111.306 67.8212 113.158C70.3638 115.01 73.2575 116.323 76.3251 117.018L76.6126 117.081C92.4813 120.599 116.7 120.349 144.806 116.387C144.847 116.377 144.89 116.376 144.931 116.383C144.973 116.39 145.013 116.405 145.048 116.428C145.084 116.45 145.115 116.479 145.139 116.513C145.164 116.548 145.181 116.586 145.191 116.627C145.2 116.668 145.201 116.711 145.194 116.753C145.187 116.794 145.172 116.834 145.15 116.869C145.128 116.905 145.098 116.936 145.064 116.961C145.03 116.985 144.991 117.002 144.95 117.012C144.719 117.093 121.506 125.193 107.963 127.412C99.7098 128.768 91.3634 129.474 83.0001 129.524ZM59.7001 125.993C76.5751 131.074 98.9876 128.249 107.825 126.799C118.381 125.062 134.863 119.737 141.644 117.468C114.831 121.018 91.7688 121.118 76.4376 117.718L76.1501 117.656C72.9976 116.942 70.024 115.592 67.4115 113.688C64.7989 111.785 62.6024 109.369 60.9563 106.587L60.7563 106.231C60.3443 105.372 59.7541 104.612 59.0251 103.999C58.5287 103.658 57.9197 103.521 57.3251 103.618C56.9981 103.667 56.7003 103.834 56.4876 104.087C56.8036 107.828 58.0731 111.426 60.1751 114.537C60.2147 114.591 60.2361 114.657 60.2361 114.724C60.2361 114.792 60.2147 114.857 60.1751 114.912C60.1299 114.962 60.0704 114.998 60.0045 115.014C59.9385 115.029 59.8694 115.024 59.8063 114.999C53.7876 112.339 48.2422 108.717 43.3876 104.274C37.7001 99.0806 34.0813 94.4118 32.3313 90.0056C31.4822 87.6752 30.8319 85.277 30.3876 82.8368C29.9225 80.1475 29.1703 77.5157 28.1438 74.9868C27.7332 73.9207 27.0527 72.9795 26.1688 72.2556C25.7468 71.928 25.239 71.7295 24.7067 71.684C24.1744 71.6385 23.6403 71.7481 23.1688 71.9993C22.461 72.5945 21.9853 73.4198 21.8251 74.3306C21.0804 76.9283 21.0804 79.6829 21.8251 82.2806C21.9688 82.7681 22.1063 83.3243 22.2501 83.9118C22.6813 85.6431 23.1688 87.6056 24.0438 88.7368C24.0719 88.7689 24.0932 88.8064 24.1062 88.847C24.1193 88.8877 24.1239 88.9305 24.1198 88.973C24.1156 89.0154 24.1028 89.0566 24.0822 89.0939C24.0616 89.1313 24.0335 89.164 23.9997 89.19C23.9659 89.2161 23.9272 89.235 23.8859 89.2455C23.8445 89.2561 23.8015 89.258 23.7593 89.2513C23.7172 89.2445 23.6769 89.2292 23.6409 89.2063C23.6049 89.1834 23.574 89.1534 23.5501 89.1181C19.485 83.7996 15.9514 78.0952 13.0001 72.0868C11.5626 69.2243 10.1938 66.2306 8.80633 62.9306C8.12963 61.1798 7.61701 59.3699 7.27508 57.5243C6.99242 56.0702 6.62301 54.6343 6.16883 53.2243C5.70633 51.8681 5.11883 51.1681 4.37508 51.0806C3.40008 50.9618 2.63133 51.9868 2.23133 52.9556C-0.443669 59.4931 1.53758 68.5181 5.28133 75.1868C6.56667 76.5162 7.62266 78.0495 8.40633 79.7243C8.43811 79.7925 8.44423 79.8699 8.42356 79.9422C8.4029 80.0145 8.35683 80.077 8.29383 80.1181C8.22963 80.1573 8.15363 80.1725 8.07929 80.1611C8.00494 80.1496 7.93703 80.1123 7.88758 80.0556C6.70389 78.6661 5.65735 77.1653 4.76258 75.5743C3.88171 74.6672 2.89798 73.8659 1.83133 73.1868C0.418831 74.3993 1.04383 76.9368 2.13758 78.9743C14.3962 101.609 35.0795 118.502 59.7063 125.993H59.7001Z" fill="#231F20"/>
<path d="M11.7501 39.9868C11.8738 39.754 12.0727 39.5698 12.3144 39.4643C12.5561 39.3587 12.8264 39.3381 13.0813 39.4056C13.7063 39.6556 13.8188 40.5056 13.8188 41.1868C13.8188 42.9868 13.9563 44.7743 14.0438 46.5681C14.1126 47.8181 14.7813 51.0931 14.1001 52.1931C13.0813 53.8243 12.2813 51.6368 11.8938 50.3181C11.1251 47.7806 10.3188 42.4493 11.7501 39.9868Z" fill="white"/>
<path d="M13.4001 53.0743H13.3001C12.6751 52.9868 12.1501 52.1743 11.6188 50.4368C10.7876 47.6743 10.0126 42.3618 11.5063 39.8118C11.6663 39.5142 11.9239 39.2808 12.2359 39.1511C12.5478 39.0213 12.895 39.003 13.2188 39.0993C14.1688 39.4618 14.1563 40.7493 14.1563 41.1743C14.1563 42.4868 14.2251 43.8243 14.3001 45.1181C14.3001 45.5868 14.3626 46.0618 14.3813 46.5306C14.3813 46.8368 14.4501 47.2618 14.5126 47.7806C14.7126 49.4056 14.9626 51.4368 14.3938 52.3431C14.0938 52.8306 13.7563 53.0743 13.4001 53.0743ZM12.7751 39.6618C12.6196 39.6753 12.4699 39.7268 12.3391 39.8118C12.2083 39.8968 12.1005 40.0127 12.0251 40.1493C10.7063 42.3743 11.3313 47.3931 12.1938 50.2493C12.8188 52.2243 13.2313 52.4306 13.3563 52.4493C13.4813 52.4681 13.6563 52.2993 13.8376 52.0118C14.2876 51.2931 14.0376 49.2243 13.8688 47.8556C13.8063 47.3493 13.7501 46.9056 13.7376 46.6056C13.7376 46.1368 13.6813 45.6681 13.6563 45.1993C13.5751 43.8931 13.4938 42.5493 13.5063 41.2118C13.5063 40.3493 13.3376 39.8618 12.9688 39.7243C12.9168 39.6936 12.8596 39.6724 12.8001 39.6618H12.7751Z" fill="#D1D3D4"/>
<path d="M45.6563 90.5243C45.2688 89.5743 44.8813 88.6181 44.4876 87.6681C43.5751 85.4368 40.4126 84.4368 39.7876 87.3243C39.3689 89.2493 40.6126 91.6993 41.2938 93.4243C42.1442 95.6834 43.4169 97.76 45.0438 99.5431C45.8626 100.424 50.6376 103.293 49.3813 100.012C48.1251 96.7306 46.9313 93.6743 45.6563 90.5243Z" fill="white"/>
<path d="M48.9563 101.849C47.6125 101.849 45.3313 100.287 44.8376 99.7556C43.169 97.9379 41.8662 95.8159 41.0001 93.5056C40.8876 93.2181 40.7688 92.9181 40.6376 92.6056C39.9563 90.9681 39.1126 88.9306 39.4813 87.2306C39.7376 86.0306 40.4626 85.2993 41.4563 85.2118C42.7063 85.1056 44.2 86.1118 44.7813 87.5181L45.9438 90.3743C47.1938 93.4993 48.4813 96.7181 49.6938 99.8681C50.05 100.781 49.9938 101.387 49.5375 101.674C49.3648 101.788 49.1629 101.848 48.9563 101.849ZM41.6626 85.8368H41.5126C40.7876 85.8993 40.2626 86.4618 40.0876 87.3681C39.7626 88.8806 40.5688 90.8181 41.2126 92.3681L41.5813 93.2743C42.4238 95.5008 43.6838 97.5458 45.2938 99.2993C45.975 100.024 48.6063 101.518 49.2063 101.143C49.3625 101.049 49.325 100.643 49.1125 100.093C47.9 96.9681 46.6125 93.7556 45.3625 90.6118C44.975 89.6535 44.5855 88.7014 44.1938 87.7556C43.9919 87.2321 43.6481 86.7753 43.2009 86.4364C42.7538 86.0975 42.2211 85.8898 41.6626 85.8368Z" fill="#231F20"/>
<path d="M104.35 31.1056C104.278 31.1045 104.209 31.0792 104.153 31.0338C104.098 30.9884 104.059 30.9256 104.044 30.8556C104.036 30.8154 104.035 30.7739 104.043 30.7336C104.051 30.6933 104.067 30.655 104.089 30.6207C104.112 30.5865 104.141 30.557 104.175 30.534C104.209 30.5111 104.247 30.495 104.288 30.4868L125.775 26.1118C125.816 26.1036 125.858 26.1036 125.899 26.1117C125.94 26.1198 125.98 26.136 126.014 26.1592C126.049 26.1824 126.079 26.2122 126.102 26.247C126.126 26.2818 126.142 26.3208 126.15 26.3618C126.158 26.4029 126.158 26.4451 126.15 26.4862C126.142 26.5272 126.126 26.5663 126.103 26.6011C126.079 26.6359 126.05 26.6658 126.015 26.6891C125.98 26.7124 125.941 26.7286 125.9 26.7368L104.413 31.1118L104.35 31.1056Z" fill="#231F20"/>
<path d="M19.6314 57.8743C19.2536 57.6557 18.8084 57.5845 18.3814 57.6743C17.6064 57.8868 17.2876 58.7993 17.1814 59.5993C17.0111 60.9106 17.0895 62.2422 17.4126 63.5243C17.7564 64.8743 18.5439 66.7493 20.3001 66.3056C23.5814 65.4931 21.8564 59.0181 19.6314 57.8743Z" fill="white"/>
<path d="M19.8188 66.6868C18.5689 66.6868 17.6439 65.6118 17.1376 63.5993C16.806 62.2782 16.7255 60.9065 16.9001 59.5556C17.0563 58.3556 17.5626 57.5806 18.3251 57.3681C18.8183 57.2595 19.3342 57.3422 19.7688 57.5993C21.3438 58.4056 22.6751 61.6243 22.4063 63.9806C22.2438 65.3931 21.5313 66.3306 20.4001 66.6118C20.2101 66.6605 20.0149 66.6857 19.8188 66.6868ZM18.7251 57.9368C18.6464 57.925 18.5663 57.925 18.4876 57.9368C17.8063 58.1243 17.5876 59.0618 17.5189 59.5993C17.3525 60.873 17.4289 62.1666 17.7438 63.4118C18.0876 64.7743 18.8001 66.3368 20.2438 65.9681C20.6887 65.8266 21.0771 65.5477 21.3534 65.1715C21.6297 64.7952 21.7795 64.3411 21.7813 63.8743C22.0188 61.7681 20.8376 58.8118 19.4813 58.1181C19.2458 58.003 18.9872 57.9432 18.7251 57.9431V57.9368Z" fill="#D1D3D4"/>
<path d="M3.75634 39.4431C3.63339 39.3067 3.4712 39.2119 3.2921 39.1716C3.11301 39.1313 2.92582 39.1475 2.75634 39.2181C2.59554 39.3414 2.46715 39.502 2.38222 39.686C2.2973 39.87 2.25839 40.0719 2.26884 40.2743C2.13759 41.6368 1.74384 44.9743 3.51884 45.4556C5.71259 46.0368 4.61259 40.3181 3.75634 39.4431Z" fill="white"/>
<path d="M3.8313 45.8368C3.70479 45.8348 3.57894 45.818 3.4563 45.7868C1.46255 45.2556 1.78755 41.9806 1.9438 40.4056V40.2743C1.93876 40.0174 1.99715 39.7633 2.1138 39.5343C2.23045 39.3054 2.40176 39.1088 2.61255 38.9618C2.84076 38.856 3.09689 38.8263 3.34328 38.8769C3.58967 38.9275 3.81331 39.0559 3.9813 39.2431C4.72505 40.0056 5.6313 43.8056 4.78755 45.2493C4.69831 45.4263 4.56162 45.575 4.39275 45.6787C4.22388 45.7825 4.02949 45.8372 3.8313 45.8368ZM3.07505 39.4868C3.01678 39.4873 2.95927 39.5001 2.9063 39.5243C2.7313 39.6243 2.62505 39.8806 2.5813 40.3368V40.4681C2.45005 41.7618 2.15005 44.7868 3.6313 45.1806C3.74595 45.2297 3.87519 45.2324 3.99178 45.1881C4.10837 45.1438 4.20321 45.056 4.2563 44.9431C4.92505 43.7993 4.1063 40.2743 3.5438 39.6931C3.42432 39.556 3.25621 39.4709 3.07505 39.4556V39.4868Z" fill="#D1D3D4"/>
<path d="M8.03137 32.3681C7.94387 32.0806 7.76262 31.7431 7.45637 31.7431C7.15012 31.7431 7.05637 32.0056 6.97512 32.2368C6.68137 33.0368 6.65012 35.1306 7.43762 35.7118C8.22512 36.2931 8.46262 35.2306 8.47512 34.7118C8.4515 33.9121 8.30174 33.1211 8.03137 32.3681Z" fill="white"/>
<path d="M7.83766 36.1993C7.62441 36.1904 7.42008 36.1113 7.25641 35.9743C6.2814 35.2618 6.37515 32.9618 6.6814 32.1368C6.7266 31.9622 6.82257 31.8048 6.95718 31.6847C7.09178 31.5645 7.25899 31.487 7.43765 31.4618C7.6814 31.4618 8.06266 31.5368 8.33141 32.2931C8.61426 33.0821 8.76832 33.9114 8.78766 34.7493C8.78766 35.1493 8.63766 35.8993 8.16266 36.1431C8.0599 36.1859 7.94884 36.2051 7.83766 36.1993ZM7.47516 32.0868C7.42516 32.0868 7.33141 32.1931 7.26891 32.3743C7.00016 33.0931 7.00016 35.0306 7.62516 35.4993C7.67516 35.5368 7.80641 35.6243 7.87516 35.5868C7.94391 35.5493 8.15641 35.1056 8.16266 34.7431C8.13635 33.9738 7.99304 33.213 7.73766 32.4868C7.65641 32.2056 7.54391 32.0868 7.47516 32.0868Z" fill="#D1D3D4"/>
<path d="M75.2313 125.637H75.1688C57.0438 121.949 45.3313 114.887 38.6876 109.612C31.4751 103.881 28.5126 98.9618 28.4813 98.8993C28.44 98.827 28.4286 98.7414 28.4497 98.6608C28.4707 98.5802 28.5224 98.511 28.5938 98.4681C28.6652 98.4271 28.7499 98.4159 28.8294 98.4369C28.909 98.458 28.9771 98.5096 29.0188 98.5806C29.1313 98.7743 40.8938 118.018 75.2688 125.018C75.3517 125.026 75.4279 125.067 75.4806 125.132C75.5334 125.196 75.5583 125.279 75.55 125.362C75.5418 125.445 75.5009 125.521 75.4364 125.574C75.372 125.626 75.2892 125.651 75.2063 125.643L75.2313 125.637Z" fill="#D1D3D4"/>
<path d="M7.62508 67.5368C7.56823 67.5364 7.51257 67.5204 7.46412 67.4907C7.41566 67.461 7.37623 67.4186 7.35008 67.3681C5.47508 63.6493 3.20008 57.5556 3.18133 57.4931C3.15286 57.416 3.15592 57.3308 3.18985 57.2559C3.22377 57.181 3.28583 57.1225 3.36258 57.0931C3.44135 57.0647 3.52811 57.0685 3.60413 57.1036C3.68014 57.1387 3.7393 57.2022 3.76883 57.2806C3.76883 57.3368 6.03133 63.3993 7.90633 67.0806C7.92566 67.1174 7.93745 67.1578 7.94099 67.1992C7.94453 67.2407 7.93975 67.2824 7.92695 67.322C7.91414 67.3616 7.89356 67.3982 7.8664 67.4297C7.83925 67.4613 7.80608 67.4871 7.76883 67.5056C7.7235 67.5256 7.67461 67.5362 7.62508 67.5368Z" fill="#D1D3D4"/>
<path d="M101.531 125.687C99.2001 125.687 96.8001 125.687 94.8501 125.587C94.7678 125.582 94.6905 125.545 94.6346 125.485C94.5786 125.424 94.5484 125.344 94.5501 125.262C94.5578 125.181 94.5952 125.105 94.6552 125.05C94.7152 124.994 94.7935 124.963 94.8751 124.962C100.669 125.193 110.469 124.962 110.569 124.962C110.609 124.961 110.649 124.968 110.687 124.983C110.724 124.997 110.758 125.019 110.787 125.047C110.816 125.075 110.84 125.108 110.856 125.145C110.872 125.182 110.881 125.222 110.881 125.262C110.883 125.303 110.876 125.345 110.862 125.384C110.847 125.423 110.825 125.458 110.797 125.489C110.768 125.519 110.734 125.543 110.696 125.56C110.658 125.577 110.617 125.586 110.575 125.587C110.5 125.587 106.156 125.687 101.531 125.687Z" fill="#D1D3D4"/>
</svg>
