<svg width="188" height="107" viewBox="0 0 188 107" fill="none" xmlns="http://www.w3.org/2000/svg">
<path d="M119.487 5.92432H91.6V25.8993H119.487V5.92432Z" fill="white"/>
<path d="M119.488 26.2056H91.6001C91.5172 26.2056 91.4377 26.1726 91.3791 26.114C91.3205 26.0554 91.2876 25.976 91.2876 25.8931V5.92432C91.2876 5.84144 91.3205 5.76196 91.3791 5.70335C91.4377 5.64474 91.5172 5.61182 91.6001 5.61182H119.488C119.57 5.61182 119.65 5.64474 119.709 5.70335C119.767 5.76196 119.8 5.84144 119.8 5.92432V25.9243C119.792 26.0017 119.756 26.0733 119.698 26.1254C119.64 26.1774 119.565 26.206 119.488 26.2056ZM91.9126 25.5806H119.175V6.23682H91.9126V25.5806Z" fill="#231F20"/>
<path d="M110.806 10.6618H70.5062V25.8368H110.806V10.6618Z" fill="white"/>
<path d="M110.8 26.1431H70.5063C70.4235 26.1431 70.344 26.1102 70.2854 26.0516C70.2268 25.993 70.1938 25.9135 70.1938 25.8306V10.6618C70.1938 10.5789 70.2268 10.4995 70.2854 10.4408C70.344 10.3822 70.4235 10.3493 70.5063 10.3493H110.8C110.883 10.3493 110.962 10.3822 111.021 10.4408C111.08 10.4995 111.113 10.5789 111.113 10.6618V25.8306C111.113 25.9135 111.08 25.993 111.021 26.0516C110.962 26.1102 110.883 26.1431 110.8 26.1431ZM70.8001 25.5181H110.469V10.9743H70.8188L70.8001 25.5181Z" fill="#231F20"/>
<path d="M121.05 0.349319H90.0375V7.28682H121.05V0.349319Z" fill="white"/>
<path d="M121.05 7.58682H90.0376C89.9552 7.58522 89.8767 7.55178 89.8184 7.49352C89.7601 7.43526 89.7267 7.3567 89.7251 7.27432V0.349319C89.7251 0.266439 89.758 0.186953 89.8166 0.128348C89.8752 0.0697432 89.9547 0.0368195 90.0376 0.0368195H121.05C121.133 0.0368195 121.212 0.0697432 121.271 0.128348C121.33 0.186953 121.363 0.266439 121.363 0.349319V7.28682C121.359 7.36751 121.325 7.44382 121.267 7.49975C121.208 7.55568 121.131 7.58688 121.05 7.58682ZM90.3501 6.96182H120.738V0.661819H90.3501V6.96182Z" fill="#231F20"/>
<path d="M69 10.6618C69.0038 11.8996 68.7438 13.124 68.2372 14.2534C67.7307 15.3828 66.9894 16.3914 66.0626 17.2118C65.7056 17.5347 65.3208 17.8255 64.9126 18.0806C63.5166 18.9594 61.8996 19.4233 60.25 19.4181C59.6348 19.4198 59.021 19.357 58.4188 19.2306C58.2063 19.1868 58.0001 19.1306 57.7938 19.0743C56.5232 18.7018 55.3533 18.0467 54.3716 17.1581C53.3899 16.2695 52.6219 15.1704 52.125 13.9431C51.9301 13.4705 51.7795 12.9809 51.675 12.4806C51.396 11.1507 51.4286 9.77424 51.7701 8.45901C52.1117 7.14378 52.753 5.92543 53.6438 4.89932L53.9375 4.58057C55.2753 3.19308 57.0322 2.2839 58.9375 1.99307C59.2525 1.94785 59.5696 1.91865 59.8875 1.90557H60.25C61.7173 1.90487 63.1611 2.27313 64.4488 2.97647C65.7364 3.67982 66.8265 4.69566 67.6188 5.93057C67.7438 6.12432 67.8563 6.31807 67.9625 6.51807C68.6474 7.79164 69.004 9.21581 69 10.6618Z" fill="white"/>
<path d="M60.2499 19.7306C59.6199 19.7308 58.9916 19.6658 58.3749 19.5368C58.15 19.4868 57.9374 19.4368 57.7499 19.3743C56.4352 18.9855 55.2247 18.3063 54.2078 17.3867C53.1909 16.4672 52.3937 15.3309 51.875 14.0618C51.6787 13.5694 51.5239 13.0613 51.4125 12.5431C51.1239 11.1661 51.1577 9.74104 51.5112 8.37928C51.8646 7.01751 52.5282 5.75592 53.4499 4.69308L53.7562 4.36182C55.1458 2.9228 56.9715 1.98253 58.9499 1.68683C59.2771 1.63673 59.6068 1.60543 59.9374 1.59308H60.2499C61.7699 1.59017 63.266 1.97064 64.5999 2.69931C65.9338 3.42798 67.0624 4.4813 67.8812 5.76183C68.0125 5.96183 68.1312 6.16808 68.2437 6.38683C69.2078 8.18757 69.5367 10.2608 69.1772 12.2715C68.8177 14.2822 67.7908 16.113 66.2624 17.4681C65.8929 17.7994 65.4956 18.0984 65.075 18.3618C63.6285 19.2654 61.9554 19.74 60.2499 19.7306ZM60.2499 2.23058H59.9187C59.6109 2.24055 59.3041 2.26977 58.9999 2.31808C57.1569 2.59838 55.4572 3.47681 54.1624 4.81808C54.0624 4.91808 53.9687 5.01807 53.8812 5.12432C52.5382 6.66366 51.7987 8.6377 51.7999 10.6806C51.8015 11.2706 51.8622 11.8589 51.9812 12.4368C52.2979 13.9308 53.0138 15.311 54.0528 16.4303C55.0918 17.5496 56.4149 18.3662 57.8812 18.7931C58.0812 18.8493 58.2812 18.8993 58.5062 18.9431C60.6543 19.388 62.8913 18.992 64.7562 17.8368C65.152 17.5756 65.5261 17.283 65.8749 16.9618C67.2988 15.7003 68.255 13.9949 68.5885 12.1221C68.922 10.2492 68.6133 8.31857 67.7125 6.64307C67.6125 6.44932 67.5 6.26183 67.3812 6.07433C66.6139 4.88212 65.558 3.90299 64.3113 3.22776C63.0647 2.55254 61.6677 2.20309 60.2499 2.21183V2.23058Z" fill="#231F20"/>
<path d="M59.1875 7.28681C59.1313 7.33681 58.6375 7.75557 57.9375 8.39932C55.9076 10.1478 53.9676 11.9981 52.125 13.9431C51.9301 13.4705 51.7795 12.9809 51.675 12.4806C51.396 11.1507 51.4286 9.77424 51.7701 8.45901C52.1117 7.14378 52.753 5.92543 53.6438 4.89931L53.9375 4.58057C55.4772 4.90828 56.9339 5.54626 58.2188 6.45557C58.5602 6.71032 58.8839 6.98804 59.1875 7.28681Z" fill="#135E46"/>
<path d="M52.125 14.2556H52.0688C52.0163 14.2453 51.9672 14.2222 51.9257 14.1884C51.8843 14.1547 51.8518 14.1112 51.8313 14.0618C51.635 13.5694 51.4802 13.0613 51.3687 12.5431C51.0802 11.1661 51.114 9.74104 51.4675 8.37927C51.8209 7.01751 52.4845 5.75592 53.4063 4.69307L53.7125 4.36182C53.7502 4.32373 53.7968 4.29574 53.8482 4.28045C53.8995 4.26515 53.9539 4.26305 54.0062 4.27432C55.5824 4.6223 57.071 5.28794 58.3813 6.23057C58.7315 6.48184 59.0636 6.75752 59.375 7.05557C59.4366 7.11455 59.4725 7.19536 59.475 7.28057C59.4733 7.34791 59.4516 7.41321 59.4125 7.46807C59.3924 7.49751 59.3669 7.52294 59.3375 7.54307C59.2375 7.63057 58.7625 8.03057 58.0875 8.63057C56.6563 9.88057 54 12.2993 52.3375 14.1556C52.2816 14.2142 52.2058 14.2499 52.125 14.2556ZM54.0438 4.92432C53.9875 4.98682 53.9313 5.04307 53.8813 5.10557C52.5382 6.64491 51.7988 8.61895 51.8 10.6618C51.8015 11.2518 51.8622 11.8402 51.9813 12.4181C52.0505 12.7348 52.136 13.0477 52.2375 13.3556C53.925 11.5431 56.3438 9.35557 57.6938 8.16182L58.7063 7.27432C58.4938 7.08682 58.2688 6.90557 58.0313 6.73057C56.8357 5.87281 55.4829 5.25904 54.05 4.92432H54.0438Z" fill="#231F20"/>
<path d="M67.9688 6.51182C66.9375 6.41807 66.0938 8.12432 65.1438 8.16182C63.9339 8.16453 62.7269 8.2775 61.5375 8.49932C60.7532 8.54747 59.9671 8.43912 59.225 8.18057L59.1375 6.13057L58.9625 1.99307C59.2775 1.94785 59.5946 1.91865 59.9125 1.90557H60.25C61.7172 1.90487 63.1611 2.27313 64.4487 2.97647C65.7364 3.67982 66.8265 4.69566 67.6188 5.93057C67.75 6.11807 67.8625 6.33682 67.9688 6.51182Z" fill="#135E46"/>
<path d="M61.1313 8.83682C60.4486 8.80383 59.7736 8.67766 59.1251 8.46182C59.065 8.44254 59.0123 8.40518 58.9743 8.35483C58.9363 8.30449 58.9147 8.24363 58.9126 8.18057L58.6501 1.99307C58.6476 1.9171 58.6729 1.84283 58.7212 1.78416C58.7695 1.72549 58.8375 1.68644 58.9126 1.67432C59.2397 1.62422 59.5694 1.59292 59.9001 1.58057H60.2501C61.77 1.57765 63.2661 1.95813 64.6 2.6868C65.9339 3.41547 67.0625 4.46879 67.8813 5.74932C68.0126 5.94932 68.1313 6.15557 68.2438 6.37432C68.2712 6.42298 68.2856 6.47787 68.2856 6.5337C68.2856 6.58953 68.2712 6.64441 68.2438 6.69307C68.2126 6.73967 68.1695 6.77703 68.1189 6.80122C68.0683 6.82541 68.0122 6.83555 67.9563 6.83057C67.5376 6.79307 67.1001 7.19932 66.6751 7.59307C66.2882 8.05116 65.757 8.36411 65.1688 8.48057C63.9756 8.47945 62.785 8.59035 61.6126 8.81182C61.4535 8.83765 61.2922 8.84604 61.1313 8.83682ZM59.5251 7.93057C60.1571 8.15894 60.8294 8.25467 61.5001 8.21182C62.7077 7.9843 63.9337 7.86922 65.1626 7.86807C65.4938 7.86807 65.8813 7.49307 66.2626 7.14932C66.614 6.77722 67.04 6.48333 67.5126 6.28682C67.4809 6.22632 67.4454 6.16787 67.4063 6.11182C66.6125 4.87316 65.5083 3.86378 64.2035 3.18399C62.8988 2.5042 61.4389 2.17766 59.9688 2.23682C59.7563 2.23682 59.5376 2.23682 59.3438 2.28682L59.5251 7.93057Z" fill="#231F20"/>
<path d="M69.0001 10.6618C69.0038 11.8996 68.7438 13.124 68.2373 14.2534C67.7307 15.3828 66.9894 16.3914 66.0626 17.2118C65.7056 17.5347 65.3208 17.8255 64.9126 18.0806L59.8563 8.96182L59.1125 7.63057L59.4938 7.54933C59.7626 7.49308 65.1188 5.84932 67.6188 5.93057C67.7438 6.12432 67.8563 6.31807 67.9626 6.51807C68.6474 7.79164 69.004 9.21582 69.0001 10.6618Z" fill="white"/>
<path d="M64.9125 18.3931H64.8375C64.7898 18.3829 64.7454 18.361 64.7083 18.3293C64.6712 18.2977 64.6426 18.2573 64.625 18.2118L58.825 7.76182C58.7982 7.71397 58.7832 7.6604 58.7812 7.60557C58.7829 7.52319 58.8163 7.44464 58.8746 7.38637C58.9328 7.32811 59.0114 7.29467 59.0938 7.29307L59.3938 7.23057L59.7313 7.13682C61.125 6.74307 65.3563 5.53057 67.5938 5.60557C67.6453 5.60842 67.6955 5.62351 67.74 5.6496C67.7846 5.67568 67.8223 5.71201 67.85 5.75557C67.975 5.94932 68.0938 6.15557 68.2063 6.38057C69.1704 8.18132 69.4992 10.2545 69.1397 12.2652C68.7802 14.2759 67.7534 16.1067 66.225 17.4618C65.8555 17.7932 65.4582 18.0922 65.0375 18.3556C64.999 18.3767 64.9564 18.3895 64.9125 18.3931ZM59.625 7.84307L65.0563 17.6368C65.3426 17.4286 65.616 17.2032 65.875 16.9618C67.2989 15.7003 68.2551 13.9949 68.5886 12.1221C68.9221 10.2492 68.6134 8.31857 67.7125 6.64307C67.6375 6.49932 67.5563 6.35557 67.4688 6.21807C66.0188 6.21807 63.5 6.71807 59.9688 7.73057L59.625 7.84307Z" fill="#231F20"/>
<path d="M59.1813 7.28682C59.1813 7.28682 59.1813 7.43057 59.1188 7.62432C59.0625 7.93057 58.9688 8.43682 58.8625 9.08057C58.45 11.5806 57.8625 16.0868 58.4313 19.2243C58.2188 19.1806 58.0125 19.1243 57.8063 19.0681C56.534 18.6978 55.362 18.0444 54.3781 17.1569C53.3943 16.2693 52.624 15.1706 52.125 13.9431C51.9301 13.4705 51.7795 12.9809 51.675 12.4806C52.3232 11.3895 53.226 10.4716 54.3063 9.80557C55.3958 9.08573 56.5316 8.43849 57.7063 7.86807C58.1785 7.62818 58.6724 7.43356 59.1813 7.28682Z" fill="white"/>
<path d="M58.4251 19.5431H58.3751C58.1563 19.4931 57.9438 19.4431 57.7501 19.3806C56.4354 18.9918 55.2248 18.3125 54.2079 17.393C53.191 16.4734 52.3938 15.3371 51.8751 14.0681C51.6788 13.5756 51.5241 13.0676 51.4126 12.5493C51.4 12.4743 51.4133 12.3972 51.4501 12.3306C52.1241 11.1977 53.0609 10.2438 54.1813 9.54932C55.2686 8.82186 56.4022 8.16629 57.5751 7.58682C58.0681 7.31949 58.5903 7.10978 59.1313 6.96182C59.1764 6.95286 59.223 6.9544 59.2675 6.96632C59.3119 6.97824 59.353 7.00023 59.3876 7.03057C59.4216 7.05993 59.4488 7.09643 59.4672 7.13747C59.4855 7.17852 59.4946 7.22311 59.4938 7.26807C59.4938 7.34932 59.4938 7.46807 59.4251 7.66807C59.3626 7.97432 59.2688 8.46807 59.1688 9.08682C58.7688 11.5056 58.1751 16.0306 58.7376 19.1243C58.7467 19.1748 58.7435 19.2267 58.7282 19.2757C58.713 19.3246 58.6862 19.3692 58.6501 19.4056C58.6242 19.4429 58.5909 19.4745 58.5521 19.4982C58.5134 19.5218 58.4701 19.5371 58.4251 19.5431ZM52.0126 12.5306C52.3436 14.0024 53.0633 15.3586 54.0966 16.4578C55.1299 17.5571 56.439 18.3592 57.8876 18.7806L58.0438 18.8243C57.5938 15.6993 58.1563 11.3806 58.5438 9.03682C58.6313 8.50557 58.7126 8.06807 58.7751 7.78682C58.5501 7.87432 58.2438 7.99932 57.8438 8.18682C56.685 8.75044 55.562 9.38498 54.4813 10.0868C53.4824 10.702 52.6379 11.538 52.0126 12.5306Z" fill="#231F20"/>
<path d="M66.0625 17.2118C65.7055 17.5347 65.3207 17.8255 64.9125 18.0806C63.5166 18.9594 61.8996 19.4233 60.25 19.4181C59.6347 19.4198 59.021 19.357 58.4188 19.2306C58.2063 19.1868 58 19.1306 57.7938 19.0743C57.6016 17.2871 57.5639 15.4867 57.6813 13.6931C57.8153 12.0996 58.1148 10.5245 58.575 8.99307C58.7519 8.41327 58.9605 7.84366 59.2 7.28682L59.5125 7.54307C59.7438 7.73682 60.075 8.02432 60.475 8.39932C61.8966 9.68229 63.1352 11.1544 64.1563 12.7743C64.9717 14.1695 65.612 15.6599 66.0625 17.2118Z" fill="#135E46"/>
<path d="M60.25 19.7306C59.62 19.7308 58.9916 19.6658 58.375 19.5368C58.15 19.4868 57.9375 19.4368 57.75 19.3743C57.6899 19.3571 57.6364 19.3224 57.5962 19.2745C57.5561 19.2266 57.5313 19.1677 57.525 19.1056C57.3329 17.2995 57.2973 15.4802 57.4187 13.6681C57.5509 12.0514 57.8526 10.453 58.3187 8.89932C58.4956 8.31749 58.7043 7.7458 58.9437 7.18682C58.9588 7.14176 58.9845 7.10101 59.0187 7.06807C59.0751 7.01669 59.1487 6.9882 59.225 6.9882C59.3013 6.9882 59.3748 7.01669 59.4312 7.06807C59.4312 7.06807 59.5562 7.16182 59.7625 7.33682C59.9687 7.51182 60.3312 7.82432 60.7312 8.19932C62.1815 9.50865 63.4435 11.0125 64.4812 12.6681C65.3129 14.0804 65.9678 15.5897 66.4312 17.1618C66.4487 17.2178 66.4497 17.2775 66.4342 17.334C66.4187 17.3905 66.3873 17.4414 66.3437 17.4806C65.9708 17.8105 65.5716 18.1094 65.15 18.3743C63.6806 19.2873 61.9796 19.7581 60.25 19.7306ZM58.0875 18.8368L58.4937 18.9306C59.7543 19.2058 61.0614 19.1853 62.3127 18.8709C63.564 18.5564 64.7255 17.9565 65.7062 17.1181C65.263 15.6649 64.6482 14.2696 63.875 12.9618C62.8706 11.3589 61.6509 9.90159 60.25 8.63057C59.8625 8.27432 59.5375 8.00557 59.3125 7.79932C59.1937 8.11182 59.0437 8.54307 58.8812 9.08682C58.4262 10.5976 58.1308 12.1519 58 13.7243C57.89 15.428 57.9193 17.1379 58.0875 18.8368Z" fill="#231F20"/>
<path d="M59.9125 1.90557C59.8157 3.32667 59.6405 4.74132 59.3875 6.14307C59.275 6.83057 59.1875 7.28682 59.1875 7.28682C58.8396 7.0366 58.4787 6.80502 58.1063 6.59307C56.7135 5.80963 55.2115 5.23874 53.65 4.89932L53.9438 4.58057C55.2816 3.19308 57.0385 2.2839 58.9438 1.99307C59.265 1.94722 59.5883 1.91801 59.9125 1.90557Z" fill="white"/>
<path d="M59.1876 7.58682C59.1219 7.58637 59.0583 7.56442 59.0063 7.52432C58.6688 7.28682 58.3126 7.06182 57.9501 6.84932C56.5824 6.08236 55.1078 5.52411 53.5751 5.19307C53.5231 5.1808 53.4751 5.15539 53.4357 5.11928C53.3963 5.08317 53.3668 5.03756 53.3501 4.98682C53.3325 4.93522 53.3284 4.87997 53.3383 4.82636C53.3481 4.77274 53.3715 4.72255 53.4063 4.68057L53.7126 4.34932C55.1022 2.9103 56.9278 1.97002 58.9063 1.67432C59.2334 1.62422 59.5631 1.59292 59.8938 1.58057C59.9369 1.57782 59.9801 1.58482 60.0201 1.60105C60.0602 1.61728 60.096 1.64232 60.1251 1.67432C60.1853 1.73624 60.2189 1.81922 60.2188 1.90557C60.122 3.34116 59.9467 4.77037 59.6938 6.18682C59.5751 6.87432 59.4876 7.33057 59.4876 7.33057C59.4769 7.38211 59.4536 7.43021 59.4198 7.47057C59.386 7.51092 59.3427 7.54227 59.2938 7.56182C59.2599 7.57547 59.224 7.5839 59.1876 7.58682ZM54.2438 4.71182C55.6505 5.06992 57.0023 5.61654 58.2626 6.33682C58.5001 6.47432 58.7376 6.62432 58.9688 6.77432L59.0813 6.11182C59.2688 5.01807 59.4938 3.49932 59.5813 2.25557C59.3876 2.25557 59.1938 2.29307 59.0063 2.32432C57.2011 2.58839 55.5301 3.43046 54.2438 4.72432V4.71182Z" fill="#231F20"/>
<path d="M59.1876 9.11807C60.0126 9.11807 60.6814 8.4493 60.6814 7.62432C60.6814 6.79934 60.0126 6.13057 59.1876 6.13057C58.3626 6.13057 57.6938 6.79934 57.6938 7.62432C57.6938 8.4493 58.3626 9.11807 59.1876 9.11807Z" fill="white"/>
<path d="M59.1875 9.46183C58.8288 9.46306 58.4777 9.35781 58.1789 9.15941C57.88 8.961 57.6467 8.67836 57.5085 8.34728C57.3704 8.0162 57.3336 7.65157 57.4028 7.29957C57.4721 6.94757 57.6442 6.62403 57.8974 6.36992C58.1507 6.11582 58.4736 5.94257 58.8254 5.87213C59.1771 5.80168 59.5419 5.83721 59.8734 5.97421C60.205 6.1112 60.4884 6.34351 60.6879 6.64171C60.8873 6.93991 60.9938 7.29058 60.9938 7.64933C60.9938 8.12895 60.8037 8.58902 60.4651 8.92875C60.1266 9.26848 59.6671 9.46017 59.1875 9.46183ZM59.1875 6.46808C58.9521 6.46684 58.7217 6.53559 58.5254 6.6656C58.3292 6.79561 58.176 6.98101 58.0854 7.19825C57.9947 7.41549 57.9707 7.65477 58.0163 7.8857C58.0619 8.11664 58.1751 8.3288 58.3416 8.49525C58.508 8.6617 58.7202 8.77493 58.9511 8.82055C59.1821 8.86617 59.4214 8.84213 59.6386 8.75147C59.8558 8.66082 60.0412 8.50765 60.1713 8.31141C60.3013 8.11517 60.37 7.88472 60.3688 7.64933C60.3713 7.49234 60.3426 7.33641 60.2844 7.19058C60.2262 7.04474 60.1397 6.91189 60.0299 6.79971C59.92 6.68753 59.789 6.59825 59.6444 6.53704C59.4998 6.47582 59.3445 6.44388 59.1875 6.44308V6.46808Z" fill="#231F20"/>
<path d="M35.0937 19.0868C35.0937 19.0868 35.4437 13.6868 34.2687 10.7556C33.0937 7.82432 33.6812 6.88057 34.2687 6.76807C34.8562 6.65557 38.6125 8.05557 42.25 11.8118C45.8875 15.5681 46.1187 19.0868 46.1187 19.0868H35.0937Z" fill="white"/>
<path d="M46.1188 19.3993H35.0938C35.0506 19.3995 35.0078 19.3906 34.9682 19.3734C34.9285 19.3561 34.8929 19.3309 34.8635 19.2991C34.8341 19.2674 34.8117 19.2299 34.7975 19.1891C34.7834 19.1482 34.7779 19.1049 34.7813 19.0618C34.7813 19.0118 35.1126 13.7056 33.9813 10.8681C33.2563 9.05557 33.0876 7.74307 33.4938 7.01182C33.564 6.8728 33.6644 6.75124 33.7877 6.65607C33.911 6.5609 34.054 6.49453 34.2063 6.46182C35.0126 6.29932 38.8938 7.89932 42.4751 11.5931C46.1438 15.3868 46.4188 18.9181 46.4313 19.0931C46.4348 19.1362 46.4293 19.1795 46.4151 19.2203C46.401 19.2612 46.3785 19.2987 46.3491 19.3304C46.3197 19.3621 46.2841 19.3874 46.2445 19.4046C46.2048 19.4219 46.162 19.4307 46.1188 19.4306V19.3993ZM35.4188 18.7743H45.7626C45.2089 16.2043 43.9036 13.8569 42.0126 12.0306C38.4501 8.34932 34.8188 6.99307 34.3188 7.07432C34.256 7.08945 34.1974 7.1187 34.1476 7.15986C34.0978 7.20101 34.058 7.25298 34.0313 7.31182C33.8876 7.57432 33.6563 8.41807 34.5501 10.6368C35.5876 13.2118 35.4813 17.5368 35.4188 18.7743Z" fill="#231F20"/>
<path d="M182.169 61.9618V91.0556H7.60006C7.60006 91.0556 7.35631 69.6118 7.83756 55.0868C7.88756 53.6556 7.93756 52.2868 8.00006 51.0181C8.06496 48.3155 8.32396 45.621 8.77506 42.9556C10.4126 36.1493 14.6376 26.7681 26.8376 26.7681C39.0376 26.7681 153.775 24.6556 160.344 26.7681C163.638 27.8387 166.58 29.7828 168.856 32.3931C168.966 32.5167 169.037 32.669 169.063 32.832C169.089 32.9951 169.068 33.1621 169.003 33.3136C168.937 33.4651 168.83 33.5947 168.693 33.6874C168.557 33.7801 168.396 33.8319 168.231 33.8368H167.65C167.65 33.8368 177.875 43.4056 181.163 55.0868C181.813 57.3213 182.151 59.6348 182.169 61.9618Z" fill="#F28988"/>
<path d="M182.169 91.3743H7.60006C7.51718 91.3743 7.43769 91.3414 7.37909 91.2828C7.32048 91.2242 7.28756 91.1447 7.28756 91.0618C7.28756 90.8493 7.04381 69.4431 7.52506 55.0806C7.57506 53.6493 7.62506 52.2743 7.68756 51.0056C7.89381 46.8868 8.15006 44.2306 8.46881 42.8806C11.0563 32.1306 17.4063 26.4556 26.8376 26.4556C29.4313 26.4556 36.6188 26.3556 46.5626 26.2243C84.5313 25.7243 155.219 24.7868 160.438 26.4681C163.779 27.5527 166.767 29.5174 169.088 32.1556C169.226 32.3161 169.319 32.5109 169.357 32.7196C169.395 32.9283 169.376 33.1434 169.303 33.3425C169.23 33.5415 169.104 33.7173 168.94 33.8515C168.776 33.9857 168.579 34.0734 168.369 34.1056C170.538 36.2806 178.625 44.9118 181.463 54.9993C182.121 57.2623 182.464 59.6052 182.481 61.9618V91.0556C182.481 91.139 182.449 91.2192 182.39 91.2788C182.332 91.3384 182.252 91.3727 182.169 91.3743ZM7.90631 90.7493H181.856V61.9618C181.838 59.662 181.501 57.3757 180.856 55.1681C177.631 43.6993 167.506 34.1243 167.4 34.0306C167.355 33.987 167.324 33.9311 167.311 33.87C167.298 33.8089 167.302 33.7452 167.325 33.6868C167.349 33.6288 167.39 33.5792 167.442 33.5447C167.494 33.5101 167.556 33.4921 167.619 33.4931H168.2C168.307 33.4931 168.411 33.4625 168.501 33.4049C168.591 33.3473 168.662 33.2651 168.706 33.1681C168.755 33.0669 168.773 32.9535 168.757 32.8423C168.742 32.7311 168.693 32.627 168.619 32.5431C166.369 29.9946 163.477 28.0954 160.244 27.0431C155.125 25.3993 81.8063 26.3681 46.5688 26.8306C36.6251 26.9618 29.4376 27.0618 26.8376 27.0618C17.5938 27.0618 11.6251 32.4243 9.07506 43.0056C8.62695 45.6523 8.37211 48.3281 8.31256 51.0118C8.24381 52.2618 8.19381 53.6493 8.14381 55.0743C7.70006 68.5118 7.88131 88.0618 7.90631 90.7493Z" fill="#231F20"/>
<path d="M182.169 61.9618V69.7993C179.081 65.0618 174.494 58.8056 171.019 57.3868C165.575 55.1681 150.538 55.0868 149 55.0868H7.95626C7.55812 55.0464 7.18956 54.8583 6.92329 54.5596C6.65702 54.2609 6.51236 53.8732 6.51785 53.473C6.52334 53.0729 6.67859 52.6893 6.95296 52.398C7.22733 52.1067 7.60091 51.9288 8.00001 51.8993V51.0243C8.06491 48.3217 8.32391 45.6273 8.77501 42.9618C10.4125 36.1556 14.6375 26.7743 26.8375 26.7743C39.0375 26.7743 153.775 24.6618 160.344 26.7743C163.638 27.845 166.58 29.789 168.856 32.3993C168.966 32.523 169.037 32.6753 169.063 32.8383C169.089 33.0013 169.068 33.1684 169.003 33.3198C168.937 33.4713 168.83 33.601 168.693 33.6937C168.556 33.7863 168.396 33.8382 168.231 33.8431H167.65C167.65 33.8431 168.806 34.9306 170.475 36.8118C173.388 40.1118 177.85 45.8618 180.338 52.5306C180.663 53.3806 180.963 54.2493 181.194 55.1243C181.83 57.3482 182.158 59.6488 182.169 61.9618Z" fill="#231F20"/>
<path d="M182.169 70.1181C182.117 70.118 182.065 70.1048 182.019 70.0797C181.973 70.0546 181.935 70.0183 181.906 69.9743C178.744 65.1243 174.269 59.0556 170.9 57.6806C165.394 55.4306 149.65 55.4056 148.988 55.4056H7.95632C7.9039 55.4064 7.85218 55.3935 7.80632 55.3681C7.36964 55.2957 6.97158 55.0741 6.68 54.7411C6.38842 54.4081 6.22139 53.9842 6.20738 53.5418C6.19337 53.0994 6.33325 52.6658 6.60317 52.315C6.8731 51.9642 7.25634 51.7179 7.68757 51.6181V51.0243C7.89382 46.8868 8.15007 44.2306 8.46882 42.8993C11.0563 32.1493 17.4063 26.4743 26.8376 26.4743C29.4313 26.4743 36.6188 26.3743 46.5626 26.2431C84.5313 25.7431 155.219 24.8056 160.438 26.4868C163.779 27.5715 166.767 29.5361 169.088 32.1743C169.226 32.3349 169.319 32.5296 169.357 32.7384C169.395 32.9471 169.376 33.1622 169.303 33.3612C169.23 33.5603 169.104 33.736 168.94 33.8702C168.776 34.0044 168.579 34.0922 168.369 34.1243C168.869 34.6243 169.688 35.4681 170.675 36.5806C173.85 40.1868 178.175 45.8493 180.594 52.3993C180.925 53.2618 181.219 54.1431 181.463 55.0181C182.119 57.275 182.462 59.6115 182.481 61.9618V69.7993C182.48 69.8667 182.458 69.932 182.418 69.9859C182.377 70.0398 182.321 70.0795 182.256 70.0993L182.169 70.1181ZM8.06257 54.7806H149C150.681 54.7806 165.625 54.8431 171.15 57.0993C174.463 58.4556 178.7 64.0056 181.869 68.7618V61.9618C181.85 59.662 181.514 57.3757 180.869 55.1681C180.631 54.3118 180.35 53.4493 180.025 52.5993C177.613 46.1368 173.363 40.5368 170.219 36.9743C168.581 35.0993 167.425 34.0368 167.413 34.0243C167.368 33.9807 167.337 33.9249 167.323 33.8637C167.31 33.8026 167.315 33.7389 167.338 33.6806C167.361 33.6225 167.402 33.573 167.455 33.5384C167.507 33.5039 167.569 33.4859 167.631 33.4868H168.213C168.319 33.4869 168.424 33.4563 168.513 33.3987C168.603 33.341 168.674 33.2588 168.719 33.1618C168.768 33.0606 168.785 32.9473 168.77 32.8361C168.754 32.7248 168.706 32.6207 168.631 32.5368C166.381 29.9883 163.489 28.0892 160.256 27.0368C155.138 25.3931 81.8188 26.3618 46.5813 26.8243C36.6376 26.9556 29.4501 27.0556 26.8501 27.0556C17.6063 27.0556 11.6376 32.4181 9.08757 42.9993C8.63946 45.646 8.38462 48.3219 8.32507 51.0056V51.8556C8.32521 51.9336 8.29554 52.0088 8.2421 52.0658C8.18866 52.1227 8.1155 52.157 8.03757 52.1618C7.71175 52.1793 7.40471 52.3198 7.17852 52.555C6.95234 52.7901 6.82388 53.1024 6.81911 53.4287C6.81435 53.7549 6.93364 54.0708 7.15286 54.3125C7.37209 54.5542 7.6749 54.7036 8.00007 54.7306L8.06257 54.7806Z" fill="#231F20"/>
<path d="M146.031 106.074C153.546 106.074 159.638 99.9826 159.638 92.4681C159.638 84.9535 153.546 78.8618 146.031 78.8618C138.517 78.8618 132.425 84.9535 132.425 92.4681C132.425 99.9826 138.517 106.074 146.031 106.074Z" fill="#F2B32A"/>
<path d="M146.031 106.387C143.277 106.388 140.583 105.572 138.293 104.043C136.002 102.513 134.216 100.338 133.161 97.7936C132.106 95.2489 131.83 92.4485 132.367 89.7467C132.904 87.045 134.231 84.5632 136.179 82.6154C138.126 80.6675 140.608 79.3412 143.31 78.8041C146.012 78.267 148.812 78.5433 151.357 79.598C153.901 80.6527 156.076 82.4385 157.606 84.7294C159.135 87.0203 159.951 89.7134 159.95 92.4681C159.945 96.158 158.477 99.6954 155.868 102.305C153.259 104.914 149.721 106.382 146.031 106.387ZM146.031 79.1681C143.4 79.1668 140.828 79.9458 138.64 81.4065C136.452 82.8672 134.747 84.9439 133.739 87.3741C132.732 89.8042 132.467 92.4786 132.98 95.0589C133.492 97.6393 134.758 100.01 136.618 101.87C138.478 103.731 140.848 104.998 143.428 105.512C146.008 106.026 148.683 105.763 151.113 104.756C153.544 103.75 155.621 102.045 157.083 99.8578C158.545 97.6705 159.325 95.0988 159.325 92.4681C159.32 88.9433 157.918 85.5642 155.426 83.0712C152.934 80.5783 149.556 79.1747 146.031 79.1681Z" fill="#231F20"/>
<path d="M146.031 100.893C150.684 100.893 154.456 97.1211 154.456 92.4681C154.456 87.8151 150.684 84.0431 146.031 84.0431C141.378 84.0431 137.606 87.8151 137.606 92.4681C137.606 97.1211 141.378 100.893 146.031 100.893Z" fill="white"/>
<path d="M146.031 101.206C144.301 101.206 142.609 100.692 141.17 99.7309C139.731 98.7695 138.61 97.4029 137.947 95.8041C137.285 94.2052 137.112 92.4459 137.449 90.7485C137.787 89.0512 138.62 87.4921 139.844 86.2684C141.068 85.0447 142.627 84.2113 144.324 83.8737C146.022 83.5361 147.781 83.7094 149.38 84.3716C150.979 85.0339 152.345 86.1554 153.307 87.5943C154.268 89.0333 154.781 90.725 154.781 92.4556C154.781 94.7762 153.859 97.0018 152.218 98.6428C150.578 100.284 148.352 101.206 146.031 101.206ZM146.031 84.3306C144.424 84.3306 142.853 84.8071 141.517 85.6999C140.181 86.5927 139.14 87.8616 138.525 89.3463C137.91 90.8309 137.749 92.4646 138.062 94.0407C138.376 95.6168 139.15 97.0645 140.286 98.2008C141.422 99.3371 142.87 100.111 144.446 100.424C146.022 100.738 147.656 100.577 149.141 99.9621C150.625 99.3471 151.894 98.3057 152.787 96.9696C153.68 95.6334 154.156 94.0625 154.156 92.4556C154.15 90.305 153.291 88.2448 151.768 86.7265C150.245 85.2082 148.182 84.3556 146.031 84.3556V84.3306Z" fill="#231F20"/>
<path d="M146.031 95.8556C145.359 95.8568 144.702 95.6587 144.143 95.2862C143.584 94.9138 143.148 94.3838 142.891 93.7634C142.633 93.1431 142.565 92.4602 142.696 91.8013C142.827 91.1424 143.15 90.5371 143.625 90.0621C144.1 89.5871 144.706 89.2637 145.364 89.133C146.023 89.0022 146.706 89.07 147.327 89.3276C147.947 89.5852 148.477 90.0212 148.849 90.5802C149.222 91.1393 149.42 91.7963 149.419 92.4681C149.417 93.366 149.06 94.2267 148.425 94.8616C147.79 95.4965 146.929 95.8539 146.031 95.8556ZM146.031 89.6993C145.483 89.6981 144.947 89.8594 144.491 90.1629C144.035 90.4664 143.679 90.8984 143.469 91.4042C143.258 91.91 143.203 92.4669 143.309 93.0044C143.415 93.5419 143.678 94.0358 144.065 94.4237C144.452 94.8115 144.945 95.0758 145.483 95.1832C146.02 95.2905 146.577 95.236 147.083 95.0267C147.589 94.8173 148.022 94.4624 148.327 94.007C148.631 93.5515 148.794 93.0159 148.794 92.4681C148.792 91.7353 148.501 91.033 147.983 90.5143C147.466 89.9956 146.764 89.7026 146.031 89.6993Z" fill="#E6E7E8"/>
<path d="M36.7813 106.074C44.2958 106.074 50.3875 99.9826 50.3875 92.4681C50.3875 84.9535 44.2958 78.8618 36.7813 78.8618C29.2668 78.8618 23.175 84.9535 23.175 92.4681C23.175 99.9826 29.2668 106.074 36.7813 106.074Z" fill="#F2B32A"/>
<path d="M36.7812 106.387C34.0266 106.388 31.3335 105.572 29.0426 104.043C26.7517 102.513 24.9659 100.338 23.9112 97.7936C22.8564 95.2489 22.5801 92.4485 23.1172 89.7467C23.6543 87.045 24.9807 84.5632 26.9285 82.6154C28.8763 80.6675 31.3581 79.3412 34.0599 78.8041C36.7617 78.267 39.562 78.5433 42.1067 79.598C44.6515 80.6527 46.8262 82.4385 48.3558 84.7294C49.8854 87.0203 50.7012 89.7134 50.7 92.4681C50.695 96.158 49.227 99.6954 46.6178 102.305C44.0086 104.914 40.4712 106.382 36.7812 106.387ZM36.7812 79.1681C34.1505 79.1668 31.5784 79.9458 29.3904 81.4065C27.2024 82.8672 25.4968 84.9439 24.4892 87.3741C23.4816 89.8042 23.2173 92.4786 23.7298 95.0589C24.2423 97.6393 25.5085 100.01 27.3682 101.87C29.228 103.731 31.5979 104.998 34.178 105.512C36.7581 106.026 39.4326 105.763 41.8632 104.756C44.2938 103.75 46.3714 102.045 47.8331 99.8578C49.2948 97.6705 50.075 95.0988 50.075 92.4681C50.07 88.9433 48.6681 85.5642 46.1762 83.0712C43.6844 80.5783 40.306 79.1747 36.7812 79.1681Z" fill="#231F20"/>
<path d="M36.7813 100.893C41.4343 100.893 45.2063 97.1211 45.2063 92.4681C45.2063 87.8151 41.4343 84.0431 36.7813 84.0431C32.1283 84.0431 28.3563 87.8151 28.3563 92.4681C28.3563 97.1211 32.1283 100.893 36.7813 100.893Z" fill="white"/>
<path d="M36.7813 101.206C35.0507 101.206 33.3589 100.692 31.92 99.7309C30.4811 98.7695 29.3596 97.4029 28.6973 95.8041C28.035 94.2052 27.8618 92.4459 28.1994 90.7485C28.537 89.0512 29.3704 87.4921 30.5941 86.2684C31.8178 85.0447 33.3769 84.2113 35.0742 83.8737C36.7715 83.5361 38.5309 83.7094 40.1297 84.3716C41.7286 85.0339 43.0952 86.1554 44.0566 87.5943C45.0181 89.0333 45.5313 90.725 45.5313 92.4556C45.5313 94.7762 44.6094 97.0018 42.9684 98.6428C41.3275 100.284 39.1019 101.206 36.7813 101.206ZM36.7813 84.3306C35.1743 84.3306 33.6034 84.8071 32.2672 85.6999C30.9311 86.5927 29.8897 87.8616 29.2747 89.3463C28.6598 90.8309 28.4989 92.4646 28.8124 94.0407C29.1259 95.6168 29.8997 97.0645 31.036 98.2008C32.1723 99.3371 33.62 100.111 35.1961 100.424C36.7722 100.738 38.4059 100.577 39.8906 99.9621C41.3752 99.3471 42.6442 98.3057 43.5369 96.9696C44.4297 95.6334 44.9063 94.0625 44.9063 92.4556C44.8996 90.305 44.0407 88.2448 42.5177 86.7265C40.9947 85.2082 38.9318 84.3556 36.7813 84.3556V84.3306Z" fill="#231F20"/>
<path d="M36.7812 95.8556C36.1095 95.8568 35.4525 95.6587 34.8934 95.2862C34.3343 94.9138 33.8984 94.3838 33.6408 93.7634C33.3831 93.1431 33.3154 92.4602 33.4461 91.8013C33.5769 91.1424 33.9002 90.5371 34.3752 90.0621C34.8502 89.5871 35.4555 89.2637 36.1144 89.133C36.7733 89.0022 37.4562 89.07 38.0766 89.3276C38.697 89.5852 39.2269 90.0212 39.5994 90.5802C39.9718 91.1393 40.17 91.7963 40.1687 92.4681C40.1671 93.366 39.8096 94.2267 39.1747 94.8616C38.5398 95.4965 37.6791 95.8539 36.7812 95.8556ZM36.7812 89.6993C36.2333 89.6981 35.6974 89.8594 35.2413 90.1629C34.7851 90.4664 34.4293 90.8984 34.2188 91.4042C34.0083 91.91 33.9525 92.4669 34.0587 93.0044C34.1648 93.5419 34.428 94.0358 34.815 94.4237C35.2019 94.8115 35.6953 95.0758 36.2325 95.1832C36.7698 95.2905 37.3268 95.236 37.8331 95.0267C38.3394 94.8173 38.7722 94.4624 39.0767 94.007C39.3812 93.5515 39.5437 93.0159 39.5437 92.4681C39.5421 91.7353 39.2507 91.033 38.7332 90.5143C38.2156 89.9956 37.5139 89.7026 36.7812 89.6993Z" fill="#E6E7E8"/>
<path d="M65.55 89.6993C65.4672 89.6993 65.3877 89.6664 65.3291 89.6078C65.2705 89.5492 65.2375 89.4697 65.2375 89.3868V57.5868C65.2375 57.5039 65.2705 57.4245 65.3291 57.3659C65.3877 57.3073 65.4672 57.2743 65.55 57.2743C65.6329 57.2743 65.7124 57.3073 65.771 57.3659C65.8296 57.4245 65.8625 57.5039 65.8625 57.5868V89.3743C65.8642 89.4164 65.8574 89.4584 65.8424 89.4978C65.8275 89.5371 65.8047 89.5731 65.7756 89.6034C65.7464 89.6338 65.7113 89.6579 65.6726 89.6744C65.6338 89.6909 65.5922 89.6994 65.55 89.6993Z" fill="#231F20"/>
<path d="M120.456 89.6993C120.373 89.6993 120.294 89.6664 120.235 89.6078C120.177 89.5492 120.144 89.4697 120.144 89.3868V57.5868C120.144 57.5039 120.177 57.4245 120.235 57.3659C120.294 57.3073 120.373 57.2743 120.456 57.2743C120.539 57.2743 120.619 57.3073 120.677 57.3659C120.736 57.4245 120.769 57.5039 120.769 57.5868V89.3743C120.77 89.4164 120.764 89.4584 120.749 89.4978C120.734 89.5371 120.711 89.5731 120.682 89.6034C120.653 89.6338 120.618 89.6579 120.579 89.6744C120.54 89.6909 120.498 89.6994 120.456 89.6993Z" fill="#231F20"/>
<path d="M32.9876 36.7806H18.5188C17.0863 36.7806 15.925 37.9418 15.925 39.3743V49.9056C15.925 51.3381 17.0863 52.4993 18.5188 52.4993H32.9876C34.42 52.4993 35.5813 51.3381 35.5813 49.9056V39.3743C35.5813 37.9418 34.42 36.7806 32.9876 36.7806Z" fill="white"/>
<path d="M32.9875 52.8118H18.5188C17.7485 52.8102 17.0103 52.5034 16.4656 51.9588C15.9209 51.4141 15.6142 50.6758 15.6125 49.9056V39.3743C15.6125 38.6035 15.9187 37.8643 16.4638 37.3193C17.0088 36.7743 17.748 36.4681 18.5188 36.4681H32.9875C33.3692 36.4681 33.7471 36.5432 34.0997 36.6893C34.4523 36.8353 34.7727 37.0494 35.0426 37.3193C35.3124 37.5892 35.5265 37.9095 35.6726 38.2621C35.8186 38.6147 35.8938 38.9927 35.8938 39.3743V49.9056C35.8921 50.6758 35.5854 51.4141 35.0407 51.9588C34.4961 52.5034 33.7578 52.8102 32.9875 52.8118ZM18.5188 37.0931C17.9143 37.0947 17.335 37.3356 16.9075 37.7631C16.4801 38.1905 16.2392 38.7698 16.2375 39.3743V49.9056C16.2392 50.5101 16.4801 51.0894 16.9075 51.5168C17.335 51.9443 17.9143 52.1852 18.5188 52.1868H32.9875C33.5921 52.1852 34.1713 51.9443 34.5988 51.5168C35.0263 51.0894 35.2671 50.5101 35.2688 49.9056V39.3743C35.2671 38.7698 35.0263 38.1905 34.5988 37.7631C34.1713 37.3356 33.5921 37.0947 32.9875 37.0931H18.5188Z" fill="#231F20"/>
<path d="M59.4126 36.7806H44.9438C43.5114 36.7806 42.3501 37.9418 42.3501 39.3743V49.9056C42.3501 51.3381 43.5114 52.4993 44.9438 52.4993H59.4126C60.8451 52.4993 62.0063 51.3381 62.0063 49.9056V39.3743C62.0063 37.9418 60.8451 36.7806 59.4126 36.7806Z" fill="white"/>
<path d="M59.4125 52.8118H44.9437C44.1734 52.8102 43.4352 52.5034 42.8905 51.9588C42.3458 51.4141 42.0391 50.6758 42.0375 49.9056V39.3743C42.0375 38.6035 42.3437 37.8643 42.8887 37.3193C43.4337 36.7743 44.1729 36.4681 44.9437 36.4681H59.4125C59.7941 36.4681 60.1721 36.5432 60.5247 36.6893C60.8773 36.8353 61.1976 37.0494 61.4675 37.3193C61.7374 37.5892 61.9515 37.9095 62.0975 38.2621C62.2436 38.6147 62.3187 38.9927 62.3187 39.3743V49.9056C62.3171 50.6758 62.0104 51.4141 61.4657 51.9588C60.921 52.5034 60.1828 52.8102 59.4125 52.8118ZM44.9437 37.0931C44.3392 37.0947 43.7599 37.3356 43.3325 37.7631C42.905 38.1905 42.6641 38.7698 42.6625 39.3743V49.9056C42.6641 50.5101 42.905 51.0894 43.3325 51.5168C43.7599 51.9443 44.3392 52.1852 44.9437 52.1868H59.4125C60.017 52.1852 60.5963 51.9443 61.0237 51.5168C61.4512 51.0894 61.6921 50.5101 61.6937 49.9056V39.3743C61.6921 38.7698 61.4512 38.1905 61.0237 37.7631C60.5963 37.3356 60.017 37.0947 59.4125 37.0931H44.9437Z" fill="#231F20"/>
<path d="M85.8375 36.7806H71.3688C69.9363 36.7806 68.775 37.9418 68.775 39.3743V49.9056C68.775 51.3381 69.9363 52.4993 71.3688 52.4993H85.8375C87.27 52.4993 88.4313 51.3381 88.4313 49.9056V39.3743C88.4313 37.9418 87.27 36.7806 85.8375 36.7806Z" fill="white"/>
<path d="M85.8313 52.8118H71.3688C70.598 52.8118 69.8588 52.5056 69.3137 51.9606C68.7687 51.4156 68.4625 50.6764 68.4625 49.9056V39.3743C68.4625 38.6035 68.7687 37.8643 69.3137 37.3193C69.8588 36.7743 70.598 36.4681 71.3688 36.4681H85.8313C86.602 36.4681 87.3413 36.7743 87.8863 37.3193C88.4313 37.8643 88.7375 38.6035 88.7375 39.3743V49.9056C88.7375 50.6764 88.4313 51.4156 87.8863 51.9606C87.3413 52.5056 86.602 52.8118 85.8313 52.8118ZM71.3688 37.0931C70.7637 37.0931 70.1835 37.3334 69.7557 37.7612C69.3279 38.1891 69.0875 38.7693 69.0875 39.3743V49.9056C69.0875 50.5106 69.3279 51.0908 69.7557 51.5187C70.1835 51.9465 70.7637 52.1868 71.3688 52.1868H85.8313C86.4363 52.1868 87.0165 51.9465 87.4443 51.5187C87.8722 51.0908 88.1125 50.5106 88.1125 49.9056V39.3743C88.1125 38.7693 87.8722 38.1891 87.4443 37.7612C87.0165 37.3334 86.4363 37.0931 85.8313 37.0931H71.3688Z" fill="#231F20"/>
<path d="M112.256 36.7806H97.7876C96.3551 36.7806 95.1938 37.9418 95.1938 39.3743V49.9056C95.1938 51.3381 96.3551 52.4993 97.7876 52.4993H112.256C113.689 52.4993 114.85 51.3381 114.85 49.9056V39.3743C114.85 37.9418 113.689 36.7806 112.256 36.7806Z" fill="white"/>
<path d="M112.256 52.8118H97.7938C97.023 52.8118 96.2838 52.5056 95.7388 51.9606C95.1938 51.4156 94.8876 50.6764 94.8876 49.9056V39.3743C94.8876 38.6035 95.1938 37.8643 95.7388 37.3193C96.2838 36.7743 97.023 36.4681 97.7938 36.4681H112.256C113.027 36.4681 113.766 36.7743 114.311 37.3193C114.856 37.8643 115.163 38.6035 115.163 39.3743V49.9056C115.163 50.6764 114.856 51.4156 114.311 51.9606C113.766 52.5056 113.027 52.8118 112.256 52.8118ZM97.7938 37.0931C97.1888 37.0931 96.6086 37.3334 96.1807 37.7612C95.7529 38.1891 95.5126 38.7693 95.5126 39.3743V49.9056C95.5126 50.5106 95.7529 51.0908 96.1807 51.5187C96.6086 51.9465 97.1888 52.1868 97.7938 52.1868H112.256C112.861 52.1852 113.44 51.9443 113.868 51.5168C114.295 51.0894 114.536 50.5101 114.538 49.9056V39.3743C114.536 38.7698 114.295 38.1905 113.868 37.7631C113.44 37.3356 112.861 37.0947 112.256 37.0931H97.7938Z" fill="#231F20"/>
<path d="M164 52.4993H123.713C123.157 52.4993 122.625 52.2787 122.232 51.8861C121.839 51.4934 121.619 50.9609 121.619 50.4056V38.8743C121.619 38.319 121.839 37.7865 122.232 37.3938C122.625 37.0012 123.157 36.7806 123.713 36.7806H157.375C157.743 36.7816 158.104 36.8792 158.422 37.0635C158.74 37.2477 159.004 37.5122 159.188 37.8306L165.813 49.3681C165.996 49.6858 166.092 50.0462 166.092 50.413C166.092 50.7798 165.995 51.1401 165.811 51.4576C165.628 51.7751 165.363 52.0385 165.045 52.2214C164.727 52.4043 164.367 52.5001 164 52.4993Z" fill="white"/>
<path d="M164 52.8118H123.713C123.075 52.8102 122.464 52.5561 122.013 52.1052C121.562 51.6543 121.308 51.0432 121.306 50.4056V38.8743C121.306 38.2361 121.56 37.6241 122.011 37.1728C122.462 36.7216 123.074 36.4681 123.713 36.4681H157.375C157.797 36.4688 158.212 36.5807 158.577 36.7925C158.943 37.0042 159.246 37.3083 159.456 37.6743L166.087 49.2118C166.297 49.5776 166.406 49.9919 166.404 50.4132C166.403 50.8346 166.291 51.2481 166.08 51.6126C165.869 51.9771 165.565 52.2797 165.2 52.4901C164.835 52.7006 164.421 52.8115 164 52.8118ZM123.713 37.0931C123.24 37.0931 122.787 37.2807 122.453 37.6148C122.119 37.9488 121.931 38.4019 121.931 38.8743V50.4056C121.933 50.8775 122.121 51.3296 122.455 51.6633C122.789 51.997 123.241 52.1852 123.713 52.1868H164C164.312 52.1867 164.619 52.1045 164.89 51.9484C165.16 51.7923 165.385 51.5678 165.541 51.2975C165.698 51.0271 165.78 50.7204 165.781 50.4081C165.781 50.0958 165.699 49.7888 165.544 49.5181L158.912 37.9868C158.758 37.7149 158.535 37.4889 158.265 37.3318C157.995 37.1748 157.688 37.0924 157.375 37.0931H123.713Z" fill="#231F20"/>
<path d="M167.619 34.1243H14.8437C14.7609 34.1243 14.6814 34.0914 14.6228 34.0328C14.5642 33.9742 14.5312 33.8947 14.5312 33.8118C14.5312 33.7289 14.5642 33.6495 14.6228 33.5908C14.6814 33.5322 14.7609 33.4993 14.8437 33.4993H167.619C167.702 33.4993 167.781 33.5322 167.84 33.5908C167.898 33.6495 167.931 33.7289 167.931 33.8118C167.93 33.8942 167.896 33.9728 167.838 34.031C167.78 34.0893 167.701 34.1227 167.619 34.1243Z" fill="white"/>
<path d="M180.306 52.4993H172.956C172.778 52.499 172.603 52.4514 172.45 52.3614C172.296 52.2713 172.169 52.1421 172.081 51.9868L164.4 38.2681C164.315 38.1162 164.272 37.9448 164.273 37.7709C164.275 37.5969 164.322 37.4264 164.41 37.2762C164.497 37.126 164.623 37.0013 164.773 36.9144C164.924 36.8275 165.095 36.7813 165.269 36.7806H170.444C173.375 40.0868 177.819 45.8306 180.306 52.4993Z" fill="white"/>
<path d="M180.3 52.8118H172.956C172.722 52.811 172.492 52.7481 172.29 52.6295C172.088 52.511 171.921 52.3409 171.806 52.1368L164.125 38.3868C164.012 38.1871 163.953 37.9611 163.955 37.7316C163.957 37.5021 164.02 37.2772 164.136 37.0795C164.253 36.8817 164.42 36.7183 164.62 36.6054C164.819 36.4926 165.045 36.4345 165.275 36.4368H170.444C170.487 36.4369 170.53 36.4458 170.57 36.463C170.609 36.4802 170.645 36.5053 170.675 36.5368C173.85 40.1431 178.175 45.8056 180.594 52.3556C180.612 52.4025 180.619 52.4531 180.613 52.5032C180.608 52.5532 180.59 52.6012 180.563 52.6431C180.537 52.6913 180.499 52.7322 180.453 52.7618C180.407 52.7913 180.355 52.8086 180.3 52.8118ZM165.3 37.0931C165.175 37.0857 165.05 37.1134 164.94 37.173C164.829 37.2326 164.738 37.3218 164.675 37.4306C164.614 37.5337 164.582 37.6514 164.582 37.7712C164.582 37.891 164.614 38.0087 164.675 38.1118L172.356 51.8306C172.417 51.9424 172.507 52.035 172.618 52.0979C172.728 52.1609 172.854 52.1917 172.981 52.1868H179.856C177.444 45.9368 173.369 40.5743 170.306 37.0931H165.3Z" fill="#231F20"/>
<path d="M170.781 89.6993H164.269C164.222 89.6996 164.175 89.689 164.133 89.6684C164.091 89.6478 164.054 89.6177 164.025 89.5806L153.4 75.7681H129.625C128.465 75.7681 127.352 75.3071 126.531 74.4867C125.711 73.6662 125.25 72.5534 125.25 71.3931V56.0993C125.25 56.0164 125.283 55.937 125.342 55.8784C125.4 55.8197 125.48 55.7868 125.563 55.7868C125.645 55.7868 125.725 55.8197 125.783 55.8784C125.842 55.937 125.875 56.0164 125.875 56.0993V71.3993C125.875 72.3939 126.27 73.3477 126.973 74.051C127.677 74.7542 128.63 75.1493 129.625 75.1493H153.55C153.598 75.149 153.645 75.1596 153.689 75.1801C153.732 75.2007 153.77 75.2307 153.8 75.2681L164.425 89.0806H170.781C170.864 89.0806 170.944 89.1135 171.002 89.1721C171.061 89.2307 171.094 89.3102 171.094 89.3931C171.092 89.4748 171.058 89.5527 171 89.61C170.942 89.6673 170.863 89.6993 170.781 89.6993Z" fill="#231F20"/>
<path d="M184.238 86.2431H167C165.492 86.2431 164.269 87.4659 164.269 88.9743V90.9681C164.269 92.4765 165.492 93.6993 167 93.6993H184.238C185.746 93.6993 186.969 92.4765 186.969 90.9681V88.9743C186.969 87.4659 185.746 86.2431 184.238 86.2431Z" fill="black"/>
<path d="M184.244 94.0118H167C166.194 94.0118 165.421 93.692 164.85 93.1225C164.279 92.5531 163.958 91.7805 163.956 90.9743V88.9743C163.958 88.1676 164.279 87.3943 164.85 86.8239C165.42 86.2534 166.193 85.9322 167 85.9306H184.244C185.051 85.9322 185.824 86.2534 186.394 86.8239C186.965 87.3943 187.286 88.1676 187.288 88.9743V90.9743C187.286 91.7805 186.964 92.5531 186.394 93.1225C185.823 93.692 185.05 94.0118 184.244 94.0118ZM167 86.5556C166.359 86.5572 165.745 86.8126 165.292 87.2658C164.838 87.7191 164.583 88.3333 164.581 88.9743V90.9743C164.583 91.6147 164.839 92.2283 165.292 92.6806C165.745 93.1329 166.36 93.3868 167 93.3868H184.244C184.884 93.3868 185.499 93.1329 185.952 92.6806C186.405 92.2283 186.661 91.6147 186.663 90.9743V88.9743C186.661 88.3333 186.406 87.7191 185.952 87.2658C185.499 86.8126 184.885 86.5572 184.244 86.5556H167Z" fill="#231F20"/>
<path d="M16.6312 86.2431H5.63748C4.39138 86.2431 3.38123 87.2532 3.38123 88.4993V91.4431C3.38123 92.6892 4.39138 93.6993 5.63748 93.6993H16.6312C17.8773 93.6993 18.8875 92.6892 18.8875 91.4431V88.4993C18.8875 87.2532 17.8773 86.2431 16.6312 86.2431Z" fill="black"/>
<path d="M16.6312 94.0118H5.63748C4.9562 94.0118 4.30283 93.7412 3.8211 93.2595C3.33936 92.7777 3.06873 92.1243 3.06873 91.4431V88.4993C3.07038 87.8186 3.34154 87.1661 3.82292 86.6848C4.3043 86.2034 4.95671 85.9322 5.63748 85.9306H16.6312C17.312 85.9322 17.9644 86.2034 18.4458 86.6848C18.9272 87.1661 19.1983 87.8186 19.2 88.4993V91.4431C19.2 92.1243 18.9293 92.7777 18.4476 93.2595C17.9659 93.7412 17.3125 94.0118 16.6312 94.0118ZM5.63748 86.5556C5.12247 86.5572 4.62902 86.7625 4.26486 87.1267C3.90069 87.4909 3.69537 87.9843 3.69373 88.4993V91.4431C3.69373 91.9586 3.89851 92.453 4.26304 92.8175C4.62756 93.182 5.12196 93.3868 5.63748 93.3868H16.6312C17.1467 93.3868 17.6411 93.182 18.0057 92.8175C18.3702 92.453 18.575 91.9586 18.575 91.4431V88.4993C18.5733 87.9843 18.368 87.4909 18.0038 87.1267C17.6397 86.7625 17.1462 86.5572 16.6312 86.5556H5.63748Z" fill="#231F20"/>
<path d="M137.113 61.1993H132.131C131.417 61.1993 130.838 61.7786 130.838 62.4931V62.7181C130.838 63.4326 131.417 64.0118 132.131 64.0118H137.113C137.827 64.0118 138.406 63.4326 138.406 62.7181V62.4931C138.406 61.7786 137.827 61.1993 137.113 61.1993Z" fill="#231F20"/>
<path d="M137.125 64.3306H132.125C131.699 64.3306 131.29 64.1613 130.989 63.8601C130.688 63.5589 130.519 63.1503 130.519 62.7243V62.4931C130.52 62.0676 130.69 61.66 130.991 61.3591C131.292 61.0582 131.7 60.8885 132.125 60.8868H137.125C137.551 60.8885 137.958 61.0582 138.259 61.3591C138.56 61.66 138.73 62.0676 138.731 62.4931V62.7243C138.73 63.1498 138.56 63.5574 138.259 63.8583C137.958 64.1592 137.551 64.3289 137.125 64.3306ZM132.125 61.5118C131.865 61.5118 131.615 61.6152 131.431 61.7992C131.247 61.9832 131.144 62.2328 131.144 62.4931V62.7243C131.144 62.9846 131.247 63.2341 131.431 63.4182C131.615 63.6022 131.865 63.7056 132.125 63.7056H137.125C137.385 63.7039 137.633 63.6 137.817 63.4164C138.001 63.2327 138.105 62.9841 138.106 62.7243V62.4931C138.105 62.2333 138.001 61.9847 137.817 61.801C137.633 61.6174 137.385 61.5135 137.125 61.5118H132.125Z" fill="#231F20"/>
<path d="M174.788 85.7118C174.705 85.7086 174.627 85.6736 174.57 85.6142C174.513 85.5547 174.481 85.4755 174.481 85.3931C174.481 85.2056 174.556 66.1556 166.563 57.8118C166.533 57.7828 166.51 57.7482 166.494 57.7101C166.478 57.672 166.47 57.6312 166.47 57.59C166.47 57.5487 166.478 57.5079 166.494 57.4698C166.51 57.4317 166.533 57.3971 166.563 57.3681C166.622 57.3104 166.702 57.2782 166.784 57.2782C166.867 57.2782 166.947 57.3104 167.006 57.3681C171.288 61.8368 173.256 69.2431 174.156 74.6368C174.748 78.1925 175.063 81.7887 175.1 85.3931C175.101 85.4346 175.093 85.4759 175.078 85.5146C175.063 85.5532 175.04 85.5884 175.011 85.6181C174.982 85.6478 174.947 85.6714 174.909 85.6875C174.87 85.7036 174.829 85.7118 174.788 85.7118Z" fill="#231F20"/>
<path d="M178.231 81.5868C179.674 81.5868 180.844 79.6756 180.844 77.3181C180.844 74.9605 179.674 73.0493 178.231 73.0493C176.788 73.0493 175.619 74.9605 175.619 77.3181C175.619 79.6756 176.788 81.5868 178.231 81.5868Z" fill="white"/>
<path d="M178.231 81.8993C176.594 81.8993 175.306 79.8868 175.306 77.3181C175.306 74.7493 176.594 72.7368 178.231 72.7368C179.869 72.7368 181.156 74.7493 181.156 77.3181C181.156 79.8868 179.869 81.8993 178.231 81.8993ZM178.231 73.3618C176.981 73.3618 175.931 75.1743 175.931 77.3181C175.931 79.4618 176.988 81.2743 178.231 81.2743C179.475 81.2743 180.531 79.4618 180.531 77.3181C180.531 75.1743 179.481 73.3618 178.231 73.3618Z" fill="#231F20"/>
<path d="M175.812 70.4556C176.776 70.4556 177.556 69.2775 177.556 67.8243C177.556 66.3711 176.776 65.1931 175.812 65.1931C174.849 65.1931 174.069 66.3711 174.069 67.8243C174.069 69.2775 174.849 70.4556 175.812 70.4556Z" fill="white"/>
<path d="M175.812 70.7681C174.662 70.7681 173.756 69.4743 173.756 67.8243C173.756 66.1743 174.662 64.8806 175.812 64.8806C176.962 64.8806 177.869 66.1743 177.869 67.8243C177.869 69.4743 176.969 70.7681 175.812 70.7681ZM175.812 65.5056C175.037 65.5056 174.381 66.5681 174.381 67.8243C174.381 69.0806 175.037 70.1431 175.812 70.1431C176.587 70.1431 177.244 69.0806 177.244 67.8243C177.244 66.5681 176.587 65.5056 175.812 65.5056Z" fill="#231F20"/>
<path d="M169.425 82.7306H167.437C167.075 82.7306 166.781 83.0244 166.781 83.3868C166.781 83.7492 167.075 84.0431 167.437 84.0431H169.425C169.787 84.0431 170.081 83.7492 170.081 83.3868C170.081 83.0244 169.787 82.7306 169.425 82.7306Z" fill="white"/>
<path d="M42.35 60.6368H24.9C24.8171 60.6368 24.7377 60.6039 24.6791 60.5453C24.6204 60.4867 24.5875 60.4072 24.5875 60.3243C24.5875 60.2414 24.6204 60.162 24.6791 60.1033C24.7377 60.0447 24.8171 60.0118 24.9 60.0118H42.35C42.4329 60.0118 42.5124 60.0447 42.571 60.1033C42.6296 60.162 42.6625 60.2414 42.6625 60.3243C42.6625 60.4072 42.6296 60.4867 42.571 60.5453C42.5124 60.6039 42.4329 60.6368 42.35 60.6368Z" fill="#231F20"/>
<path d="M42.35 63.9743H24.9C24.8171 63.9743 24.7377 63.9414 24.6791 63.8828C24.6204 63.8242 24.5875 63.7447 24.5875 63.6618C24.5875 63.579 24.6204 63.4995 24.6791 63.4409C24.7377 63.3823 24.8171 63.3493 24.9 63.3493H42.35C42.4329 63.3493 42.5124 63.3823 42.571 63.4409C42.6296 63.4995 42.6625 63.579 42.6625 63.6618C42.6625 63.7447 42.6296 63.8242 42.571 63.8828C42.5124 63.9414 42.4329 63.9743 42.35 63.9743Z" fill="#231F20"/>
<path d="M42.35 67.3181H24.9C24.8171 67.3181 24.7377 67.2851 24.6791 67.2265C24.6204 67.1679 24.5875 67.0884 24.5875 67.0056C24.5875 66.9227 24.6204 66.8432 24.6791 66.7846C24.7377 66.726 24.8171 66.6931 24.9 66.6931H42.35C42.4329 66.6931 42.5124 66.726 42.571 66.7846C42.6296 66.8432 42.6625 66.9227 42.6625 67.0056C42.6625 67.0884 42.6296 67.1679 42.571 67.2265C42.5124 67.2851 42.4329 67.3181 42.35 67.3181Z" fill="#231F20"/>
<path d="M42.35 70.6618H24.9C24.8171 70.6618 24.7377 70.6289 24.6791 70.5703C24.6204 70.5117 24.5875 70.4322 24.5875 70.3493C24.5875 70.2664 24.6204 70.1869 24.6791 70.1283C24.7377 70.0697 24.8171 70.0368 24.9 70.0368H42.35C42.4329 70.0368 42.5124 70.0697 42.571 70.1283C42.6296 70.1869 42.6625 70.2664 42.6625 70.3493C42.6625 70.4322 42.6296 70.5117 42.571 70.5703C42.5124 70.6289 42.4329 70.6618 42.35 70.6618Z" fill="#231F20"/>
<path d="M25.5876 21.7806H151.338C151.508 21.7843 151.675 21.7254 151.805 21.6151C151.935 21.5047 152.021 21.3505 152.045 21.1815C152.07 21.0125 152.032 20.8403 151.938 20.6974C151.845 20.5544 151.702 20.4507 151.538 20.4056C144.793 18.4494 137.849 17.2586 130.838 16.8556C115 15.7993 52.8375 16.8556 45.2126 16.8556C38.4216 16.9145 31.6994 18.2216 25.3813 20.7118C25.2396 20.7392 25.1145 20.8217 25.0336 20.9413C24.9528 21.0608 24.9227 21.2076 24.95 21.3493C24.9774 21.491 25.0599 21.6161 25.1795 21.697C25.299 21.7779 25.4458 21.8079 25.5876 21.7806Z" fill="white"/>
<path d="M151.338 22.0931H25.5875C25.39 22.0965 25.1976 22.0301 25.0443 21.9054C24.8911 21.7807 24.7868 21.6059 24.75 21.4118C24.7082 21.2183 24.7353 21.0162 24.8265 20.8405C24.9178 20.6647 25.0676 20.5264 25.25 20.4493C31.5993 17.9331 38.3581 16.6089 45.1875 16.5431C46.8 16.5431 50.8125 16.4993 56.3688 16.4306C76.5 16.1993 118.375 15.7118 130.875 16.5431C137.905 16.9405 144.868 18.1292 151.631 20.0868C151.869 20.1531 152.074 20.3038 152.208 20.5106C152.343 20.7174 152.397 20.9661 152.361 21.2101C152.325 21.454 152.201 21.6764 152.012 21.8355C151.824 21.9947 151.584 22.0796 151.338 22.0743V22.0931ZM103.256 16.6993C86.9625 16.6993 68.0313 16.9181 56.3813 17.0556C50.825 17.1243 46.8125 17.1681 45.1938 17.1681C38.4502 17.2344 31.7765 18.5416 25.5063 21.0243C25.4551 21.0439 25.4125 21.0811 25.3862 21.1292C25.3599 21.1773 25.3515 21.2331 25.3625 21.2868C25.3703 21.3398 25.3977 21.388 25.4395 21.4216C25.4812 21.4552 25.5341 21.4718 25.5875 21.4681H151.338C151.433 21.4721 151.527 21.4405 151.601 21.3794C151.675 21.3184 151.723 21.2322 151.737 21.1375C151.751 21.0427 151.729 20.9462 151.676 20.8664C151.623 20.7867 151.543 20.7294 151.45 20.7056C144.73 18.7548 137.811 17.5682 130.825 17.1681C125.563 16.8181 115.106 16.6993 103.256 16.6993Z" fill="#231F20"/>
<path d="M125.969 19.0868C126.373 19.0868 126.761 19.2475 127.047 19.5335C127.333 19.8195 127.494 20.2074 127.494 20.6118V25.8368H124.444V20.6118C124.444 20.2074 124.605 19.8195 124.89 19.5335C125.176 19.2475 125.564 19.0868 125.969 19.0868Z" fill="white"/>
<path d="M127.494 26.1431H124.444C124.361 26.1431 124.281 26.1102 124.223 26.0515C124.164 25.9929 124.131 25.9135 124.131 25.8306V20.6118C124.131 20.1245 124.325 19.6571 124.67 19.3125C125.014 18.9679 125.481 18.7743 125.969 18.7743C126.456 18.7743 126.924 18.9679 127.268 19.3125C127.613 19.6571 127.806 20.1245 127.806 20.6118V25.8306C127.806 25.9135 127.773 25.9929 127.715 26.0515C127.656 26.1102 127.577 26.1431 127.494 26.1431ZM124.756 25.5181H127.181V20.6118C127.181 20.2903 127.054 19.9819 126.826 19.7545C126.599 19.5271 126.29 19.3993 125.969 19.3993C125.647 19.3993 125.339 19.5271 125.111 19.7545C124.884 19.9819 124.756 20.2903 124.756 20.6118V25.5181Z" fill="#231F20"/>
<path d="M52.175 19.0868C52.5795 19.0868 52.9674 19.2475 53.2534 19.5335C53.5394 19.8195 53.7 20.2074 53.7 20.6118V25.8368H50.65V20.6118C50.65 20.2074 50.8107 19.8195 51.0967 19.5335C51.3827 19.2475 51.7706 19.0868 52.175 19.0868Z" fill="white"/>
<path d="M53.7 26.1431H50.65C50.5671 26.1431 50.4877 26.1102 50.4291 26.0515C50.3705 25.9929 50.3375 25.9135 50.3375 25.8306V20.6118C50.3375 20.1245 50.5311 19.6571 50.8757 19.3125C51.2203 18.9679 51.6877 18.7743 52.175 18.7743C52.6624 18.7743 53.1297 18.9679 53.4743 19.3125C53.8189 19.6571 54.0125 20.1245 54.0125 20.6118V25.8306C54.0125 25.9135 53.9796 25.9929 53.921 26.0515C53.8624 26.1102 53.7829 26.1431 53.7 26.1431ZM50.9625 25.5181H53.375V20.6118C53.375 20.4526 53.3437 20.2949 53.2827 20.1478C53.2218 20.0007 53.1325 19.8671 53.0199 19.7545C52.9073 19.6419 52.7736 19.5526 52.6265 19.4916C52.4794 19.4307 52.3218 19.3993 52.1625 19.3993C52.0033 19.3993 51.8456 19.4307 51.6985 19.4916C51.5514 19.5526 51.4178 19.6419 51.3052 19.7545C51.1926 19.8671 51.1033 20.0007 51.0423 20.1478C50.9814 20.2949 50.95 20.4526 50.95 20.6118L50.9625 25.5181Z" fill="#231F20"/>
<path d="M99.575 47.0243C99.527 47.0251 99.4795 47.0147 99.4361 46.9941C99.3928 46.9735 99.3547 46.9432 99.325 46.9056C99.2739 46.8408 99.2505 46.7585 99.2598 46.6765C99.2692 46.5946 99.3106 46.5196 99.375 46.4681L108.881 38.9118C108.947 38.8604 109.03 38.8372 109.113 38.8471C109.195 38.8571 109.27 38.8995 109.322 38.965C109.373 39.0304 109.397 39.1136 109.387 39.1963C109.377 39.2789 109.334 39.3542 109.269 39.4056L99.7687 46.9618C99.7137 47.0051 99.645 47.0273 99.575 47.0243Z" fill="#E6E7E8"/>
<path d="M104.325 49.3743C104.276 49.3746 104.227 49.3628 104.184 49.34C104.14 49.3171 104.103 49.2838 104.075 49.2431C104.025 49.1768 104.004 49.0934 104.016 49.0114C104.027 48.9293 104.071 48.8553 104.138 48.8056L107.95 45.9931C107.983 45.9684 108.02 45.9505 108.06 45.9404C108.1 45.9302 108.141 45.9279 108.182 45.9337C108.222 45.9395 108.261 45.9533 108.297 45.9742C108.332 45.9951 108.363 46.0227 108.388 46.0556C108.437 46.1219 108.459 46.2052 108.447 46.2873C108.435 46.3693 108.391 46.4433 108.325 46.4931L104.513 49.3118C104.457 49.3499 104.392 49.3716 104.325 49.3743Z" fill="#E6E7E8"/>
<path d="M73.85 47.5868C73.8029 47.5876 73.7563 47.5772 73.714 47.5566C73.6716 47.5359 73.6347 47.5056 73.6063 47.4681C73.5802 47.4364 73.5607 47.3997 73.5491 47.3603C73.5374 47.3209 73.5338 47.2796 73.5385 47.2387C73.5431 47.1979 73.556 47.1584 73.5762 47.1227C73.5965 47.0869 73.6237 47.0556 73.6563 47.0306L83.1563 39.4618C83.2217 39.4104 83.305 39.3872 83.3876 39.3971C83.4702 39.4071 83.5455 39.4495 83.5969 39.515C83.6483 39.5804 83.6716 39.6636 83.6616 39.7463C83.6516 39.8289 83.6092 39.9042 83.5438 39.9556L74.0438 47.5056C73.9902 47.5538 73.9219 47.5824 73.85 47.5868Z" fill="#E6E7E8"/>
<path d="M78.6 49.8993C78.5516 49.8988 78.5039 49.8873 78.4605 49.8657C78.4172 49.844 78.3794 49.8128 78.35 49.7743C78.3254 49.7415 78.3074 49.7041 78.2973 49.6644C78.2871 49.6246 78.2848 49.5833 78.2906 49.5426C78.2964 49.502 78.3102 49.4629 78.3311 49.4276C78.352 49.3923 78.3796 49.3614 78.4125 49.3368L82.225 46.5243C82.2578 46.4997 82.2952 46.4818 82.3349 46.4716C82.3747 46.4614 82.4161 46.4592 82.4567 46.465C82.4973 46.4708 82.5364 46.4845 82.5717 46.5054C82.607 46.5263 82.6379 46.554 82.6625 46.5868C82.6871 46.6196 82.705 46.657 82.7152 46.6968C82.7254 46.7365 82.7277 46.7779 82.7219 46.8185C82.716 46.8591 82.7023 46.8982 82.6814 46.9335C82.6605 46.9688 82.6328 46.9997 82.6 47.0243L78.7875 49.8431C78.7318 49.8796 78.6666 49.8991 78.6 49.8993Z" fill="#E6E7E8"/>
<path d="M45.6375 47.5868C45.5904 47.5876 45.5438 47.5772 45.5014 47.5566C45.4591 47.5359 45.4222 47.5056 45.3937 47.4681C45.3676 47.4364 45.3482 47.3997 45.3365 47.3603C45.3249 47.3209 45.3213 47.2796 45.326 47.2387C45.3306 47.1979 45.3435 47.1584 45.3637 47.1227C45.3839 47.0869 45.4111 47.0556 45.4437 47.0306L54.9437 39.4618C55.0092 39.4104 55.0924 39.3872 55.175 39.3971C55.2577 39.4071 55.333 39.4495 55.3844 39.515C55.4357 39.5804 55.459 39.6636 55.4491 39.7463C55.4391 39.8289 55.3967 39.9042 55.3312 39.9556L45.8312 47.5056C45.7777 47.5538 45.7094 47.5824 45.6375 47.5868Z" fill="#E6E7E8"/>
<path d="M50.3876 49.8993C50.3391 49.8988 50.2915 49.8873 50.2481 49.8657C50.2048 49.844 50.167 49.8128 50.1376 49.7743C50.0879 49.708 50.0665 49.6247 50.0782 49.5426C50.0899 49.4606 50.1338 49.3865 50.2001 49.3368L54.0126 46.5243C54.0789 46.4746 54.1622 46.4532 54.2443 46.465C54.3263 46.4767 54.4003 46.5205 54.4501 46.5868C54.4998 46.6531 54.5212 46.7365 54.5094 46.8185C54.4977 46.9006 54.4539 46.9746 54.3876 47.0243L50.5751 49.8431C50.5194 49.8796 50.4542 49.8991 50.3876 49.8993Z" fill="#E6E7E8"/>
<path d="M21 46.3806C20.953 46.3808 20.9065 46.3702 20.8643 46.3496C20.822 46.329 20.785 46.299 20.7563 46.2618C20.7052 46.1971 20.6817 46.1147 20.6911 46.0328C20.7005 45.9508 20.7419 45.8759 20.8063 45.8243L30.3125 38.2743C30.3442 38.2482 30.3809 38.2288 30.4203 38.2171C30.4597 38.2055 30.501 38.2019 30.5419 38.2065C30.5827 38.2112 30.6222 38.224 30.6579 38.2443C30.6937 38.2645 30.725 38.2917 30.75 38.3243C30.8011 38.3891 30.8245 38.4714 30.8152 38.5534C30.8058 38.6353 30.7644 38.7103 30.7 38.7618L21.1938 46.3368C21.1366 46.3745 21.0678 46.39 21 46.3806Z" fill="#E6E7E8"/>
<path d="M25.7563 48.7306C25.7061 48.7314 25.6564 48.7198 25.6118 48.6969C25.5671 48.674 25.5287 48.6405 25.5 48.5993C25.4525 48.5317 25.4332 48.4483 25.446 48.3667C25.4588 48.2851 25.5028 48.2116 25.5688 48.1618L29.3813 45.3493C29.4135 45.3196 29.4517 45.2969 29.4934 45.2829C29.535 45.2689 29.5791 45.2638 29.6228 45.268C29.6665 45.2722 29.7089 45.2855 29.7471 45.3072C29.7853 45.3288 29.8185 45.3583 29.8446 45.3936C29.8706 45.4289 29.889 45.4694 29.8983 45.5123C29.9077 45.5552 29.908 45.5996 29.899 45.6426C29.8901 45.6856 29.8722 45.7262 29.8466 45.7618C29.8209 45.7974 29.788 45.8273 29.75 45.8493L25.9375 48.6681C25.8846 48.7063 25.8215 48.7281 25.7563 48.7306Z" fill="#E6E7E8"/>
<path d="M151.075 52.8118C150.992 52.8118 150.913 52.7789 150.854 52.7203C150.795 52.6617 150.762 52.5822 150.762 52.4993V37.4431C150.762 37.3602 150.795 37.2807 150.854 37.2221C150.913 37.1635 150.992 37.1306 151.075 37.1306C151.158 37.1306 151.237 37.1635 151.296 37.2221C151.355 37.2807 151.387 37.3602 151.387 37.4431V52.4993C151.387 52.5404 151.379 52.581 151.364 52.6189C151.348 52.6568 151.325 52.6913 151.296 52.7203C151.267 52.7493 151.232 52.7723 151.195 52.788C151.157 52.8037 151.116 52.8118 151.075 52.8118Z" fill="#231F20"/>
<path d="M130.837 49.8993C130.796 49.8999 130.754 49.8919 130.715 49.8758C130.677 49.8597 130.642 49.8358 130.612 49.8056C130.583 49.7765 130.56 49.742 130.544 49.7039C130.528 49.6658 130.52 49.625 130.52 49.5837C130.52 49.5424 130.528 49.5016 130.544 49.4635C130.56 49.4254 130.583 49.3909 130.612 49.3618L141.694 38.9306C141.724 38.9023 141.759 38.8801 141.797 38.8654C141.836 38.8507 141.877 38.8438 141.918 38.8449C141.959 38.8461 142 38.8553 142.038 38.8722C142.075 38.889 142.109 38.9131 142.137 38.9431C142.166 38.973 142.188 39.0083 142.203 39.0468C142.217 39.0853 142.224 39.1263 142.223 39.1675C142.222 39.2087 142.213 39.2493 142.196 39.2869C142.179 39.3246 142.155 39.3585 142.125 39.3868L131.037 49.8181C130.983 49.869 130.912 49.898 130.837 49.8993Z" fill="#E6E7E8"/>
<path d="M142.95 47.9618C142.873 47.9621 142.8 47.933 142.744 47.8806C142.715 47.8521 142.692 47.818 142.676 47.7805C142.66 47.7429 142.652 47.7026 142.652 47.6618C142.652 47.6211 142.66 47.5807 142.676 47.5432C142.692 47.5056 142.715 47.4716 142.744 47.4431L146.994 42.7243C147.023 42.695 147.057 42.6718 147.095 42.6559C147.134 42.64 147.174 42.6319 147.216 42.6319C147.257 42.6319 147.298 42.64 147.336 42.6559C147.374 42.6718 147.408 42.695 147.438 42.7243C147.467 42.7528 147.49 42.7869 147.506 42.8244C147.521 42.862 147.529 42.9023 147.529 42.9431C147.529 42.9838 147.521 43.0242 147.506 43.0617C147.49 43.0993 147.467 43.1333 147.438 43.1618L143.188 47.8806C143.156 47.9095 143.118 47.9316 143.077 47.9456C143.036 47.9595 142.993 47.9651 142.95 47.9618Z" fill="#E6E7E8"/>
<path d="M127.494 42.5868C127.431 42.5872 127.37 42.5689 127.318 42.5342C127.266 42.4994 127.226 42.45 127.202 42.3921C127.179 42.3343 127.173 42.2707 127.186 42.2096C127.199 42.1485 127.23 42.0927 127.275 42.0493L129.912 39.4493C129.942 39.42 129.976 39.3968 130.014 39.3809C130.052 39.365 130.093 39.3569 130.134 39.3569C130.176 39.3569 130.216 39.365 130.255 39.3809C130.293 39.3968 130.327 39.42 130.356 39.4493C130.414 39.5088 130.446 39.5884 130.446 39.6712C130.446 39.754 130.414 39.8336 130.356 39.8931L127.712 42.4993C127.653 42.5548 127.575 42.586 127.494 42.5868Z" fill="#E6E7E8"/>
<path d="M154.456 46.5556C154.412 46.5552 154.367 46.5455 154.326 46.5272C154.286 46.509 154.249 46.4824 154.219 46.4493C154.161 46.3898 154.129 46.3103 154.129 46.2274C154.129 46.1446 154.161 46.065 154.219 46.0056L158.056 42.6993C158.085 42.6702 158.119 42.6471 158.156 42.6313C158.194 42.6155 158.234 42.6074 158.275 42.6074C158.316 42.6074 158.356 42.6155 158.394 42.6313C158.431 42.6471 158.465 42.6702 158.494 42.6993C158.547 42.7628 158.574 42.8447 158.568 42.9275C158.563 43.0104 158.525 43.0878 158.463 43.1431L154.625 46.4493C154.582 46.5026 154.523 46.54 154.456 46.5556Z" fill="#E6E7E8"/>
<path d="M170.781 45.6056C170.7 45.6036 170.623 45.5726 170.563 45.5181C170.533 45.489 170.51 45.4545 170.494 45.4164C170.478 45.3783 170.47 45.3375 170.47 45.2962C170.47 45.2549 170.478 45.2141 170.494 45.176C170.51 45.1379 170.533 45.1034 170.563 45.0743L172.906 42.7181C172.935 42.6888 172.97 42.6655 173.008 42.6497C173.046 42.6338 173.087 42.6256 173.128 42.6256C173.169 42.6256 173.21 42.6338 173.248 42.6497C173.286 42.6655 173.321 42.6888 173.35 42.7181C173.379 42.7471 173.403 42.7817 173.418 42.8198C173.434 42.8579 173.442 42.8987 173.442 42.94C173.442 42.9812 173.434 43.0221 173.418 43.0601C173.403 43.0982 173.379 43.1328 173.35 43.1618L171.006 45.5181C170.946 45.5756 170.865 45.607 170.781 45.6056Z" fill="#E6E7E8"/>
<path d="M7.53127 61.6993C7.53127 59.9009 6.0748 58.4431 4.27815 58.4431C2.4815 58.4431 1.02502 59.9009 1.02502 61.6993V78.4118C1.02502 80.2102 2.4815 81.6681 4.27815 81.6681C6.0748 81.6681 7.53127 80.2102 7.53127 78.4118V61.6993Z" fill="#231F20"/>
<path d="M4.28128 81.9618C3.33478 81.9618 2.42706 81.5858 1.75779 80.9165C1.08852 80.2473 0.712524 79.3395 0.712524 78.3931V61.6993C0.712524 60.7528 1.08852 59.8451 1.75779 59.1758C2.42706 58.5066 3.33478 58.1306 4.28128 58.1306C5.22777 58.1306 6.13549 58.5066 6.80477 59.1758C7.47404 59.8451 7.85003 60.7528 7.85003 61.6993V78.4181C7.84343 79.3602 7.46452 80.2615 6.79597 80.9254C6.12741 81.5893 5.22345 81.9618 4.28128 81.9618ZM4.28128 58.7306C3.50105 58.7322 2.75326 59.0429 2.20155 59.5946C1.64985 60.1463 1.33918 60.8941 1.33752 61.6743V78.3931C1.33752 79.1738 1.64767 79.9225 2.19973 80.4746C2.75179 81.0267 3.50054 81.3368 4.28128 81.3368C5.06201 81.3368 5.81076 81.0267 6.36282 80.4746C6.91488 79.9225 7.22503 79.1738 7.22503 78.3931V61.6993C7.22338 60.9191 6.9127 60.1713 6.361 59.6196C5.8093 59.0679 5.0615 58.7572 4.28128 58.7556V58.7306Z" fill="#231F20"/>
</svg>
