<svg width="137" height="125" viewBox="0 0 137 125" fill="none" xmlns="http://www.w3.org/2000/svg">
<path d="M65.3437 123.762C101.166 123.762 130.206 121.901 130.206 119.606C130.206 117.31 101.166 115.449 65.3437 115.449C29.5211 115.449 0.481201 117.31 0.481201 119.606C0.481201 121.901 29.5211 123.762 65.3437 123.762Z" fill="#135E46" fill-opacity="0.75"/>
<path d="M75.7562 54.1618C77.0428 53.3925 78.2825 52.5473 79.4687 51.6306C82.0124 49.6618 82.7687 47.9681 83.5062 44.9118C83.9999 42.8493 82.4437 40.9056 80.9124 39.4368C79.3812 37.9681 77.6374 36.3431 77.6124 34.2243C77.6124 32.5931 78.6312 31.1681 79.2499 29.6556C82.5187 21.6931 73.4312 18.1806 71.6124 11.5306C69.7937 4.88058 67.6499 -0.58817 59.5062 1.53058C57.5312 2.03683 55.5749 2.71183 53.5437 2.78058C51.6687 2.87433 49.8312 2.48058 47.9687 2.45558C45.3647 2.45675 42.8092 3.15973 40.571 4.49055C38.3327 5.82138 36.4946 7.73085 35.2499 10.0181C34.2562 11.8931 34.8437 14.3931 33.9124 15.8743C31.4687 19.7618 25.6374 18.8118 26.8749 25.1681C27.3186 27.4306 28.2874 29.8118 27.4249 31.9556C26.3249 34.6868 22.9312 35.5056 20.5499 37.2556C16.6686 40.1181 15.6561 45.8806 17.5124 50.3368C19.3686 54.7931 23.5561 57.9618 28.1062 59.5806C32.6562 61.1993 37.5624 61.4556 42.3937 61.4556C53.9187 61.4993 65.9999 60.0181 75.7562 54.1618Z" fill="white"/>
<path d="M42.575 61.7681H42.4063C37.6688 61.7681 32.6563 61.5306 28.0313 59.8931C22.9188 58.0743 18.9938 54.6493 17.2688 50.5181C15.25 45.6681 16.5938 39.8931 20.3938 37.0931C21.1921 36.5351 22.0273 36.0319 22.8938 35.5868C24.7125 34.6056 26.4375 33.7118 27.1438 31.9181C27.7688 30.3306 27.35 28.5368 26.925 26.8056C26.8063 26.2993 26.6813 25.7931 26.5875 25.2931C25.7688 21.1056 27.8938 19.9181 30.1438 18.6556C31.4438 17.9306 32.7812 17.1806 33.6625 15.7868C34.0522 14.9665 34.255 14.07 34.2563 13.1618C34.2833 12.0556 34.5297 10.9658 34.9812 9.95558C36.2379 7.64748 38.0866 5.71579 40.3374 4.35917C42.5882 3.00255 45.1597 2.26999 47.7875 2.23683H47.9563C48.775 2.23683 49.5938 2.32433 50.3875 2.40558C51.4242 2.53034 52.4686 2.58047 53.5125 2.55558C55.0685 2.42069 56.6048 2.11468 58.0938 1.64308L59.425 1.28058C67.7437 -0.85692 69.9812 4.64933 71.875 11.5118C72.55 13.9681 74.2875 16.0306 75.9687 18.0243C78.7312 21.3056 81.5938 24.6993 79.5 29.7993C79.325 30.2306 79.1063 30.6681 78.875 31.0868C78.2927 32.0464 77.9457 33.1301 77.8625 34.2493C77.8625 36.2118 79.5375 37.7931 80.9875 39.1931L81.0687 39.2618C83.2875 41.3868 84.1562 43.2618 83.7375 45.0118C82.9875 48.1368 82.2125 49.8618 79.6 51.8868C78.4016 52.8104 77.1494 53.6619 75.85 54.4369C67.6437 59.3619 56.7438 61.7681 42.575 61.7681ZM47.8 2.77433C45.2768 2.80518 42.8073 3.50755 40.6455 4.80924C38.4837 6.11092 36.7077 7.96492 35.5 10.1806C35.085 11.1276 34.8599 12.1469 34.8375 13.1806C34.8341 14.1785 34.601 15.1623 34.1563 16.0556C33.2 17.5681 31.7938 18.3556 30.4063 19.1181C28.25 20.3243 26.3875 21.3681 27.125 25.1431C27.225 25.6368 27.3438 26.1306 27.4625 26.6306C27.9062 28.4493 28.3625 30.3368 27.6562 32.0931C26.8687 34.0493 24.975 35.0681 23.1437 36.0556C22.2972 36.4852 21.4808 36.9718 20.7 37.5118C17.1 40.1681 15.8375 45.6368 17.7563 50.2618C19.425 54.2681 23.225 57.5806 28.1813 59.3431C32.7313 60.9618 37.6938 61.2181 42.375 61.2181H42.5438C56.6063 61.2181 67.4125 58.8368 75.5812 53.9368C76.856 53.1759 78.0851 52.3411 79.2625 51.4368C81.7625 49.5181 82.4812 47.8618 83.1937 44.8743C83.5625 43.3431 82.7437 41.6431 80.6937 39.6743L80.6125 39.6056C79.075 38.1306 77.325 36.4806 77.3062 34.2556C77.3867 33.0455 77.7529 31.8717 78.375 30.8306C78.5812 30.4181 78.7875 29.9993 78.9625 29.5806C80.9188 24.8056 78.2937 21.6931 75.5187 18.3931C73.8 16.3556 72.0187 14.2431 71.3125 11.6618C69.4375 4.86183 67.3813 -0.175671 59.5563 1.83683C59.1125 1.94933 58.675 2.06808 58.2375 2.19308C56.7074 2.67533 55.1294 2.98968 53.5313 3.13058C52.4581 3.15414 51.3846 3.10193 50.3188 2.97433C49.5375 2.89308 48.7313 2.81808 47.9375 2.80558L47.8 2.77433Z" fill="#231F20"/>
<path d="M19.4624 72.9806C19.4624 72.9806 24.5624 45.4806 29.6624 40.8243C34.7624 36.1681 48.2937 36.1681 55.3874 35.9431C62.4812 35.7181 72.8874 38.1618 77.5686 42.8181C82.2499 47.4743 87.0999 76.9618 87.0999 76.9618L77.3436 75.8493L83.5561 92.2618C83.5561 92.2618 62.0436 103.837 52.0624 103.143C42.0811 102.449 26.3374 88.9493 26.3374 88.9493L27.2249 70.7618L19.4624 72.9806Z" fill="#F28988"/>
<path d="M74.6812 71.2681C74.6437 71.2665 74.6069 71.2574 74.573 71.2414C74.5391 71.2254 74.5087 71.2027 74.4836 71.1747C74.4586 71.1468 74.4394 71.1141 74.4272 71.0786C74.4149 71.0431 74.41 71.0055 74.4125 70.9681C74.85 62.4556 71.7875 45.9181 71.7562 45.7556C71.7493 45.7191 71.7496 45.6815 71.7571 45.6451C71.7646 45.6087 71.7792 45.5741 71.8001 45.5433C71.821 45.5126 71.8478 45.4862 71.8789 45.4658C71.9099 45.4454 71.9447 45.4313 71.9813 45.4243C72.0178 45.4173 72.0553 45.4176 72.0917 45.4252C72.1281 45.4327 72.1627 45.4473 72.1935 45.4682C72.2242 45.4891 72.2506 45.5159 72.271 45.5469C72.2914 45.578 72.3055 45.6128 72.3125 45.6493C72.3125 45.8181 75.4375 62.4181 74.9812 70.9993C74.9797 71.0368 74.9706 71.0736 74.9546 71.1076C74.9385 71.1415 74.9159 71.1719 74.8879 71.1969C74.8599 71.222 74.8273 71.2412 74.7918 71.2534C74.7563 71.2656 74.7187 71.2706 74.6812 71.2681Z" fill="#231F20"/>
<path d="M36.7624 65.5056C36.6873 65.5056 36.6151 65.4762 36.5613 65.4236C36.5076 65.371 36.4766 65.2995 36.4749 65.2243C36.4749 65.0993 36.2812 52.8931 38.4812 44.9618C38.503 44.8901 38.5514 44.8295 38.6165 44.7923C38.6815 44.7551 38.7583 44.7442 38.8312 44.7618C38.8676 44.7712 38.9017 44.7878 38.9316 44.8106C38.9614 44.8334 38.9864 44.862 39.0051 44.8946C39.0237 44.9272 39.0356 44.9633 39.0401 45.0006C39.0446 45.0379 39.0416 45.0757 39.0312 45.1118C36.8499 52.9681 37.0437 65.1118 37.0437 65.2118C37.0454 65.287 37.0175 65.3599 36.9661 65.4148C36.9147 65.4698 36.8438 65.5023 36.7687 65.5056H36.7624Z" fill="#231F20"/>
<path d="M59.4063 39.4618L60.45 49.8493C60.45 49.8493 59.9438 55.7618 53.45 54.5868C51.5334 54.2225 49.7221 53.4354 48.1479 52.2829C46.5737 51.1303 45.2763 49.6414 44.35 47.9243C44.0438 47.2993 44.2438 45.9368 44.2063 45.2493L43.875 39.1556C43.7125 36.0993 43.2813 32.9056 43.375 29.8618C43.4688 26.8181 43.375 23.5743 43.4938 20.3993C43.4776 20.2138 43.5311 20.0289 43.6437 19.8806C43.7554 19.7779 43.8987 19.7161 44.05 19.7056C44.9288 19.5471 45.8307 19.5705 46.7 19.7743C46.7439 17.618 46.4872 15.4661 45.9375 13.3806C47.771 14.7483 49.1919 16.5952 50.0438 18.7181C52.199 18.6115 54.3595 18.7182 56.4937 19.0368C56.7691 17.5532 56.5632 16.0203 55.9063 14.6618C56.8178 15.7837 57.653 16.9656 58.4063 18.1993C58.4063 18.3806 61.3 18.7868 61.5 18.6056C62 18.1618 61.8375 15.1681 61.9 14.4556C63.3797 16.313 64.3837 18.5034 64.825 20.8368C65.325 22.9681 65.2688 31.7868 65.2813 34.0118C65.275 37.2931 62.95 39.9243 59.4063 39.4618Z" fill="white"/>
<path d="M55.075 55.0056C54.5129 55.0015 53.9524 54.9471 53.4 54.8431C51.4415 54.4727 49.5913 53.6672 47.986 52.4859C46.3806 51.3046 45.0611 49.7777 44.125 48.0181C43.9195 47.364 43.8556 46.6737 43.9375 45.9931C43.9375 45.7056 43.9375 45.4431 43.9375 45.2368L43.6125 39.1493C43.5562 38.1368 43.4688 37.0931 43.3875 36.0806C43.1783 34.004 43.0844 31.9175 43.1062 29.8306C43.15 28.3431 43.1563 26.8118 43.1625 25.3368C43.1625 23.7118 43.1625 22.0306 43.225 20.3368C43.2101 20.0798 43.2902 19.8262 43.45 19.6243C43.6084 19.4819 43.8071 19.3923 44.0187 19.3681C44.8186 19.2243 45.6377 19.2243 46.4375 19.3681C46.4488 17.3518 46.1945 15.3429 45.6813 13.3931C45.6671 13.3357 45.671 13.2753 45.6924 13.2202C45.7138 13.1651 45.7517 13.1179 45.8009 13.0851C45.8501 13.0523 45.9082 13.0355 45.9673 13.0369C46.0265 13.0383 46.0837 13.0579 46.1313 13.0931C47.9515 14.4511 49.3739 16.2728 50.25 18.3681C52.265 18.2824 54.2836 18.3787 56.2812 18.6556C56.4639 17.3142 56.2465 15.9488 55.6562 14.7306C55.6264 14.6673 55.6207 14.5953 55.6401 14.528C55.6596 14.4608 55.7029 14.403 55.7619 14.3654C55.821 14.3278 55.8917 14.3131 55.9608 14.3239C56.03 14.3348 56.0928 14.3705 56.1375 14.4243C57.0363 15.5429 57.859 16.7205 58.6 17.9493C59.4902 18.1687 60.4021 18.2882 61.3187 18.3056C61.5625 17.9493 61.575 16.0681 61.575 15.3431C61.575 14.9118 61.575 14.5681 61.575 14.3681C61.5797 14.3129 61.6006 14.2603 61.6351 14.2169C61.6695 14.1736 61.716 14.1414 61.7687 14.1243C61.8223 14.1087 61.8792 14.1079 61.9332 14.1223C61.9872 14.1366 62.0362 14.1654 62.075 14.2056C63.4375 15.7681 64.3813 17.8368 65.0563 20.7181C65.5063 22.5931 65.5125 29.5431 65.5187 32.8743V33.9556C65.551 34.805 65.4002 35.6515 65.0767 36.4376C64.7532 37.2237 64.2645 37.9311 63.6437 38.5118C63.1097 38.9735 62.4858 39.3196 61.8113 39.5283C61.1369 39.737 60.4265 39.8037 59.725 39.7243L60.7313 49.7681C60.5716 51.3786 59.7861 52.8621 58.5438 53.8993C57.5437 54.6454 56.3224 55.0349 55.075 55.0056ZM45.2062 19.8618C44.8352 19.8604 44.4648 19.8939 44.1 19.9618C44.0106 19.9691 43.9245 19.9993 43.85 20.0493C43.7924 20.1519 43.7683 20.2699 43.7812 20.3868C43.7187 22.0368 43.7187 23.7181 43.7125 25.3368C43.7125 26.8181 43.7125 28.3493 43.6562 29.8431C43.6378 31.9112 43.7317 33.9788 43.9375 36.0368C44.0187 37.0493 44.1062 38.0993 44.1625 39.1181L44.4875 45.2056C44.4875 45.4243 44.4875 45.7056 44.4875 46.0118C44.4168 46.6019 44.4592 47.2001 44.6125 47.7743C45.5123 49.455 46.778 50.9122 48.3162 52.0383C49.8545 53.1644 51.626 53.9307 53.5 54.2806C55.4562 54.6368 57.0312 54.3618 58.1937 53.4743C59.2906 52.5446 59.9942 51.2336 60.1625 49.8056L59.125 39.4618C59.12 39.4191 59.1253 39.3758 59.1406 39.3355C59.1558 39.2953 59.1805 39.2593 59.2125 39.2306C59.2439 39.2007 59.2813 39.1779 59.3223 39.1639C59.3633 39.1499 59.4069 39.1449 59.45 39.1493C60.1232 39.2683 60.8143 39.2376 61.4743 39.0594C62.1343 38.8811 62.747 38.5598 63.2688 38.1181C63.8305 37.5906 64.2728 36.949 64.566 36.2365C64.8592 35.5239 64.9965 34.7569 64.9688 33.9868V32.9056C64.9688 29.8556 64.9688 22.7181 64.5188 20.8806C64.1222 18.8487 63.3139 16.9195 62.1437 15.2118V15.3743C62.1437 17.0806 62.0938 18.4118 61.6688 18.7931C61.2438 19.1743 58.7375 18.6493 58.375 18.5056C58.3199 18.4899 58.2686 18.4629 58.2245 18.4263C58.1804 18.3897 58.1444 18.3443 58.1187 18.2931C57.6875 17.5806 57.225 16.8806 56.7375 16.2056C56.9373 17.146 56.9501 18.1165 56.775 19.0618C56.7627 19.1344 56.7224 19.1993 56.6628 19.2425C56.6033 19.2858 56.5291 19.3039 56.4562 19.2931C54.3383 18.9797 52.1947 18.875 50.0563 18.9806C49.9966 18.9863 49.9368 18.9714 49.8868 18.9384C49.8368 18.9055 49.7995 18.8564 49.7812 18.7993C49.0549 16.9849 47.9015 15.3726 46.4187 14.0993C46.8301 15.9452 47.021 17.8334 46.9875 19.7243C46.9857 19.7667 46.9747 19.8083 46.9552 19.846C46.9358 19.8838 46.9084 19.9169 46.875 19.9431C46.8415 19.9706 46.802 19.99 46.7597 19.9998C46.7174 20.0095 46.6735 20.0094 46.6312 19.9993C46.1634 19.8972 45.685 19.851 45.2062 19.8618Z" fill="#231F20"/>
<path d="M59.8312 44.5493C59.8312 44.5493 55.6249 45.1306 52.6499 42.5743C49.6749 40.0181 49.8062 37.1431 49.8062 37.1431C49.8062 37.1431 54.6562 39.7743 59.4062 39.4368L59.8312 44.5493Z" fill="#231F20"/>
<path d="M58.7313 44.8806C56.4666 44.9324 54.2552 44.1893 52.4813 42.7806C49.4375 40.1681 49.5375 37.2556 49.5438 37.1556C49.5455 37.1088 49.5592 37.0632 49.5835 37.0232C49.6077 36.9832 49.6418 36.9501 49.6825 36.9269C49.7232 36.9037 49.7691 36.8913 49.8159 36.8909C49.8627 36.8904 49.9089 36.902 49.95 36.9243C50 36.9243 54.7875 39.5181 59.4 39.1868C59.472 39.1816 59.5431 39.2049 59.5981 39.2517C59.653 39.2985 59.6874 39.365 59.6938 39.4368L60.1188 44.5493C60.1227 44.619 60.1006 44.6877 60.0567 44.742C60.0128 44.7963 59.9503 44.8323 59.8813 44.8431C59.4991 44.8791 59.115 44.8916 58.7313 44.8806ZM50.1063 37.5868C50.3767 39.4596 51.3485 41.1597 52.825 42.3431C55.2563 44.4306 58.5875 44.3493 59.5313 44.2806L59.1563 39.7056C55.2438 39.9243 51.3813 38.2118 50.1063 37.5868Z" fill="#231F20"/>
<path d="M56.0312 31.3368C55.6841 31.3352 55.3374 31.3102 54.9937 31.2618C54.9211 31.2495 54.8562 31.2093 54.813 31.1497C54.7697 31.0901 54.7516 31.0159 54.7624 30.9431C54.7677 30.9068 54.7803 30.8719 54.7993 30.8405C54.8183 30.8091 54.8434 30.7818 54.8731 30.7602C54.9028 30.7387 54.9365 30.7233 54.9722 30.715C55.008 30.7067 55.045 30.7056 55.0812 30.7118C55.6687 30.8056 57.3062 30.9056 57.8124 30.2431C58.1562 29.7806 56.4937 27.1181 54.6874 24.9556C54.6649 24.9273 54.6481 24.8948 54.6381 24.86C54.6281 24.8252 54.625 24.7887 54.6291 24.7528C54.6331 24.7168 54.6442 24.6819 54.6618 24.6503C54.6793 24.6186 54.7029 24.5906 54.7312 24.5681C54.7595 24.5455 54.792 24.5287 54.8268 24.5187C54.8616 24.5087 54.898 24.5056 54.934 24.5097C54.97 24.5138 55.0048 24.5249 55.0365 24.5424C55.0682 24.5599 55.0961 24.5835 55.1187 24.6118C56.0437 25.7493 59.0125 29.5431 58.2437 30.5743C57.7812 31.1993 56.7937 31.3368 56.0312 31.3368Z" fill="#231F20"/>
<path d="M46.3437 24.1681C45.8266 22.9087 45.0541 21.7702 44.0749 20.8243C43.0312 19.9556 41.4562 19.5743 40.3249 20.2806C39.0749 21.0618 38.7624 22.7806 38.9062 24.2931C39.1063 25.9881 39.5702 27.6414 40.2812 29.1931C40.6172 30.1433 41.1919 30.9913 41.9499 31.6556C42.3359 31.9775 42.8165 32.1646 43.3185 32.1883C43.8206 32.212 44.3166 32.071 44.7312 31.7868" fill="white"/>
<path d="M43.5 32.4806C42.8613 32.4632 42.2444 32.2445 41.7375 31.8556C40.9402 31.1602 40.3354 30.2712 39.9813 29.2743C39.2535 27.692 38.781 26.0045 38.5813 24.2743C38.4938 23.3243 38.4625 21.0118 40.1375 19.9868C41.4938 19.1556 43.2188 19.6993 44.2438 20.5556C45.2554 21.5261 46.0536 22.6968 46.5875 23.9931C46.61 24.0272 46.625 24.0658 46.6314 24.1061C46.6378 24.1465 46.6356 24.1878 46.6248 24.2272C46.614 24.2666 46.5949 24.3033 46.5688 24.3348C46.5427 24.3662 46.5102 24.3918 46.4735 24.4097C46.4368 24.4276 46.3966 24.4375 46.3558 24.4387C46.3149 24.4399 46.2743 24.4323 46.2365 24.4166C46.1988 24.4008 46.1649 24.3772 46.1371 24.3473C46.1092 24.3173 46.088 24.2818 46.075 24.2431C45.5719 23.0206 44.8231 21.9144 43.875 20.9931C43 20.2618 41.55 19.7868 40.4375 20.4743C38.9938 21.3556 39.0875 23.5618 39.15 24.2243C39.3431 25.8905 39.8009 27.5151 40.5063 29.0368C40.8243 29.9422 41.3686 30.7512 42.0875 31.3868C42.423 31.668 42.8402 31.8332 43.2772 31.858C43.7141 31.8828 44.1474 31.7657 44.5125 31.5243C44.5411 31.5002 44.5742 31.482 44.6099 31.4707C44.6456 31.4595 44.6831 31.4556 44.7204 31.4591C44.7576 31.4626 44.7938 31.4734 44.8268 31.4911C44.8598 31.5087 44.8889 31.5328 44.9125 31.5618C44.9605 31.6194 44.984 31.6935 44.9782 31.7682C44.9723 31.8429 44.9376 31.9124 44.8813 31.9618C44.4973 32.2937 44.0075 32.4776 43.5 32.4806Z" fill="#231F20"/>
<path d="M51.0124 26.0181C51.3507 26.0181 51.6249 25.3241 51.6249 24.4681C51.6249 23.612 51.3507 22.9181 51.0124 22.9181C50.6741 22.9181 50.3999 23.612 50.3999 24.4681C50.3999 25.3241 50.6741 26.0181 51.0124 26.0181Z" fill="#231F20"/>
<path d="M60.2687 25.6868C60.607 25.6868 60.8812 24.9929 60.8812 24.1368C60.8812 23.2808 60.607 22.5868 60.2687 22.5868C59.9305 22.5868 59.6562 23.2808 59.6562 24.1368C59.6562 24.9929 59.9305 25.6868 60.2687 25.6868Z" fill="#231F20"/>
<path d="M53.2624 49.5556C53.2624 49.5556 55.9437 42.0056 54.6562 39.9181C53.3687 37.8306 49.7874 35.8493 49.0936 33.9618C48.3999 32.0743 49.5874 27.5056 48.0999 27.0056C46.6124 26.5056 45.5186 30.7556 46.6124 34.1556C46.6124 34.1556 44.9186 32.0743 44.9186 30.0868C44.9186 28.0993 46.2124 25.6181 44.8186 25.0181C43.4249 24.4181 41.2436 28.9931 41.7436 32.6681C42.2436 36.3431 46.9061 41.5056 46.6124 42.4993C46.3186 43.4931 20.7874 68.2556 18.4874 72.3118C16.3499 76.0618 17.6811 84.5181 25.0311 83.6243C32.3811 82.7306 48.2999 62.3681 53.2624 49.5556Z" fill="white"/>
<path d="M23.9437 83.9743C22.8958 84.012 21.8561 83.7773 20.9261 83.2931C19.9961 82.809 19.2075 82.0918 18.6374 81.2118C17.8163 79.861 17.3477 78.3256 17.2745 76.7465C17.2014 75.1674 17.526 73.5953 18.2187 72.1743C19.6562 69.6743 29.5374 59.6743 37.4749 51.6181C41.9124 47.1181 46.1062 42.8681 46.3437 42.3993C46.4124 42.1243 45.5374 40.7681 44.8312 39.6743C43.4624 37.5618 41.7562 34.9243 41.4624 32.7056C41.0562 29.7118 42.3937 26.0368 43.7687 24.9931C43.9207 24.8485 44.1103 24.7495 44.3159 24.7075C44.5214 24.6655 44.7346 24.6822 44.9312 24.7556C46.0624 25.2431 45.7749 26.6306 45.4937 28.0306C45.3306 28.7049 45.2343 29.3936 45.2062 30.0868C45.2561 30.9965 45.5218 31.8813 45.9812 32.6681C45.6562 30.3118 46.1749 27.9181 47.0374 27.0431C47.1765 26.8825 47.3594 26.7662 47.5638 26.7085C47.7682 26.6507 47.985 26.654 48.1874 26.7181C49.2624 27.0743 49.2124 28.8431 49.1624 30.7056C49.0612 31.7512 49.1287 32.8064 49.3624 33.8306C49.7062 34.7681 50.9124 35.8181 52.0812 36.8306C53.1527 37.662 54.1017 38.6404 54.8999 39.7368C56.2437 41.9118 53.6499 49.3056 53.5312 49.6181C51.1374 55.7868 46.0312 64.0556 40.2499 71.1993C34.0562 78.8306 28.5124 83.4493 25.0437 83.8681C24.6797 83.9271 24.3123 83.9626 23.9437 83.9743ZM44.5687 25.2556C44.4027 25.2693 44.2453 25.3349 44.1187 25.4431C42.9999 26.2931 41.6187 29.6868 42.0312 32.6306C42.3124 34.7181 44.0499 37.4056 45.3187 39.3681C46.4874 41.1743 47.0437 42.0681 46.8874 42.5806C46.7312 43.0931 44.3187 45.4993 37.8874 52.0181C30.3874 59.6056 20.1187 70.0056 18.7187 72.4556C18.0761 73.785 17.7766 75.2542 17.8476 76.7291C17.9186 78.204 18.3577 79.6377 19.1249 80.8993C20.0124 82.2306 21.7499 83.7368 24.9874 83.3431C32.2312 82.4618 48.1124 62.0931 53.0062 49.4556C53.7437 47.3868 55.4249 41.6806 54.4249 40.0806C53.6556 39.0348 52.7449 38.1009 51.7187 37.3056C50.4687 36.1993 49.2187 35.1493 48.8374 34.0681C48.5752 32.9741 48.495 31.8444 48.5999 30.7243C48.6437 29.2181 48.6937 27.5118 48.0187 27.2931C47.9499 27.2931 47.7374 27.1931 47.4562 27.4806C46.5312 28.3931 46.0749 31.5431 46.8937 34.0806C46.9123 34.1436 46.9087 34.2112 46.8835 34.2719C46.8584 34.3327 46.8131 34.3829 46.7554 34.4144C46.6976 34.4458 46.6308 34.4565 46.5662 34.4447C46.5015 34.4328 46.4428 34.3992 46.3999 34.3493C46.3312 34.2618 44.6499 32.1618 44.6499 30.0993C44.6769 29.3682 44.7775 28.6416 44.9499 27.9306C45.2437 26.4806 45.3749 25.5743 44.7249 25.2931C44.6738 25.2698 44.6186 25.257 44.5624 25.2556H44.5687Z" fill="#231F20"/>
<path d="M59.2375 49.1118C59.2375 49.1118 56.5563 41.5618 57.875 39.4618C59.0563 37.5868 61.1625 36.4618 62.6 34.7806C64.1188 32.9993 63.9063 29.8993 64.7688 27.6993C64.9438 27.2493 65.325 26.7118 65.7813 26.8806C65.9709 26.9736 66.1215 27.1308 66.2063 27.3243C66.8773 28.6833 67.3247 30.1416 67.5313 31.6431C67.8201 32.9323 67.9792 34.2472 68.0063 35.5681C67.9875 36.7595 67.7502 37.9373 67.3063 39.0431C67.0313 39.7431 65.6875 41.2681 65.9188 42.0431C66.2188 43.0368 67.9063 48.1056 70.6875 51.5806C73.4688 55.0556 87.6813 68.6993 89.675 77.3493C90.7313 81.9056 90.0438 87.3868 82.6938 86.4931C75.3438 85.5993 64.2063 61.9243 59.2375 49.1118Z" fill="white"/>
<path d="M84.1749 86.8868C83.659 86.8851 83.1436 86.8538 82.6312 86.7931C75.0812 85.8743 63.8812 61.7931 58.9749 49.2118C58.8624 48.8993 56.2624 41.5118 57.6124 39.3306C58.368 38.2432 59.2921 37.2832 60.3499 36.4868C61.0722 35.9194 61.7454 35.2922 62.3624 34.6118C63.2437 33.5806 63.5249 32.0056 63.7874 30.4868C63.9263 29.5106 64.1586 28.5499 64.4812 27.6181C64.7187 26.9931 65.2187 26.3681 65.8624 26.6306C66.1168 26.7472 66.3208 26.9513 66.4374 27.2056C67.1241 28.5801 67.5801 30.0581 67.7874 31.5806C68.0867 32.8893 68.248 34.2258 68.2687 35.5681C68.2532 36.7934 68.0117 38.0054 67.5562 39.1431C67.398 39.4716 67.2141 39.7872 67.0062 40.0868C66.6249 40.6743 66.0562 41.5618 66.1749 41.9618C66.2437 42.1931 67.9062 47.6743 70.8874 51.3993C71.4749 52.1306 72.5687 53.3118 73.9562 54.8118C79.3374 60.6431 88.3312 70.3931 89.9374 77.2806C90.3937 79.2556 90.8562 82.9056 88.8624 85.1243C87.8062 86.2993 86.2374 86.8868 84.1749 86.8868ZM59.5062 49.0118C65.1312 63.5243 75.9499 85.4056 82.6999 86.2243C85.3374 86.5431 87.2624 86.0494 88.4312 84.7494C90.2562 82.7243 89.8062 79.2931 89.3749 77.4243C87.8187 70.7118 78.4999 60.6181 73.4999 55.2181C72.1062 53.7056 70.9999 52.5118 70.4124 51.7681C67.3624 47.9556 65.6624 42.3931 65.5937 42.1368C65.3999 41.5118 65.9812 40.5868 66.4937 39.7931C66.6823 39.5276 66.8495 39.2476 66.9937 38.9556C67.4218 37.8788 67.6506 36.733 67.6687 35.5743C67.6406 34.2724 67.4836 32.9765 67.1999 31.7056C67.0013 30.2371 66.5665 28.8103 65.9124 27.4806C65.8312 27.3431 65.7374 27.1993 65.6312 27.1618C65.3812 27.0681 65.0999 27.5118 65.0062 27.8181C64.6972 28.7155 64.4754 29.6406 64.3437 30.5806C64.0624 32.1743 63.7749 33.8243 62.7874 34.9556C62.1516 35.6606 61.4574 36.3108 60.7124 36.8993C59.6974 37.6497 58.8127 38.5619 58.0937 39.5993C57.0937 41.2368 58.7749 46.9618 59.5062 49.0118Z" fill="#231F20"/>
<path d="M49.1812 94.9368C49.1812 94.9368 21.8999 69.2118 10.3687 74.3118C-1.16259 79.4118 -0.937586 94.0493 5.26867 102.474C11.4749 110.899 34.5437 117.774 53.6187 116.006C72.6937 114.237 99.0749 107.131 104.181 100.481C109.287 93.8306 105.506 82.7368 96.4187 79.8556C87.3312 76.9743 64.0374 95.5993 49.1812 94.9368Z" fill="#231F20"/>
<path d="M47.5063 116.549C30.2188 116.549 10.7937 110.437 5.05 102.637C1.25625 97.4931 -0.175008 90.3493 1.39374 84.4431C1.96727 82.1434 3.06681 80.0082 4.60578 78.2057C6.14476 76.4032 8.08115 74.9825 10.2625 74.0556C21.6375 69.0556 47.3875 92.8806 49.2938 94.6806C56.7938 94.9743 66.625 90.2618 75.3188 86.1056C83.8625 82.0243 91.925 78.1556 96.5 79.6118C98.757 80.339 100.806 81.5981 102.475 83.283C104.143 84.9678 105.382 87.0291 106.088 89.2931C107.388 93.4243 106.769 97.5681 104.4 100.668C99.325 107.281 72.95 114.499 53.6437 116.293C51.625 116.462 49.5938 116.549 47.5063 116.549ZM13.8437 73.9181C12.6916 73.89 11.5463 74.1029 10.4812 74.5431C8.37955 75.4358 6.51326 76.8032 5.02875 78.5383C3.54424 80.2733 2.48188 82.3286 1.925 84.5431C0.399996 90.2993 1.8 97.2618 5.49375 102.274C11.8312 110.881 35.2062 117.399 53.5875 115.693C72.7875 113.906 98.9688 106.781 103.963 100.274C106.225 97.3243 106.806 93.3618 105.562 89.4056C104.885 87.2246 103.692 85.2387 102.086 83.6157C100.479 81.9926 98.5053 80.7801 96.3313 80.0806C91.9563 78.6993 84 82.5118 75.5562 86.5493C66.7625 90.7493 56.8063 95.5118 49.1688 95.1743C49.1035 95.1704 49.0416 95.1439 48.9937 95.0993C48.7437 94.8993 26.3312 73.9181 13.8437 73.9181Z" fill="#231F20"/>
<path d="M32.2874 113.031L49.9312 121.543L57.8312 101.587C57.8312 101.587 32.5499 83.8368 26.3374 88.9493C20.1249 94.0618 30.2874 111.481 32.2874 113.031Z" fill="#231F20"/>
<path d="M49.9312 121.818C49.8922 121.827 49.8515 121.827 49.8125 121.818L32.1688 113.306L32.1188 113.274C30.525 112.024 24.175 101.512 24.0813 94.2431C24.0438 91.7431 24.75 89.9243 26.1625 88.7618C32.4625 83.5868 56.95 100.637 57.9875 101.387C58.0373 101.423 58.0741 101.474 58.0922 101.532C58.1102 101.591 58.1086 101.654 58.0875 101.712L50.1875 121.649C50.1657 121.699 50.1299 121.742 50.0844 121.772C50.0389 121.802 49.9857 121.818 49.9312 121.818ZM32.4313 112.799L49.7813 121.168L57.4937 101.693C55.225 100.124 32.225 84.4681 26.5125 89.1931C25.2625 90.2431 24.6 91.9431 24.6375 94.2431C24.75 101.143 30.8938 111.549 32.4313 112.799Z" fill="#231F20"/>
<path d="M56.9437 119.774C56.9437 119.774 69 123.774 80.225 122.099C92.8687 120.224 96.6375 114.562 90.225 109.462C83.8125 104.362 57.625 108.687 57.625 108.687L56.9437 119.774Z" fill="#F2B32A"/>
<path d="M74.4437 122.793C68.4791 122.707 62.5563 121.781 56.8499 120.043C56.7908 120.023 56.7398 119.984 56.7048 119.932C56.6699 119.88 56.6528 119.818 56.6562 119.756L57.3249 108.668C57.3285 108.604 57.354 108.543 57.3972 108.495C57.4404 108.447 57.4988 108.416 57.5624 108.406C58.6312 108.224 83.9312 104.118 90.3874 109.237C92.9312 111.256 93.9874 113.418 93.4374 115.487C92.5624 118.749 87.7624 121.268 80.2687 122.362C78.3402 122.648 76.3933 122.792 74.4437 122.793ZM57.2499 119.568C58.8999 120.081 69.9624 123.318 80.1999 121.818C87.4562 120.737 92.0749 118.374 92.8937 115.337C93.3874 113.506 92.3999 111.556 90.0437 109.712C84.0937 104.993 60.4624 108.549 57.8937 108.956L57.2499 119.568Z" fill="#231F20"/>
<path d="M50.9624 118.931C50.9624 118.931 61.3749 122.212 63.3749 116.224C65.3749 110.237 61.0437 109.681 55.6124 108.462L50.9624 118.931Z" fill="white"/>
<path d="M56.8125 120.087H56.4125C54.5384 120.014 52.6805 119.71 50.8812 119.181C50.8423 119.169 50.8065 119.149 50.7762 119.122C50.7459 119.095 50.722 119.062 50.7062 119.024C50.6876 118.989 50.6779 118.949 50.6779 118.909C50.6779 118.868 50.6876 118.829 50.7062 118.793L55.3749 108.349C55.4012 108.288 55.4482 108.238 55.5077 108.209C55.5672 108.179 55.6353 108.171 55.7 108.187L56.6375 108.393C59.8375 109.099 62.6062 109.706 63.6937 111.618C64.3187 112.768 64.3187 114.306 63.6937 116.312C62.8124 118.837 60.4562 120.087 56.8125 120.087ZM51.3562 118.724C53.075 119.193 61.4062 121.224 63.0999 116.112C63.7249 114.237 63.7249 112.874 63.1749 111.874C62.2124 110.187 59.5562 109.599 56.4874 108.924L55.7749 108.768L51.3562 118.724Z" fill="#231F20"/>
<path d="M29.7499 111.912C29.6972 111.909 29.6459 111.894 29.5999 111.868C29.4687 111.781 16.0562 103.518 8.34991 100.074C8.31561 100.059 8.28462 100.038 8.25876 100.011C8.2329 99.9838 8.21269 99.9519 8.1993 99.917C8.18591 99.8821 8.17963 99.8449 8.1808 99.8075C8.18198 99.7701 8.1906 99.7333 8.20616 99.6993C8.22105 99.665 8.24264 99.634 8.26965 99.6082C8.29666 99.5823 8.32856 99.5621 8.36348 99.5487C8.3984 99.5353 8.43564 99.529 8.47301 99.5302C8.51039 99.5314 8.54716 99.54 8.58116 99.5556C16.3312 103.012 29.7687 111.299 29.9062 111.381C29.9387 111.4 29.967 111.425 29.9894 111.456C30.0118 111.486 30.0279 111.521 30.0366 111.558C30.0454 111.594 30.0467 111.632 30.0403 111.67C30.034 111.707 30.0203 111.743 29.9999 111.774C29.9734 111.817 29.9365 111.851 29.8927 111.875C29.849 111.9 29.7998 111.912 29.7499 111.912Z" fill="white"/>
<path d="M22.6812 107.131C22.6812 107.131 17.0562 106.024 15.5812 110.256C14.1062 114.487 15.5812 122.756 19.3312 124.224C23.0812 125.693 28.8687 119.681 31.0875 119.124C33.3062 118.568 39.0062 116.306 39.0062 116.306L22.6812 107.131Z" fill="#F2B32A"/>
<path d="M20.6312 124.718C20.1598 124.722 19.6916 124.639 19.25 124.474C15.2187 122.931 13.85 114.412 15.3125 110.143C16.8187 105.768 22.675 106.843 22.7312 106.849L22.8187 106.881L39.1625 116.037C39.2114 116.061 39.2516 116.1 39.2773 116.148C39.3031 116.196 39.3132 116.251 39.3062 116.306C39.303 116.359 39.2849 116.41 39.2539 116.453C39.223 116.496 39.1804 116.529 39.1312 116.549C38.8937 116.643 33.3875 118.831 31.175 119.387C30.4937 119.556 29.3937 120.318 28.1125 121.206C25.8125 122.799 23.0375 124.718 20.6312 124.718ZM21.0937 107.293C19.3875 107.293 16.7187 107.737 15.85 110.331C15.1687 112.337 15.1437 115.424 15.7937 118.199C16.5 121.231 17.8375 123.324 19.4562 123.943C21.8437 124.856 25.1375 122.568 27.7875 120.731C29.1125 119.818 30.2562 119.024 31.0375 118.856C32.8062 118.412 36.8687 116.849 38.3562 116.262L22.5812 107.431C22.0897 107.346 21.5923 107.3 21.0937 107.293Z" fill="#231F20"/>
<path d="M55.6124 108.749H55.5187C55.4831 108.737 55.4503 108.718 55.4222 108.694C55.394 108.669 55.3711 108.639 55.3548 108.605C55.3385 108.571 55.3291 108.534 55.3272 108.497C55.3253 108.46 55.3309 108.422 55.3437 108.387L57.1437 103.149C55.8437 101.812 44.5187 90.1806 36.8312 84.5368C36.7707 84.4921 36.7304 84.4251 36.7193 84.3507C36.7082 84.2762 36.7271 84.2004 36.7718 84.1399C36.8166 84.0794 36.8835 84.0392 36.958 84.0281C37.0324 84.0169 37.1082 84.0358 37.1687 84.0806C45.3312 90.0681 57.5499 102.749 57.6749 102.881C57.7115 102.918 57.7368 102.964 57.7479 103.015C57.7589 103.066 57.7553 103.119 57.7374 103.168L55.8624 108.574C55.842 108.624 55.8076 108.668 55.7632 108.699C55.7189 108.73 55.6665 108.747 55.6124 108.749Z" fill="white"/>
<path d="M56.1125 34.0681C54.6768 34.0621 53.2677 33.6807 52.025 32.9618C51.9939 32.9428 51.967 32.9176 51.9459 32.8878C51.9249 32.8581 51.9101 32.8243 51.9025 32.7887C51.8949 32.753 51.8946 32.7161 51.9017 32.6804C51.9088 32.6446 51.9231 32.6106 51.9438 32.5806C51.9634 32.5501 51.9889 32.5239 52.0187 32.5033C52.0485 32.4828 52.0821 32.4683 52.1175 32.4607C52.1529 32.4532 52.1895 32.4527 52.2251 32.4593C52.2607 32.466 52.2947 32.4795 52.325 32.4993C53.4243 33.1372 54.6692 33.4815 55.9401 33.499C57.2109 33.5165 58.4648 33.2067 59.5813 32.5993C59.6129 32.5817 59.6476 32.5704 59.6836 32.5662C59.7195 32.562 59.7559 32.5649 59.7908 32.5748C59.8256 32.5847 59.8581 32.6013 59.8865 32.6237C59.9149 32.6462 59.9386 32.674 59.9563 32.7056C59.9739 32.7372 59.9852 32.7719 59.9894 32.8079C59.9936 32.8438 59.9907 32.8803 59.9808 32.9151C59.9709 32.9499 59.9543 32.9824 59.9319 33.0108C59.9094 33.0392 59.8816 33.0629 59.85 33.0806C58.7102 33.7267 57.4227 34.0669 56.1125 34.0681Z" fill="#231F20"/>
<path d="M86.1187 31.4993C85.5261 31.2435 84.8626 31.2036 84.2437 31.3868C83.9405 31.482 83.6732 31.6666 83.4769 31.9165C83.2806 32.1663 83.1644 32.4697 83.1437 32.7868C83.1443 32.9444 83.1783 33.1001 83.2433 33.2436C83.3084 33.3872 83.403 33.5154 83.521 33.6198C83.639 33.7243 83.7777 33.8026 83.9281 33.8497C84.0785 33.8968 84.2372 33.9116 84.3937 33.8931C82.9312 34.8493 86.0687 37.3431 87.4562 34.6806C87.6139 34.3894 87.7043 34.0664 87.7206 33.7356C87.7369 33.4048 87.6787 33.0745 87.5504 32.7692C87.422 32.4639 87.2267 32.1912 86.9789 31.9715C86.7311 31.7517 86.4371 31.5903 86.1187 31.4993Z" fill="white"/>
<path d="M121.169 73.4618C121.271 72.0426 120.97 70.6235 120.3 69.3681C119.75 68.4556 118.912 67.7368 118.462 66.7743C117.687 65.1118 118.231 63.1556 118.05 61.3306C117.885 59.8005 117.212 58.37 116.137 57.2681C115.181 56.3056 113.95 55.6431 113.012 54.6368C111.519 52.9868 111.087 50.6618 110.237 48.6056C109.032 45.6919 106.942 43.2304 104.262 41.5681C105.894 44.8493 102.181 49.0181 103.862 52.2743C104.394 53.3056 105.412 54.0556 105.806 55.1493C106.75 57.7868 103.6 60.6493 104.612 63.2743C105.112 64.5806 106.487 65.3368 107.162 66.5806C108.044 68.2493 107.35 70.2743 107.425 72.1618C107.525 74.7618 109.106 77.0931 110.987 78.8931C112.156 80.0181 113.487 80.9868 114.737 82.0181C116.25 83.2681 116.887 84.5181 118.225 82.5618C120.069 79.8789 121.092 76.7167 121.169 73.4618Z" fill="#D1D3D4"/>
<path d="M122.875 74.9493C122.387 72.9368 122.037 70.7493 122.875 68.8493C123.8 66.6993 126.112 65.1806 126.387 62.8556C126.562 61.3368 125.762 59.7931 126.094 58.2868C126.425 56.7806 127.625 55.7556 128.637 54.6493C130.97 52.0856 132.357 48.8024 132.569 45.3431C134.031 47.2743 135.512 49.2493 136.319 51.5368C137.125 53.8243 137.131 56.5368 135.775 58.5181C135.384 58.9857 135.064 59.5079 134.825 60.0681C134.369 61.5493 135.637 62.9368 136.294 64.3431C136.682 65.1465 136.844 66.0405 136.763 66.9292C136.681 67.8178 136.359 68.6674 135.831 69.3868C134.5 71.0493 131.931 71.6931 131.281 73.7181C131.116 74.4712 131.038 75.2409 131.05 76.0118C130.911 77.3478 130.375 78.6117 129.512 79.6409C128.649 80.67 127.498 81.4174 126.206 81.7868C124.631 82.1681 124.662 81.5431 124.381 80.2243C123.969 78.4431 123.287 76.7243 122.875 74.9493Z" fill="#D1D3D4"/>
<path d="M117.875 60.4681C116.756 56.5993 116.312 52.5556 115.131 48.7056C114.125 45.7037 112.901 42.7793 111.469 39.9556L116.269 41.9806C117.806 42.6056 119.475 43.3931 120.2 44.8993C121.45 47.5181 119.194 50.8681 120.519 53.4556C120.988 54.3618 121.831 55.0118 122.394 55.8431C123.806 57.8306 123.594 60.5556 122.812 62.8618C122.481 63.8556 121.031 68.9868 119.731 67.5618C119.206 66.9931 119.162 64.8618 118.944 64.0868C118.612 62.8556 118.2 61.6743 117.875 60.4681Z" fill="#D1D3D4"/>
<path d="M120.469 111.856C119.519 105.537 116.519 83.2493 116.487 83.0243L117.312 82.9181C117.312 83.1431 120.337 105.418 121.294 111.737L120.469 111.856Z" fill="#D1D3D4"/>
<path d="M121.625 117.831H120.794C120.85 110.331 123.981 81.6306 125.794 79.6618L126.419 80.2181C125.175 81.5181 121.675 107.549 121.625 117.831Z" fill="#D1D3D4"/>
<path d="M123.225 116.399L122.394 116.362C123.112 100.174 119.681 66.1806 119.644 65.8431L120.469 65.7556C120.506 66.0993 123.944 100.149 123.225 116.399Z" fill="#D1D3D4"/>
<path d="M112.25 96.6181H130.112L128.862 114.699C128.76 116.207 128.088 117.619 126.983 118.651C125.879 119.682 124.424 120.256 122.912 120.256H119.456C117.944 120.256 116.489 119.683 115.383 118.651C114.277 117.62 113.604 116.208 113.5 114.699L112.25 96.6181Z" fill="white"/>
<path d="M122.912 120.568H119.456C117.871 120.558 116.347 119.951 115.188 118.868C114.03 117.785 113.322 116.306 113.206 114.724L111.956 96.6431C111.953 96.5555 111.984 96.47 112.044 96.4056C112.102 96.3587 112.175 96.3343 112.25 96.3368H130.112C130.156 96.3367 130.198 96.3455 130.238 96.3628C130.278 96.38 130.313 96.4053 130.343 96.437C130.372 96.4687 130.395 96.5062 130.409 96.547C130.423 96.5879 130.428 96.6312 130.425 96.6743L129.175 114.756C129.052 116.334 128.34 117.809 127.18 118.886C126.019 119.963 124.496 120.563 122.912 120.568ZM112.587 96.9618L113.837 114.712C113.941 116.136 114.578 117.468 115.62 118.444C116.663 119.419 118.035 119.966 119.462 119.974H122.919C124.347 119.967 125.719 119.421 126.762 118.445C127.805 117.47 128.441 116.136 128.544 114.712L129.794 96.9618H112.587Z" fill="#D1D3D4"/>
</svg>
