<svg width="346" height="250" viewBox="0 0 346 250" fill="none" xmlns="http://www.w3.org/2000/svg">
<path d="M58.4925 181.034H88.395C95.865 181.034 101.895 176.118 101.895 170.065C101.895 164.44 96.7088 159.839 90.0263 159.175C90.2036 158.438 90.2942 157.683 90.2963 156.925C90.2963 150.558 83.94 145.405 76.0988 145.405C74.003 145.397 71.924 145.779 69.9675 146.53C69.9675 146.406 69.9675 146.271 69.9675 146.148C69.9675 139.78 63.6113 134.628 55.77 134.628C49.9538 134.628 44.9588 137.463 42.765 141.524C41.2138 141.274 39.645 141.15 38.0738 141.153C25.5525 141.153 15.315 149.028 14.5275 159.063C7.1475 159.141 1.185 164.013 1.185 170.031C1.185 176.05 7.24875 181 14.685 181" fill="white"/>
<path d="M88.395 181.596H58.4925C58.3433 181.596 58.2002 181.537 58.0947 181.432C57.9893 181.326 57.93 181.183 57.93 181.034C57.93 180.885 57.9893 180.742 58.0947 180.636C58.2002 180.531 58.3433 180.471 58.4925 180.471H88.395C95.5387 180.471 101.355 175.803 101.355 170.065C101.355 164.823 96.4725 160.379 89.9925 159.738C89.9114 159.732 89.8326 159.708 89.7624 159.667C89.6921 159.626 89.6323 159.569 89.5875 159.501C89.5429 159.436 89.512 159.363 89.4965 159.285C89.4811 159.208 89.4814 159.128 89.4975 159.051C89.6652 158.362 89.752 157.656 89.7562 156.948C89.7562 150.906 83.6362 145.99 76.1212 145.99C74.0921 145.992 72.0813 146.374 70.1925 147.115C70.1058 147.149 70.0119 147.161 69.9194 147.149C69.8269 147.138 69.739 147.103 69.6637 147.048C69.5885 146.992 69.5278 146.919 69.4867 146.834C69.4455 146.75 69.4253 146.657 69.4275 146.564V146.384C69.4327 146.324 69.4327 146.264 69.4275 146.204C69.4275 140.163 63.3187 135.246 55.7925 135.246C50.3587 135.246 45.4537 137.834 43.2825 141.85C43.2276 141.954 43.1418 142.038 43.0369 142.09C42.932 142.142 42.8133 142.161 42.6975 142.143C41.1763 141.895 39.6375 141.771 38.0962 141.771C25.9687 141.771 15.8775 149.41 15.1125 159.164C15.1039 159.304 15.042 159.436 14.9396 159.532C14.8371 159.628 14.7018 159.682 14.5612 159.681C7.5075 159.76 1.77 164.429 1.77 170.088C1.77 175.746 7.58625 180.494 14.7413 180.494C14.8904 180.494 15.0335 180.553 15.139 180.659C15.2445 180.764 15.3038 180.907 15.3038 181.056C15.3038 181.205 15.2445 181.349 15.139 181.454C15.0335 181.56 14.8904 181.619 14.7413 181.619C6.9675 181.619 0.645004 176.444 0.645004 170.088C0.645004 163.945 6.6075 158.838 14.0438 158.568C15.1688 148.443 25.5975 140.646 38.0962 140.646C39.5687 140.642 41.0393 140.751 42.495 140.973C44.9475 136.799 50.1112 134.121 55.7925 134.121C63.7687 134.121 70.2825 139.319 70.5525 145.776C72.3418 145.185 74.2143 144.885 76.0987 144.888C84.2325 144.888 90.8587 150.31 90.8587 156.97C90.8561 157.555 90.8034 158.138 90.7012 158.714C97.4512 159.636 102.457 164.429 102.457 170.088C102.48 176.421 96.1575 181.596 88.395 181.596Z" fill="#D1D3D4"/>
<path d="M183.457 248.196C248.044 248.196 300.401 195.839 300.401 131.253C300.401 66.6663 248.044 14.3088 183.457 14.3088C118.871 14.3088 66.5137 66.6663 66.5137 131.253C66.5137 195.839 118.871 248.196 183.457 248.196Z" fill="white"/>
<path d="M183.458 14.3313C206.6 14.3202 229.227 21.1726 248.475 34.022C267.722 46.8713 282.727 65.1404 291.591 86.5183C300.456 107.896 302.781 131.423 298.272 154.122C293.764 176.822 282.626 197.674 266.265 214.043C249.905 230.411 229.057 241.56 206.36 246.079C183.663 250.598 160.135 248.284 138.753 239.431C117.371 230.577 99.0943 215.581 86.2357 196.339C73.3771 177.097 66.5138 154.474 66.5138 131.331C66.5138 100.301 78.8405 70.5415 100.782 48.5998C122.724 26.658 152.483 14.3313 183.514 14.3313H183.458ZM183.514 13.3075C160.176 13.2964 137.359 20.2071 117.949 33.1655C98.5398 46.1239 83.4095 64.5478 74.4723 86.1066C65.5351 107.665 63.1927 131.39 67.7413 154.281C72.2899 177.171 83.5252 198.198 100.026 214.702C116.527 231.206 137.552 242.445 160.441 246.998C183.33 251.551 207.056 249.213 228.616 240.28C250.177 231.347 268.604 216.22 281.566 196.813C294.528 177.406 301.443 154.59 301.436 131.253C301.398 99.9745 288.955 69.9886 266.838 47.8717C244.721 25.7548 214.736 13.3125 183.458 13.2738L183.514 13.3075Z" fill="#231F20"/>
<path d="M271.151 53.875C270.293 54.2045 269.355 54.2634 268.462 54.0438L270.026 52.5813C267.911 50.2525 265.684 48.0138 263.389 45.8313C263.451 46.6941 263.724 47.5283 264.186 48.2602C264.647 48.9921 265.281 49.5991 266.033 50.0275C263.558 50.1738 261.634 48.7 259.474 48.0475C256.896 47.4166 254.286 46.9283 251.655 46.585L255.536 49.3638C254.801 49.6437 254.049 49.8803 253.286 50.0725C252.566 48.5088 251.621 49.78 250.777 49.735C248.865 49.6225 246.772 51.8613 245.321 49.5438C244.638 49.6289 243.964 49.7758 243.308 49.9825C241.511 50.5495 239.797 51.3514 238.211 52.3675C236.456 53.785 235.905 53.9425 234.544 51.8613L236.333 51.2425V50.5113L232.699 49.735C232.555 50.5933 232.502 51.4644 232.541 52.3338C232.696 52.8853 232.943 53.4065 233.273 53.875C232.202 53.9684 231.139 54.13 230.089 54.3588C229.088 54.7121 228.107 55.1215 227.153 55.585L228.03 57.3963L223.181 56.6088L223.125 57.0813L224.993 58.2963C222.203 59.1288 220.493 57.6775 220.493 54.8313L218.119 53.56C218.967 53.485 219.822 53.5884 220.628 53.8638C223.249 54.4488 225.904 55.1013 228.503 53.785C229.83 53.11 229.763 52.1538 228.503 51.535C226.947 50.6826 225.312 49.9855 223.62 49.4538C220.661 48.61 217.635 48.025 214.62 47.3275C214.766 47.1025 214.935 46.8213 215.115 46.5513C213.724 46.1536 212.307 45.8529 210.874 45.6513C210.004 45.7721 209.162 46.0463 208.388 46.4613C208.635 45.9438 208.781 45.6063 209.13 44.8638C207.713 45.5275 206.576 46.5625 205.755 46.3713C203.876 45.9438 202.38 47.4063 200.501 47.0238C199.376 46.81 197.936 48.4525 197.126 48.97C196.235 49.0774 195.357 49.2734 194.505 49.555C193.706 50.0614 192.953 50.6374 192.255 51.2763L195.225 50.5563C193.886 52.2213 192.446 54.1788 190.826 55.9675C189.701 57.205 188.509 58.8025 187.058 59.1963C185.076 59.792 183.257 60.8307 181.736 62.2338C181.447 62.5491 181.226 62.9206 181.087 63.3251C180.947 63.7296 180.893 64.1585 180.926 64.585C181.121 65.8291 181.465 67.0453 181.95 68.2075C182.217 68.8388 182.715 69.3447 183.342 69.6226C183.969 69.9005 184.678 69.9295 185.325 69.7038C186.45 69.13 187.958 67.7238 188.7 68.05C189.746 68.5338 190.253 70.2213 190.95 71.425C191.096 71.6725 191.22 71.9313 191.344 72.1788C192.008 73.5625 191.929 76.8138 194.516 73.4613C196.609 73.9113 196.62 72.2013 196.766 71.0313C196.771 70.4594 196.922 69.8982 197.203 69.4004C197.484 68.9025 197.888 68.4843 198.375 68.185C198.677 68.0806 198.94 67.8894 199.134 67.6356C199.327 67.3817 199.441 67.0764 199.461 66.758C199.482 66.4395 199.408 66.1222 199.249 65.8457C199.089 65.5692 198.852 65.3459 198.566 65.2038C196.958 64.0788 196.778 62.9538 198.161 61.5025C198.904 60.715 200.018 60.2875 200.827 59.545C201.638 58.8025 202.076 57.8125 202.886 57.1713C203.807 56.375 204.878 55.7707 206.036 55.3938C206.7 55.2138 207.577 55.8325 208.545 56.1475C206.632 57.655 205.17 58.7688 203.786 59.905C202.999 60.535 202.065 64.405 202.785 64.7988C204.109 65.5975 205.598 66.0824 207.139 66.2163C208.489 66.295 209.873 65.5413 211.256 65.35C211.945 65.3737 212.625 65.5106 213.27 65.755V66.61C212.055 66.7225 210.851 66.8238 209.648 66.9475C208.692 66.9969 207.742 67.1097 206.801 67.285C205.508 67.5663 205.339 68.41 206.239 69.2538C207.364 70.3788 207.049 71.11 206.081 71.965C203.64 69.9738 203.1 70.1763 202.526 73.2588C202.459 73.9734 202.459 74.6929 202.526 75.4075C201.536 75.835 200.276 76.825 199.702 76.5325C197.149 75.3063 195.45 77.5788 193.189 77.7475C192.503 75.97 191.22 77.0613 190.05 77.0838C189.262 76.9868 188.527 76.6352 187.958 76.0825C187.643 75.8125 187.429 74.845 187.631 74.6313C188.122 74.1182 188.447 73.4692 188.563 72.7688C188.679 72.0684 188.582 71.3492 188.284 70.705C185.201 72.3925 185.224 72.3925 185.944 75.5425C186.057 76.1884 186.099 76.845 186.068 77.5L181.5 79.3225C180.038 80.7738 178.991 81.82 177.934 82.8438C177.563 83.215 177 83.4513 176.809 83.8788C176.634 84.3011 176.376 84.6837 176.05 85.0032C175.723 85.3228 175.335 85.5727 174.909 85.7379C174.483 85.903 174.028 85.9799 173.571 85.964C173.115 85.948 172.666 85.8395 172.253 85.645C172.331 86.275 172.41 86.8825 172.489 87.5575L168.439 87.3775C169.602 88.8529 170.869 90.2439 172.23 91.54C173.85 93.3963 172.523 95.3763 172.23 97.2663C168.855 97.5363 165.413 95.9613 162.105 97.9525C163.973 101.755 160.845 105.704 163.095 109.428L165.345 109.158C165.908 109.9 166.403 110.553 166.673 110.924C170.048 110.125 173.423 109.641 174.401 106.694C174.401 105.569 174.143 104.714 174.401 104.286C175.189 103.161 176.246 102.318 177.124 101.305C177.72 100.619 178.699 99.8313 178.665 99.1338C178.553 96.94 179.869 97.0638 181.073 97.5475C181.584 97.8246 182.174 97.9199 182.746 97.8177C183.318 97.7155 183.839 97.4219 184.223 96.985C184.984 96.3799 185.789 95.831 186.63 95.3425C187.204 96.0738 187.755 96.8613 188.408 97.5925C189.399 98.9247 190.53 100.147 191.783 101.238C194.033 102.846 196.62 104.028 195.675 107.616L197.25 105.456L196.519 102.891L199.05 104.016C198.971 103.6 199.05 103.308 198.893 103.24C197.396 102.25 196.496 100.473 194.55 100.045C193.97 99.7901 193.482 99.3617 193.155 98.8188C192.581 98.065 192.21 97.1538 191.614 96.4225C190.118 94.6113 190.388 93.6438 192.435 93.0475C192.612 93.5099 192.847 93.9483 193.133 94.3525C193.358 94.6 194.055 94.5775 194.111 94.7913C194.651 96.8275 196.361 97.435 197.959 98.38C198.926 98.9763 200.209 100.124 200.209 101.024C200.209 105.141 203.156 107.661 204.596 110.924C205.231 110.001 205.788 109.026 206.261 108.01C206.424 107.358 206.352 106.669 206.059 106.064C205.569 105.138 205.017 104.247 204.405 103.398C205.339 103.454 206.194 103.758 206.52 103.476C208.118 102.036 208.073 101.991 209.456 102.79C209.344 104.298 209.243 105.569 209.164 106.694C209.783 107.616 210.289 109.023 211.144 109.439C212.269 109.945 213.18 111.88 215.093 110.193C215.689 109.664 217.703 110.733 219.064 111.059C219.135 111.06 219.206 111.04 219.266 111.003L222.731 109.416C222.011 112.589 221.449 115.109 220.875 117.629C220.504 119.249 219.885 120.464 217.849 120.52C217.061 120.52 216.296 121.386 215.903 121.645L219.075 125.02L217.5 126.19C217.568 126.404 217.635 126.606 217.714 126.809L220.762 125.886C221.179 126.629 221.764 127.551 222.248 128.53C223.069 130.184 223.845 131.905 224.588 133.559C225.184 134.92 225.712 136.304 226.264 137.699C226.646 138.711 226.804 139.814 227.276 140.77C227.881 141.86 228.557 142.909 229.301 143.909C231.394 146.946 231.338 150.535 231.945 153.955C232.159 155.159 232.676 155.609 233.79 155.08C235.797 154.151 237.75 153.111 239.64 151.964C241.631 150.659 243.307 148.881 245.355 147.678C247.255 146.719 248.927 145.365 250.26 143.706C250.609 143.211 250.879 142.66 251.205 142.143C251.48 141.585 251.812 141.057 252.195 140.568C254.546 137.98 254.062 135.696 250.924 134.155C250.289 133.762 249.814 133.156 249.585 132.445C249.389 131.535 249.288 130.608 249.281 129.678C248.393 130.619 247.598 131.644 246.908 132.738C246.007 134.526 244.567 133.435 243.375 133.671C243.251 132.929 243.139 132.175 242.993 131.421C242.903 130.938 242.79 130.454 242.542 129.385L241.721 131.331L238.121 123.636C240.045 121.488 240.45 121.533 241.8 124.143C241.992 124.507 242.161 124.882 242.306 125.268C242.552 125.993 242.952 126.656 243.479 127.212C244.005 127.768 244.646 128.204 245.356 128.489C246.067 128.775 246.831 128.903 247.596 128.865C248.361 128.828 249.108 128.625 249.788 128.271C250.789 130.758 250.991 131.073 253.837 131.253C256.684 131.433 259.665 131.253 262.264 131.253L267.034 136.675L265.673 137.238L268.811 139.96L270.431 137.991C271.162 141.94 271.781 146.519 272.918 150.985C273.903 155.512 275.339 159.929 277.204 164.17C279.922 160.993 281.287 156.878 281.006 152.706C280.843 151.678 280.975 150.624 281.389 149.669C282.401 148.173 284.055 147.115 285.022 145.608C286.519 143.268 289.522 142.075 290.04 139.015C290.107 138.621 290.951 138.239 291.502 138.104C293.021 137.71 294.585 137.44 296.182 137.114C296.376 138.291 296.756 139.431 297.307 140.489C298.252 141.735 299.041 143.091 299.659 144.528C301.513 128.264 299.934 111.792 295.023 96.1767C290.113 80.5615 281.98 66.1504 271.151 53.875Z" fill="#F2B32A"/>
<path d="M109.061 221.478C109.417 220.738 109.646 219.943 109.736 219.126C109.883 217.146 110.535 215.819 112.178 215.065C114.101 214.188 116.149 213.603 118.129 212.815C118.591 212.692 119.003 212.428 119.31 212.061C120.326 210.449 121.131 208.714 121.706 206.898C122.158 204.368 122.451 201.813 122.584 199.248C122.577 198.965 122.635 198.684 122.752 198.426C123.765 197.11 124.935 195.895 125.835 194.5C126.735 193.105 128.243 191.283 128.333 189.606C128.392 189.117 128.35 188.621 128.21 188.149C128.07 187.677 127.834 187.239 127.518 186.861C127.202 186.484 126.811 186.175 126.371 185.954C125.93 185.734 125.449 185.606 124.958 185.579C124.617 185.481 124.325 185.26 124.136 184.96C121.886 181.878 118.511 182.564 115.35 182.508C115.631 181.18 114.956 180.753 113.572 180.438C110.355 179.695 107.779 178.188 106.822 174.554C105.844 170.718 103.954 169.649 99.9488 169.424C98.7474 169.178 97.6263 168.636 96.6862 167.849C95.9202 167.223 95.2192 166.522 94.5937 165.756C94.2882 165.347 93.9414 164.97 93.5588 164.631C92.4338 163.866 91.6575 162.224 90.1838 162.539C88.71 162.854 87.0563 163.27 85.4925 162.539C83.9288 161.808 82.6688 161.211 80.9925 160.413L79.4287 164.688C78.3037 163.011 79.4287 161.369 79.6987 159.625C76.5825 161.549 72.9487 162.64 72.2625 166.893L72.06 166.769C78.8838 188.18 91.7295 207.173 109.061 221.478Z" fill="#F28988"/>
<path d="M85.5938 93.205C89.52 94.105 92.445 92.08 95.5838 90.6063C95.8767 90.4643 96.1316 90.2545 96.3273 89.9942C96.5229 89.734 96.6537 89.4309 96.7088 89.11C96.6603 88.7302 96.5357 88.364 96.3424 88.0335C96.1491 87.7029 95.891 87.4148 95.5838 87.1863C94.7035 86.8261 93.7746 86.5986 92.8275 86.5113C93.3 86.2075 93.84 85.8475 94.0538 85.7238C92.4661 84.9345 90.959 83.9925 89.5538 82.9113C88.8675 82.2925 89.0925 80.785 88.5638 79.8738C87.5974 78.3196 86.5497 76.8175 85.425 75.3738C84.3675 76.8475 84.0863 79.5138 81.5213 78.8725C80.7292 78.7102 80.0335 78.2411 79.5863 77.5675C72.3704 91.5156 68.0573 106.782 66.9075 122.444C67.3105 122.011 67.7681 121.633 68.2688 121.319C71.4638 119.485 71.6437 118.911 70.8337 115.221C70.7127 114.021 70.7127 112.811 70.8337 111.61C71.1712 112.859 71.4075 113.77 71.6438 114.693C72.4088 113.354 73.5 112.251 73.6012 111.07C73.7925 108.966 74.8387 108.494 76.6163 108.46C77.3199 108.381 78.0135 108.231 78.6863 108.01L78.09 107.74C78.2025 106.694 77.9325 105.096 78.495 104.725C80.7267 103.387 83.0371 102.185 85.4138 101.125L83.9063 104.376L84.435 104.5L91.77 100.585C91.6575 100.394 91.5563 100.203 91.4438 100.023L90.5325 100.54L91.0388 98.8188C90.8779 98.823 90.7209 98.8687 90.5829 98.9515C90.4449 99.0343 90.3307 99.1513 90.2513 99.2913C88.9238 101.26 88.215 101.418 86.235 100C84.7613 98.9425 84.2213 97.75 85.7963 96.2313C85.9425 96.0963 85.56 95.0275 85.3688 95.005C84.5427 94.9166 83.7075 94.9815 82.905 95.1963C81.8346 95.5664 80.7866 95.9984 79.7663 96.49C81.375 94.915 83.0738 92.6313 85.5938 93.205Z" fill="black"/>
<path d="M186.72 172.709C187.272 173.619 187.468 174.7 187.271 175.746C186.36 178.851 186.338 181.45 188.869 184.049C189.936 185.189 190.755 186.539 191.272 188.013C191.789 189.487 191.994 191.053 191.873 192.61C191.844 193.037 191.951 193.462 192.176 193.825C193.211 195.209 192.581 196.21 191.895 197.616C190.388 200.721 188.936 203.905 191.074 207.55C192.334 209.699 193.718 211.836 193.819 214.683C193.755 217.4 194.714 220.042 196.508 222.085C197.633 223.3 198.758 225.28 198.6 226.788C198.47 227.556 198.594 228.347 198.953 229.039C199.313 229.731 199.888 230.288 200.591 230.624C201.235 230.336 201.906 230.114 202.594 229.96C204.523 229.907 206.445 229.704 208.343 229.353C213.101 227.98 215.441 223.896 217.86 220.049C218.31 219.34 218.018 218.17 218.096 216.809C218.378 216.651 219.03 216.246 219.716 215.92C220.133 215.786 220.517 215.567 220.844 215.276C221.171 214.985 221.433 214.629 221.614 214.231C221.795 213.832 221.891 213.401 221.896 212.963C221.9 212.526 221.813 212.092 221.64 211.69C221.426 210.948 221.066 210.239 220.886 209.44C220.785 209.024 220.729 208.315 220.954 208.146C222.54 206.695 224.329 205.401 225.836 203.928C226.849 202.96 228.188 201.891 228.446 200.676C228.693 198.8 228.598 196.894 228.165 195.051C227.963 193.803 227.13 192.655 226.905 191.395C226.68 190.135 227.569 188.436 226.106 187.221C225.926 187.075 226.016 186.321 226.23 186.029C228.604 182.755 230.516 178.885 233.554 176.421C237.581 173.159 239.595 168.873 241.811 164.575C242.266 163.277 242.535 161.921 242.61 160.548C239.539 161.324 236.816 162.078 234.06 162.685C233.765 162.695 233.472 162.634 233.205 162.507C232.939 162.38 232.707 162.19 232.53 161.954C232.069 161.178 232.136 160.041 231.585 159.378C230.584 158.151 229.245 157.195 228.131 156.003C227.489 155.405 226.982 154.676 226.646 153.865C225.735 151.075 223.654 148.859 223.328 145.698C223.125 143.751 221.336 142.008 220.448 140.073C219.322 137.682 218.334 135.23 217.489 132.726C216.87 130.893 215.835 131.05 214.373 131.444C213.287 131.812 212.125 131.897 210.998 131.691C208.813 131.058 206.665 130.307 204.563 129.441C202.673 128.721 201.188 129.543 200.985 131.455C200.861 132.839 200.265 133.593 198.938 132.58C197.61 131.568 195.011 132.13 194.539 129.655C194.539 129.565 194.033 129.655 193.808 129.531C191.805 128.665 189.083 129.768 187.958 127.641C188.509 126.033 188.959 124.683 189.454 123.209C188.539 123.006 187.61 122.878 186.675 122.826C184.245 122.916 181.815 122.995 179.419 123.321C177.697 123.548 176.01 123.994 174.401 124.649C171.848 125.695 169.384 126.629 167.089 124.784C165.964 126.021 165.064 127.461 163.793 128.159C163.067 128.519 162.458 129.077 162.034 129.767C161.611 130.457 161.39 131.253 161.396 132.063C161.396 134.639 160.046 135.539 158.021 136.169C157.502 136.317 157.047 136.633 156.727 137.069C155.524 139.026 154.32 140.995 153.285 143.054C152.565 144.494 151.238 145.72 152.565 147.835C153.341 149.05 153.206 151.21 152.711 152.751C152.084 154.928 151.927 157.214 152.25 159.456C152.396 159.966 152.68 160.426 153.071 160.784C153.375 161.144 153.847 161.38 154.106 161.751C155.214 163.601 156.439 165.379 157.774 167.073C159.314 168.53 160.937 169.897 162.634 171.168C163.08 171.551 163.626 171.798 164.209 171.88C164.791 171.962 165.384 171.874 165.919 171.629C167.666 171.296 169.439 171.123 171.218 171.111C171.905 171.084 172.588 170.982 173.254 170.808C174.604 170.246 175.982 169.755 177.383 169.334C178.789 169.03 180.758 168.141 181.376 170.256C181.973 172.169 183.053 172.101 184.583 171.955C184.972 171.917 185.365 171.965 185.735 172.096C186.104 172.226 186.44 172.435 186.72 172.709Z" fill="black"/>
<path d="M98.25 51.1863C98.6446 51.0503 99.0221 50.8691 99.375 50.6463L102.75 53.0425L98.3625 52.4125L98.2612 53.065L102.457 54.64V56.71L97.5187 59.3313L99.825 61.1538C99.7094 61.7634 99.7094 62.3892 99.825 62.9988C101.411 66.2613 103.031 69.5125 104.752 72.6963C105.239 73.5112 105.929 74.1858 106.755 74.6538C107.945 75.2717 109.169 75.8201 110.423 76.2963C111.368 76.7125 112.245 77.185 112.526 75.5425C112.807 73.9 113.224 72.4488 113.595 70.9075C113.662 70.6263 113.764 70.2325 113.977 70.1313C115.71 69.2313 116.025 67.7688 116.014 65.9688C116.014 65.3838 117.026 64.2475 117.488 64.2925C120.863 64.6075 123.034 62.875 124.868 60.3325C125.374 59.6238 126.229 58.7575 126.971 58.7013C131.471 58.4313 135.195 56.4513 139.166 54.2013L133.822 53.6388L135.262 51.9063L139.504 53.6838C139.819 51.4338 139.031 50.4438 137.4 49.8025C135.577 49.0938 135.397 48.115 136.342 46.8438H141.236L139.875 45.1563L143.014 44.7063L141.63 43.2663C144.071 41.6013 140.865 40.7688 141.056 39.5088L144.105 39.3175C143.542 38.4738 143.239 37.4613 142.609 37.18C141.614 36.9457 140.589 36.8698 139.571 36.955C142.395 32.7363 147.188 31.33 151.586 29.2825C150.406 28.6465 149.103 28.2729 147.765 28.1875C146.427 28.102 145.086 28.3067 143.835 28.7875C141.564 29.4108 139.252 29.8732 136.916 30.1713L138.041 28.45C137.141 28.5513 136.241 28.6638 135.33 28.7425C134.835 28.7425 134.329 28.7425 133.822 28.7425L133.755 27.8763L139.256 26.9538C137.389 26.4475 135.6 25.7388 133.8 25.3788C120.432 31.6684 108.371 40.4241 98.25 51.1863Z" fill="#135E46"/>
<path d="M83.355 70.75C83.13 71.1213 82.9162 71.5038 82.6912 71.875C83.1412 72.0213 83.5913 72.1788 84.0413 72.3588L83.355 70.75Z" fill="black"/>
<path d="M89.745 61.4125H89.6775C89.3287 61.8738 88.9912 62.335 88.6537 62.8075C89.025 62.3238 89.385 61.8625 89.745 61.4125Z" fill="black"/>
<path d="M85.4025 70.12C85.5639 69.3192 85.5174 68.4903 85.2675 67.7125C84.7837 68.4663 84.3113 69.2088 83.8388 69.9625L85.4025 70.12Z" fill="black"/>
<path d="M232.519 210.284C231.776 211.881 231.99 214.953 233.272 216.044C233.562 216.305 233.912 216.49 234.29 216.583C234.669 216.677 235.064 216.675 235.442 216.578C235.82 216.481 236.167 216.292 236.454 216.028C236.741 215.764 236.958 215.433 237.086 215.065C238.301 211.038 239.336 206.976 240.461 202.926C240.551 202.623 240.461 202.229 240.675 201.993C241.165 201.252 241.37 200.359 241.25 199.479C241.129 198.599 240.693 197.793 240.022 197.211C237.671 198.966 237.424 202.836 233.194 202.645C233.194 204.018 233.284 205.289 233.194 206.549C233.179 207.823 232.951 209.085 232.519 210.284Z" fill="black"/>
<path d="M176.066 81.37C176.257 80.8525 176.752 80.11 176.572 79.885C176.259 79.6012 175.867 79.4205 175.447 79.3675C173.805 77.1175 172.387 75.1488 170.869 73.0563C172.106 70.8063 172.05 70.0413 170.396 68.9725C169.373 68.2975 167.021 69.2313 165.998 70.7275C165.514 71.4138 166.223 72.7188 168.045 74.4513L167.786 75.7675C168.146 75.7675 168.405 75.7675 168.551 75.8688C169.204 76.3638 170.171 76.7913 170.363 77.4438C170.554 78.0963 169.957 78.895 168.877 78.445C168.624 78.6419 168.439 78.9135 168.349 79.2213C168.27 79.9975 168.349 80.7738 168.349 81.7413L170.104 82.27L166.999 84.6438L175.38 83.305C175.74 82.27 175.875 81.8313 176.066 81.37Z" fill="black"/>
<path d="M247.56 39.1938C245.982 40.8994 244.29 42.4967 242.498 43.975C244.748 46.1463 247.583 46.4388 251.07 46.3038C250.114 45.6288 249.315 45.325 248.955 44.74C248.595 44.155 248.303 43.0188 248.606 42.625C250.169 40.7603 252.114 39.2526 254.31 38.2038C253.568 37.6413 252.825 37.0788 252.06 36.5388C250.313 36.9164 248.735 37.8475 247.56 39.1938Z" fill="black"/>
<path d="M141.923 70.1425C142.746 70.3451 143.607 70.3451 144.431 70.1425C145.736 69.8067 146.965 69.2264 148.054 68.4325C148.864 67.7575 150.72 67.2063 149.831 65.6763C148.965 64.5638 147.946 63.5791 146.805 62.7513L146.636 63.4488L140.235 64.9563L138.683 62.875L138.919 63.5725L136.129 65.1813L136.421 65.5413H139.425L136.702 66.97L139.718 67.8363L138.199 68.9613C139.459 69.4563 140.674 69.8725 141.923 70.1425Z" fill="black"/>
<path d="M196.777 34.8288C198.15 33.7038 199.275 32.7588 200.49 31.9263C200.712 31.8154 200.956 31.7577 201.204 31.7577C201.452 31.7577 201.697 31.8154 201.919 31.9263C202.267 32.1625 202.346 32.8038 202.594 33.3888H206.689C206.689 33.13 206.689 32.8713 206.768 32.6238L195.27 28.0338C195.754 29.1588 195.934 29.5075 195.967 29.5975L189.127 29.0013L188.97 29.71C189.832 30.5396 190.833 31.21 191.929 31.69C192.93 31.9488 194.179 31.4313 195.304 31.2513L195.371 31.78L192.772 32.7138L192.862 33.0738L194.91 33.265L193.526 33.9738L196.777 34.8288Z" fill="#F28988"/>
<path d="M166.369 77.5225C167.347 76.9375 167.494 76.0938 166.526 75.6213C165.559 75.1488 164.445 74.2825 163.331 75.6213C162.724 76.3075 162.004 76.8813 161.171 77.6575V81.0325L160.496 81.3588C160.867 81.6625 161.317 82.27 161.621 82.2025C163.152 81.8374 164.635 81.2976 166.042 80.5938C166.391 80.3913 166.132 79.0975 166.177 78.3438C166.155 77.9725 166.211 77.6238 166.369 77.5225Z" fill="black"/>
<path d="M68.1 144.28C67.8127 144.142 67.5108 144.036 67.2 143.965L67.3688 145.439C68.2143 145.727 69.0377 146.077 69.8325 146.485C70.665 146.901 71.1825 147.948 72.0825 148.949L75.9413 148.51C73.095 146.98 70.6425 145.551 68.1 144.28Z" fill="black"/>
<path d="M83.3213 151.379C83.49 149.489 80.115 148.296 77.055 149.129L78.675 150.985L75.4913 150.704C78 152.448 80.7113 151.165 83.3213 151.379Z" fill="black"/>
<path d="M210.131 28.1688H199.331C200.741 28.9051 202.261 29.4067 203.831 29.6538C205.932 29.6908 208.032 29.5931 210.12 29.3613C210.131 28.9563 210.131 28.5625 210.131 28.1688Z" fill="black"/>
<path d="M282.041 169.401C282.649 169.165 283.47 168.006 283.313 167.579C282.715 166.237 281.996 164.953 281.164 163.743L280.534 164.035C280.534 165.329 280.534 166.623 280.534 167.905C280.534 169.188 280.871 169.863 282.041 169.401Z" fill="#135E46"/>
<path d="M187.035 101.643L185.64 102.216V105.828C188.036 105.704 186.945 103.769 187.429 102.734C187.541 102.498 187.193 102.081 187.035 101.643Z" fill="black"/>
<path d="M194.797 107.526H190.984L190.871 107.976L194.359 110.091C194.516 109.135 194.674 108.28 194.797 107.526Z" fill="black"/>
<path d="M181.208 150.794L177.225 142.75C172.995 134.2 168.821 125.628 164.524 117.111C162.874 114.066 161.997 110.663 161.97 107.2C162.04 102.536 163.801 98.0554 166.926 94.5913C170.05 91.1272 174.325 88.9147 178.958 88.3649C183.59 87.8151 188.265 88.9652 192.113 91.6017C195.961 94.2381 198.722 98.1817 199.882 102.7C201.058 107.178 200.541 111.933 198.431 116.054C194.884 123.209 191.336 130.36 187.789 137.508C185.704 141.7 183.626 145.896 181.556 150.096L181.208 150.794ZM181.208 117.044C183.114 117.05 184.979 116.491 186.567 115.437C188.155 114.383 189.394 112.882 190.128 111.122C190.863 109.363 191.058 107.426 190.69 105.556C190.323 103.686 189.408 101.967 188.063 100.616C186.717 99.2662 185.001 98.3457 183.132 97.9714C181.263 97.597 179.325 97.7858 177.564 98.5136C175.802 99.2415 174.296 100.476 173.237 102.06C172.177 103.645 171.611 105.508 171.611 107.414C171.602 109.966 172.604 112.418 174.399 114.233C176.193 116.048 178.633 117.079 181.185 117.1L181.208 117.044Z" fill="#231F20"/>
<path d="M288.375 113.388C287.171 110.935 286.001 108.595 284.842 106.244C281.096 98.6613 277.384 91.0675 273.592 83.5188C272.137 80.8134 271.365 77.7933 271.342 74.7213C271.406 70.5822 272.97 66.6069 275.744 63.5349C278.519 60.4629 282.315 58.5032 286.426 58.0204C290.538 57.5376 294.684 58.5646 298.095 60.9103C301.506 63.256 303.949 66.7607 304.969 70.7725C306.018 74.7405 305.561 78.9563 303.686 82.6075C300.536 88.9525 297.39 95.2938 294.248 101.631L288.713 112.791C288.6 112.96 288.51 113.129 288.375 113.388ZM288.375 83.5075C290.065 83.512 291.718 83.015 293.125 82.0794C294.532 81.1439 295.63 79.8119 296.28 78.252C296.93 76.6922 297.102 74.9746 296.775 73.3168C296.448 71.6589 295.637 70.1354 294.443 68.939C293.25 67.7425 291.729 66.9271 290.072 66.5958C288.415 66.2645 286.697 66.4323 285.135 67.0779C283.574 67.7235 282.239 68.8179 281.299 70.2226C280.36 71.6272 279.859 73.279 279.859 74.9688C279.865 77.2277 280.763 79.3927 282.358 80.9921C283.953 82.5915 286.116 83.4957 288.375 83.5075Z" fill="#231F20"/>
<path d="M118.624 47.4738C117.611 45.4263 116.632 43.4575 115.665 41.4888C112.515 35.1325 109.41 28.765 106.215 22.4313C104.991 20.1664 104.338 17.6369 104.314 15.0625C104.373 11.5962 105.688 8.26907 108.015 5.69862C110.341 3.12817 113.521 1.48888 116.964 1.08492C120.407 0.680959 123.88 1.53976 126.739 3.50197C129.597 5.46418 131.646 8.39657 132.506 11.755C133.371 15.0879 132.97 18.6228 131.381 21.6775L123.506 37.6188L118.882 46.9563L118.624 47.4738ZM118.624 22.4313C120.043 22.4357 121.431 22.0189 122.612 21.2337C123.794 20.4485 124.716 19.3302 125.262 18.0205C125.807 16.7107 125.952 15.2686 125.677 13.8767C125.402 12.4848 124.72 11.2058 123.718 10.2018C122.715 9.19773 121.437 8.51386 120.046 8.23679C118.654 7.95973 117.212 8.10193 115.901 8.64539C114.591 9.18884 113.471 10.1091 112.684 11.2895C111.897 12.47 111.478 13.8575 111.48 15.2763C111.489 17.1673 112.242 18.9787 113.577 20.318C114.913 21.6572 116.722 22.4165 118.613 22.4313H118.624Z" fill="#231F20"/>
<path d="M104.302 182.89C103.279 180.843 102.311 178.874 101.333 176.905C98.1938 170.549 95.0888 164.181 91.8938 157.859C90.6654 155.591 90.0126 153.057 89.9925 150.479C90.0521 147.012 91.3671 143.685 93.6934 141.115C96.0198 138.544 99.1997 136.905 102.643 136.501C106.086 136.097 109.559 136.956 112.417 138.918C115.275 140.88 117.325 143.813 118.185 147.171C119.038 150.505 118.637 154.036 117.06 157.094L109.185 173.046C107.64 176.159 106.095 179.275 104.55 182.395C104.483 182.541 104.404 182.688 104.302 182.89ZM104.302 157.848C105.722 157.854 107.111 157.439 108.294 156.655C109.477 155.872 110.401 154.754 110.948 153.445C111.496 152.135 111.642 150.692 111.368 149.3C111.094 147.907 110.414 146.627 109.412 145.622C108.41 144.617 107.132 143.932 105.74 143.654C104.348 143.376 102.905 143.517 101.594 144.061C100.283 144.604 99.1622 145.524 98.3746 146.705C97.5871 147.885 97.1678 149.273 97.17 150.693C97.1729 152.581 97.9215 154.393 99.253 155.733C100.584 157.073 102.391 157.833 104.28 157.848H104.302Z" fill="#231F20"/>
<path d="M194.73 142.953H194.618C194.545 142.938 194.476 142.909 194.415 142.868C194.354 142.826 194.301 142.773 194.261 142.712C194.22 142.65 194.192 142.581 194.178 142.508C194.164 142.436 194.164 142.361 194.179 142.289C194.246 141.974 201.176 110.193 236.186 94.6788C247.751 89.56 257.921 88.84 266.404 92.5413C278.273 97.7163 282.604 109.956 282.649 110.08C282.696 110.222 282.686 110.376 282.621 110.511C282.555 110.645 282.44 110.749 282.3 110.8C282.158 110.847 282.004 110.837 281.869 110.772C281.735 110.707 281.631 110.592 281.58 110.451C281.58 110.328 277.361 98.5375 265.943 93.5763C257.753 90.0213 247.943 90.7413 236.693 95.725C202.223 110.991 195.394 142.21 195.326 142.525C195.297 142.657 195.22 142.774 195.11 142.852C195 142.931 194.865 142.967 194.73 142.953Z" fill="#231F20"/>
<path d="M110.366 181.81C110.277 181.809 110.189 181.79 110.107 181.754C110.041 181.719 109.983 181.672 109.935 181.615C109.887 181.558 109.851 181.492 109.829 181.421C109.808 181.349 109.8 181.275 109.807 181.201C109.814 181.126 109.836 181.054 109.871 180.989C133.755 134.954 173.996 150.119 174.345 150.276C174.419 150.299 174.488 150.336 174.547 150.387C174.605 150.437 174.653 150.499 174.687 150.568C174.721 150.638 174.74 150.714 174.743 150.791C174.747 150.868 174.734 150.945 174.706 151.018C174.678 151.09 174.635 151.155 174.581 151.21C174.527 151.265 174.461 151.308 174.389 151.337C174.318 151.366 174.241 151.379 174.163 151.377C174.086 151.374 174.01 151.356 173.94 151.323C173.546 151.165 134.272 136.394 110.861 181.506C110.814 181.597 110.743 181.673 110.656 181.727C110.569 181.781 110.469 181.809 110.366 181.81Z" fill="#231F20"/>
<path d="M172.129 86.2075C172.013 86.2075 171.9 86.1718 171.806 86.1054C171.711 86.039 171.639 85.945 171.6 85.8363C171.476 85.4988 158.663 52.0863 126.87 48.0363C126.721 48.0184 126.585 47.9419 126.492 47.8238C126.399 47.7056 126.357 47.5555 126.375 47.4063C126.393 47.2571 126.469 47.1211 126.587 47.0283C126.706 46.9355 126.856 46.8934 127.005 46.9113C159.484 51.0625 172.534 85.0938 172.657 85.4313C172.685 85.5007 172.698 85.5748 172.696 85.6492C172.694 85.7237 172.678 85.7971 172.647 85.8651C172.617 85.9332 172.573 85.9945 172.519 86.0455C172.465 86.0966 172.401 86.1364 172.331 86.1625C172.267 86.1884 172.198 86.2036 172.129 86.2075Z" fill="#231F20"/>
<path d="M340.777 28.9563C340.895 28.4546 340.955 27.9414 340.957 27.4263C340.957 23.0613 336.592 19.5513 331.215 19.5513C329.78 19.5472 328.357 19.8105 327.019 20.3275C327.019 20.2375 327.019 20.1475 327.019 20.0575C327.019 15.7038 322.654 12.1825 317.276 12.1825C315.503 12.1104 313.742 12.511 312.175 13.3433C310.607 14.1755 309.289 15.4095 308.355 16.9188C307.291 16.7461 306.215 16.6596 305.137 16.66C296.554 16.5813 289.5 22.0488 288.994 28.9563C283.931 28.9563 279.848 32.3313 279.848 36.4825C279.848 40.6338 283.999 44.0088 289.129 44.0088H315.769" fill="white"/>
<path d="M315.769 44.515H289.129C283.695 44.515 279.285 40.8813 279.285 36.4263C279.285 32.1625 283.369 28.63 288.488 28.36C289.343 21.4188 296.542 16.0525 305.149 16.0525C306.127 16.0524 307.105 16.1201 308.074 16.255C309.09 14.7611 310.468 13.5485 312.079 12.7302C313.69 11.9119 315.482 11.5146 317.287 11.575C322.755 11.575 327.244 15.0963 327.57 19.5175C328.749 19.1475 329.979 18.9616 331.215 18.9663C336.896 18.9663 341.52 22.7575 341.52 27.4263C341.519 27.9874 341.451 28.5464 341.317 29.0913C341.283 29.2357 341.192 29.3606 341.066 29.4386C340.939 29.5166 340.787 29.5414 340.642 29.5075C340.57 29.4904 340.501 29.459 340.441 29.415C340.38 29.3711 340.329 29.3156 340.29 29.2517C340.252 29.1878 340.226 29.1169 340.215 29.043C340.204 28.969 340.208 28.8937 340.226 28.8213C340.338 28.3646 340.394 27.8963 340.395 27.4263C340.395 23.3763 336.277 20.0913 331.215 20.0913C329.849 20.0861 328.494 20.338 327.221 20.8338C327.123 20.8627 327.019 20.8659 326.919 20.8429C326.819 20.82 326.727 20.7717 326.651 20.7027C326.575 20.6338 326.519 20.5465 326.487 20.4492C326.454 20.352 326.448 20.2481 326.467 20.1475C326.467 15.9963 322.35 12.7 317.287 12.7C315.61 12.6375 313.947 13.0211 312.466 13.8117C310.986 14.6022 309.742 15.7715 308.861 17.2C308.807 17.304 308.721 17.3876 308.616 17.4384C308.51 17.4891 308.391 17.5042 308.276 17.4813C307.242 17.3142 306.196 17.2314 305.149 17.2338C296.925 17.2338 290.074 22.3975 289.556 29.0013C289.548 29.1416 289.486 29.2732 289.383 29.3694C289.281 29.4656 289.146 29.519 289.005 29.5188C284.269 29.5188 280.41 32.6913 280.41 36.4825C280.41 40.2738 284.314 43.4463 289.129 43.4463H315.769C315.918 43.4463 316.061 43.5055 316.166 43.611C316.272 43.7165 316.331 43.8596 316.331 44.0088C316.331 44.158 316.272 44.301 316.166 44.4065C316.061 44.512 315.918 44.5713 315.769 44.5713V44.515Z" fill="#D1D3D4"/>
<path d="M344.625 231.456C344.625 224.144 337.369 218.204 328.38 218.103C327.435 205.941 314.97 196.311 299.737 196.311C297.823 196.309 295.912 196.464 294.022 196.773C291.356 191.823 285.27 188.369 278.194 188.369C268.654 188.369 260.914 194.646 260.914 202.386C260.914 202.544 260.914 202.701 260.914 202.859C258.535 201.94 256.005 201.471 253.455 201.475C243.904 201.475 236.175 207.753 236.175 215.493C236.175 216.406 236.284 217.316 236.501 218.204C228.368 219.014 222.056 224.628 222.056 231.456C222.056 238.825 229.425 244.81 238.515 244.81" fill="white"/>
<path d="M238.526 245.417C229.144 245.417 221.505 239.174 221.505 231.501C221.505 224.65 227.625 218.834 235.838 217.765C235.693 217.024 235.621 216.27 235.624 215.515C235.624 207.471 243.623 200.89 253.466 200.89C255.8 200.882 258.119 201.262 260.329 202.015C260.554 194.14 268.474 187.773 278.171 187.773C285.079 187.773 291.356 191.035 294.304 196.12C296.095 195.849 297.904 195.714 299.715 195.715C314.902 195.715 327.604 205.255 328.875 217.529C337.875 217.844 345.165 223.998 345.165 231.423C345.165 231.572 345.106 231.715 345 231.82C344.895 231.926 344.752 231.985 344.603 231.985C344.453 231.985 344.31 231.926 344.205 231.82C344.099 231.715 344.04 231.572 344.04 231.423C344.04 224.47 337.009 218.733 328.358 218.631C328.217 218.632 328.082 218.578 327.979 218.482C327.877 218.386 327.815 218.254 327.806 218.114C326.872 206.189 314.531 196.84 299.681 196.84C297.797 196.837 295.916 196.988 294.056 197.29C293.94 197.31 293.821 197.293 293.716 197.24C293.61 197.187 293.525 197.102 293.471 196.998C290.816 192.081 284.797 188.898 278.137 188.898C268.924 188.898 261.42 194.928 261.42 202.398C261.42 202.476 261.42 202.555 261.42 202.623V202.848C261.42 202.941 261.398 203.033 261.357 203.116C261.316 203.2 261.257 203.274 261.184 203.331C261.106 203.386 261.017 203.421 260.922 203.433C260.828 203.445 260.732 203.433 260.644 203.399C258.335 202.499 255.877 202.041 253.399 202.049C244.174 202.049 236.681 208.079 236.681 215.549C236.681 216.421 236.787 217.29 236.996 218.136C237.013 218.213 237.014 218.293 236.998 218.371C236.983 218.448 236.951 218.521 236.906 218.586C236.861 218.654 236.802 218.711 236.731 218.752C236.661 218.793 236.582 218.817 236.501 218.823C228.559 219.61 222.563 225.066 222.563 231.513C222.563 238.566 229.695 244.304 238.459 244.304C238.608 244.304 238.751 244.363 238.857 244.468C238.962 244.574 239.021 244.717 239.021 244.866C239.021 245.015 238.962 245.159 238.857 245.264C238.751 245.369 238.608 245.429 238.459 245.429L238.526 245.417Z" fill="#D1D3D4"/>
</svg>
