<svg width="163" height="56" viewBox="0 0 163 56" fill="none" xmlns="http://www.w3.org/2000/svg">
<mask id="path-1-inside-1" fill="white">
<path fill-rule="evenodd" clip-rule="evenodd" d="M10.5159 0C4.99308 0 0.51593 4.47716 0.51593 10V39.4456C0.51593 44.9684 4.99308 49.4456 10.5159 49.4456H50.833L57.6163 55.3483C58.369 56.0033 59.4893 56.0033 60.2421 55.3483L67.0253 49.4456H152.484C158.007 49.4456 162.484 44.9684 162.484 39.4456V10C162.484 4.47715 158.007 0 152.484 0H10.5159Z"/>
</mask>
<path fill-rule="evenodd" clip-rule="evenodd" d="M10.5159 0C4.99308 0 0.51593 4.47716 0.51593 10V39.4456C0.51593 44.9684 4.99308 49.4456 10.5159 49.4456H50.833L57.6163 55.3483C58.369 56.0033 59.4893 56.0033 60.2421 55.3483L67.0253 49.4456H152.484C158.007 49.4456 162.484 44.9684 162.484 39.4456V10C162.484 4.47715 158.007 0 152.484 0H10.5159Z" fill="white"/>
<path d="M50.833 49.4456L51.4894 48.6912L51.2072 48.4456H50.833V49.4456ZM57.6163 55.3483L56.9598 56.1027L57.6163 55.3483ZM60.2421 55.3483L60.8985 56.1027V56.1027L60.2421 55.3483ZM67.0253 49.4456V48.4456H66.6512L66.3689 48.6912L67.0253 49.4456ZM1.51593 10C1.51593 5.02944 5.54537 1 10.5159 1V-1C4.4408 -1 -0.48407 3.92488 -0.48407 10H1.51593ZM1.51593 39.4456V10H-0.48407V39.4456H1.51593ZM10.5159 48.4456C5.54536 48.4456 1.51593 44.4162 1.51593 39.4456H-0.48407C-0.48407 45.5207 4.44079 50.4456 10.5159 50.4456V48.4456ZM50.833 48.4456H10.5159V50.4456H50.833V48.4456ZM58.2727 54.5939L51.4894 48.6912L50.1766 50.2L56.9598 56.1027L58.2727 54.5939ZM59.5856 54.5939C59.2093 54.9215 58.6491 54.9215 58.2727 54.5939L56.9598 56.1027C58.0889 57.0852 59.7694 57.0852 60.8985 56.1027L59.5856 54.5939ZM66.3689 48.6912L59.5856 54.594L60.8985 56.1027L67.6818 50.2L66.3689 48.6912ZM152.484 48.4456H67.0253V50.4456H152.484V48.4456ZM161.484 39.4456C161.484 44.4162 157.455 48.4456 152.484 48.4456V50.4456C158.559 50.4456 163.484 45.5207 163.484 39.4456H161.484ZM161.484 10V39.4456H163.484V10H161.484ZM152.484 1C157.455 1 161.484 5.02944 161.484 10H163.484C163.484 3.92487 158.559 -1 152.484 -1V1ZM10.5159 1H152.484V-1H10.5159V1Z" fill="#F28988" fill-opacity="0.5" mask="url(#path-1-inside-1)"/>
</svg>
