<svg width="375" height="579" viewBox="0 0 375 579" fill="none" xmlns="http://www.w3.org/2000/svg">
<path d="M137.867 19.0117L140.305 9.32031H142.473L138.781 22H137.023L133.941 12.3906L130.941 22H129.184L125.504 9.32031H127.66L130.156 18.8125L133.109 9.32031H134.855L137.867 19.0117ZM149.949 22.2344C148.23 22.2344 146.832 21.6719 145.754 20.5469C144.676 19.4141 144.137 17.9023 144.137 16.0117V15.6133C144.137 14.3555 144.375 13.2344 144.852 12.25C145.336 11.2578 146.008 10.4844 146.867 9.92969C147.734 9.36719 148.672 9.08594 149.68 9.08594C151.328 9.08594 152.609 9.62891 153.523 10.7148C154.438 11.8008 154.895 13.3555 154.895 15.3789V16.2812H146.305C146.336 17.5312 146.699 18.543 147.395 19.3164C148.098 20.082 148.988 20.4648 150.066 20.4648C150.832 20.4648 151.48 20.3086 152.012 19.9961C152.543 19.6836 153.008 19.2695 153.406 18.7539L154.73 19.7852C153.668 21.418 152.074 22.2344 149.949 22.2344ZM149.68 10.8672C148.805 10.8672 148.07 11.1875 147.477 11.8281C146.883 12.4609 146.516 13.3516 146.375 14.5H152.727V14.3359C152.664 13.2344 152.367 12.3828 151.836 11.7812C151.305 11.1719 150.586 10.8672 149.68 10.8672ZM159.77 22H157.602V4H159.77V22ZM168.336 20.4648C169.109 20.4648 169.785 20.2305 170.363 19.7617C170.941 19.293 171.262 18.707 171.324 18.0039H173.375C173.336 18.7305 173.086 19.4219 172.625 20.0781C172.164 20.7344 171.547 21.2578 170.773 21.6484C170.008 22.0391 169.195 22.2344 168.336 22.2344C166.609 22.2344 165.234 21.6602 164.211 20.5117C163.195 19.3555 162.688 17.7773 162.688 15.7773V15.4141C162.688 14.1797 162.914 13.082 163.367 12.1211C163.82 11.1602 164.469 10.4141 165.312 9.88281C166.164 9.35156 167.168 9.08594 168.324 9.08594C169.746 9.08594 170.926 9.51172 171.863 10.3633C172.809 11.2148 173.312 12.3203 173.375 13.6797H171.324C171.262 12.8594 170.949 12.1875 170.387 11.6641C169.832 11.1328 169.145 10.8672 168.324 10.8672C167.223 10.8672 166.367 11.2656 165.758 12.0625C165.156 12.8516 164.855 13.9961 164.855 15.4961V15.9062C164.855 17.3672 165.156 18.4922 165.758 19.2812C166.359 20.0703 167.219 20.4648 168.336 20.4648ZM175.238 15.543C175.238 14.3008 175.48 13.1836 175.965 12.1914C176.457 11.1992 177.137 10.4336 178.004 9.89453C178.879 9.35547 179.875 9.08594 180.992 9.08594C182.719 9.08594 184.113 9.68359 185.176 10.8789C186.246 12.0742 186.781 13.6641 186.781 15.6484V15.8008C186.781 17.0352 186.543 18.1445 186.066 19.1289C185.598 20.1055 184.922 20.8672 184.039 21.4141C183.164 21.9609 182.156 22.2344 181.016 22.2344C179.297 22.2344 177.902 21.6367 176.832 20.4414C175.77 19.2461 175.238 17.6641 175.238 15.6953V15.543ZM177.418 15.8008C177.418 17.207 177.742 18.3359 178.391 19.1875C179.047 20.0391 179.922 20.4648 181.016 20.4648C182.117 20.4648 182.992 20.0352 183.641 19.1758C184.289 18.3086 184.613 17.0977 184.613 15.543C184.613 14.1523 184.281 13.0273 183.617 12.168C182.961 11.3008 182.086 10.8672 180.992 10.8672C179.922 10.8672 179.059 11.293 178.402 12.1445C177.746 12.9961 177.418 14.2148 177.418 15.8008ZM191.539 9.32031L191.598 10.7266C192.527 9.63281 193.781 9.08594 195.359 9.08594C197.133 9.08594 198.34 9.76562 198.98 11.125C199.402 10.5156 199.949 10.0234 200.621 9.64844C201.301 9.27344 202.102 9.08594 203.023 9.08594C205.805 9.08594 207.219 10.5586 207.266 13.5039V22H205.098V13.6328C205.098 12.7266 204.891 12.0508 204.477 11.6055C204.062 11.1523 203.367 10.9258 202.391 10.9258C201.586 10.9258 200.918 11.168 200.387 11.6523C199.855 12.1289 199.547 12.7734 199.461 13.5859V22H197.281V13.6914C197.281 11.8477 196.379 10.9258 194.574 10.9258C193.152 10.9258 192.18 11.5312 191.656 12.7422V22H189.488V9.32031H191.539ZM215.809 22.2344C214.09 22.2344 212.691 21.6719 211.613 20.5469C210.535 19.4141 209.996 17.9023 209.996 16.0117V15.6133C209.996 14.3555 210.234 13.2344 210.711 12.25C211.195 11.2578 211.867 10.4844 212.727 9.92969C213.594 9.36719 214.531 9.08594 215.539 9.08594C217.188 9.08594 218.469 9.62891 219.383 10.7148C220.297 11.8008 220.754 13.3555 220.754 15.3789V16.2812H212.164C212.195 17.5312 212.559 18.543 213.254 19.3164C213.957 20.082 214.848 20.4648 215.926 20.4648C216.691 20.4648 217.34 20.3086 217.871 19.9961C218.402 19.6836 218.867 19.2695 219.266 18.7539L220.59 19.7852C219.527 21.418 217.934 22.2344 215.809 22.2344ZM215.539 10.8672C214.664 10.8672 213.93 11.1875 213.336 11.8281C212.742 12.4609 212.375 13.3516 212.234 14.5H218.586V14.3359C218.523 13.2344 218.227 12.3828 217.695 11.7812C217.164 11.1719 216.445 10.8672 215.539 10.8672ZM232.168 6.25V9.32031H234.535V10.9961H232.168V18.8594C232.168 19.3672 232.273 19.75 232.484 20.0078C232.695 20.2578 233.055 20.3828 233.562 20.3828C233.812 20.3828 234.156 20.3359 234.594 20.2422V22C234.023 22.1562 233.469 22.2344 232.93 22.2344C231.961 22.2344 231.23 21.9414 230.738 21.3555C230.246 20.7695 230 19.9375 230 18.8594V10.9961H227.691V9.32031H230V6.25H232.168ZM236.27 15.543C236.27 14.3008 236.512 13.1836 236.996 12.1914C237.488 11.1992 238.168 10.4336 239.035 9.89453C239.91 9.35547 240.906 9.08594 242.023 9.08594C243.75 9.08594 245.145 9.68359 246.207 10.8789C247.277 12.0742 247.812 13.6641 247.812 15.6484V15.8008C247.812 17.0352 247.574 18.1445 247.098 19.1289C246.629 20.1055 245.953 20.8672 245.07 21.4141C244.195 21.9609 243.188 22.2344 242.047 22.2344C240.328 22.2344 238.934 21.6367 237.863 20.4414C236.801 19.2461 236.27 17.6641 236.27 15.6953V15.543ZM238.449 15.8008C238.449 17.207 238.773 18.3359 239.422 19.1875C240.078 20.0391 240.953 20.4648 242.047 20.4648C243.148 20.4648 244.023 20.0352 244.672 19.1758C245.32 18.3086 245.645 17.0977 245.645 15.543C245.645 14.1523 245.312 13.0273 244.648 12.168C243.992 11.3008 243.117 10.8672 242.023 10.8672C240.953 10.8672 240.09 11.293 239.434 12.1445C238.777 12.9961 238.449 14.2148 238.449 15.8008Z" fill="black"/>
<path d="M137.861 57.2559C138.799 57.2559 139.561 56.998 140.146 56.4824C140.732 55.9668 141.037 55.2812 141.061 54.4258H145.824C145.812 55.7148 145.461 56.8984 144.77 57.9766C144.078 59.043 143.129 59.875 141.922 60.4727C140.727 61.0586 139.402 61.3516 137.949 61.3516C135.23 61.3516 133.086 60.4902 131.516 58.7676C129.945 57.0332 129.16 54.6426 129.16 51.5957V51.2617C129.16 48.332 129.939 45.9941 131.498 44.248C133.057 42.502 135.195 41.6289 137.914 41.6289C140.293 41.6289 142.197 42.3086 143.627 43.668C145.068 45.0156 145.801 46.8145 145.824 49.0645H141.061C141.037 48.0801 140.732 47.2832 140.146 46.6738C139.561 46.0527 138.787 45.7422 137.826 45.7422C136.643 45.7422 135.746 46.1758 135.137 47.043C134.539 47.8984 134.24 49.293 134.24 51.2266V51.7539C134.24 53.7109 134.539 55.1172 135.137 55.9727C135.734 56.8281 136.643 57.2559 137.861 57.2559ZM154.086 61H148.988V34H154.086V61ZM163.648 61H158.551V41.9805H163.648V61ZM158.252 37.0586C158.252 36.2969 158.504 35.6699 159.008 35.1777C159.523 34.6855 160.221 34.4395 161.1 34.4395C161.967 34.4395 162.658 34.6855 163.174 35.1777C163.689 35.6699 163.947 36.2969 163.947 37.0586C163.947 37.832 163.684 38.4648 163.156 38.957C162.641 39.4492 161.955 39.6953 161.1 39.6953C160.244 39.6953 159.553 39.4492 159.025 38.957C158.51 38.4648 158.252 37.832 158.252 37.0586ZM175.074 35.4062L181.648 53.9688L188.188 35.4062H195.113V61H189.822V54.0039L190.35 41.9277L183.441 61H179.82L172.93 41.9453L173.457 54.0039V61H168.184V35.4062H175.074ZM214.484 55.7266H205.238L203.48 61H197.873L207.4 35.4062H212.287L221.867 61H216.26L214.484 55.7266ZM206.662 51.4551H213.061L209.844 41.875L206.662 51.4551ZM229.531 51.9824V61H224.258V35.4062H234.242C236.164 35.4062 237.852 35.7578 239.305 36.4609C240.77 37.1641 241.895 38.166 242.68 39.4668C243.465 40.7559 243.857 42.2266 243.857 43.8789C243.857 46.3867 242.996 48.3672 241.273 49.8203C239.562 51.2617 237.189 51.9824 234.154 51.9824H229.531ZM229.531 47.7109H234.242C235.637 47.7109 236.697 47.3828 237.424 46.7266C238.162 46.0703 238.531 45.1328 238.531 43.9141C238.531 42.6602 238.162 41.6465 237.424 40.873C236.686 40.0996 235.666 39.7012 234.365 39.6777H229.531V47.7109Z" fill="black"/>
<rect x="55" y="525" width="264" height="54" rx="27" fill="black"/>
<path d="M145.98 556.128C146.449 556.128 146.83 555.999 147.123 555.741C147.416 555.483 147.568 555.141 147.58 554.713H149.962C149.956 555.357 149.78 555.949 149.435 556.488C149.089 557.021 148.614 557.438 148.011 557.736C147.413 558.029 146.751 558.176 146.024 558.176C144.665 558.176 143.593 557.745 142.808 556.884C142.022 556.017 141.63 554.821 141.63 553.298V553.131C141.63 551.666 142.02 550.497 142.799 549.624C143.578 548.751 144.647 548.314 146.007 548.314C147.196 548.314 148.148 548.654 148.863 549.334C149.584 550.008 149.95 550.907 149.962 552.032H147.58C147.568 551.54 147.416 551.142 147.123 550.837C146.83 550.526 146.443 550.371 145.963 550.371C145.371 550.371 144.923 550.588 144.618 551.021C144.319 551.449 144.17 552.146 144.17 553.113V553.377C144.17 554.355 144.319 555.059 144.618 555.486C144.917 555.914 145.371 556.128 145.98 556.128ZM151.017 553.157C151.017 552.214 151.198 551.373 151.562 550.635C151.925 549.896 152.446 549.325 153.126 548.921C153.812 548.517 154.605 548.314 155.508 548.314C156.791 548.314 157.837 548.707 158.646 549.492C159.46 550.277 159.914 551.344 160.008 552.691L160.025 553.342C160.025 554.801 159.618 555.973 158.804 556.857C157.989 557.736 156.896 558.176 155.525 558.176C154.154 558.176 153.059 557.736 152.238 556.857C151.424 555.979 151.017 554.783 151.017 553.271V553.157ZM153.557 553.342C153.557 554.244 153.727 554.936 154.066 555.416C154.406 555.891 154.893 556.128 155.525 556.128C156.141 556.128 156.621 555.894 156.967 555.425C157.312 554.95 157.485 554.194 157.485 553.157C157.485 552.272 157.312 551.587 156.967 551.101C156.621 550.614 156.135 550.371 155.508 550.371C154.887 550.371 154.406 550.614 154.066 551.101C153.727 551.581 153.557 552.328 153.557 553.342ZM163.928 548.49L164.007 549.589C164.687 548.739 165.598 548.314 166.74 548.314C167.748 548.314 168.498 548.61 168.99 549.202C169.482 549.794 169.734 550.679 169.746 551.856V558H167.206V551.918C167.206 551.379 167.089 550.989 166.854 550.749C166.62 550.503 166.23 550.38 165.686 550.38C164.971 550.38 164.435 550.685 164.077 551.294V558H161.537V548.49H163.928ZM174.721 546.152V548.49H176.347V550.354H174.721V555.1C174.721 555.451 174.788 555.703 174.923 555.855C175.058 556.008 175.315 556.084 175.696 556.084C175.978 556.084 176.227 556.063 176.443 556.022V557.947C175.945 558.1 175.433 558.176 174.905 558.176C173.124 558.176 172.216 557.276 172.181 555.478V550.354H170.792V548.49H172.181V546.152H174.721ZM180.442 558H177.894V548.49H180.442V558ZM177.744 546.029C177.744 545.648 177.87 545.335 178.122 545.089C178.38 544.843 178.729 544.72 179.168 544.72C179.602 544.72 179.947 544.843 180.205 545.089C180.463 545.335 180.592 545.648 180.592 546.029C180.592 546.416 180.46 546.732 180.196 546.979C179.938 547.225 179.596 547.348 179.168 547.348C178.74 547.348 178.395 547.225 178.131 546.979C177.873 546.732 177.744 546.416 177.744 546.029ZM184.881 548.49L184.96 549.589C185.64 548.739 186.551 548.314 187.693 548.314C188.701 548.314 189.451 548.61 189.943 549.202C190.436 549.794 190.688 550.679 190.699 551.856V558H188.159V551.918C188.159 551.379 188.042 550.989 187.808 550.749C187.573 550.503 187.184 550.38 186.639 550.38C185.924 550.38 185.388 550.685 185.03 551.294V558H182.49V548.49H184.881ZM198.328 557.033C197.701 557.795 196.834 558.176 195.727 558.176C194.707 558.176 193.928 557.883 193.389 557.297C192.855 556.711 192.583 555.853 192.571 554.722V548.49H195.111V554.634C195.111 555.624 195.562 556.119 196.465 556.119C197.326 556.119 197.918 555.82 198.24 555.223V548.49H200.789V558H198.398L198.328 557.033ZM207.082 558.176C205.688 558.176 204.551 557.748 203.672 556.893C202.799 556.037 202.362 554.897 202.362 553.474V553.228C202.362 552.272 202.547 551.42 202.916 550.67C203.285 549.914 203.807 549.334 204.48 548.93C205.16 548.52 205.934 548.314 206.801 548.314C208.102 548.314 209.124 548.725 209.868 549.545C210.618 550.365 210.993 551.528 210.993 553.034V554.071H204.938C205.02 554.692 205.266 555.19 205.676 555.565C206.092 555.94 206.616 556.128 207.249 556.128C208.228 556.128 208.992 555.773 209.543 555.064L210.791 556.462C210.41 557.001 209.895 557.423 209.244 557.728C208.594 558.026 207.873 558.176 207.082 558.176ZM206.792 550.371C206.288 550.371 205.878 550.541 205.562 550.881C205.251 551.221 205.052 551.707 204.964 552.34H208.497V552.138C208.485 551.575 208.333 551.142 208.04 550.837C207.747 550.526 207.331 550.371 206.792 550.371ZM227.416 554.22C227.656 553.584 227.95 553.038 228.298 552.582H218.65V551.106H228.298C227.962 550.65 227.674 550.104 227.434 549.468H228.802C229.546 550.344 230.362 551.01 231.25 551.466V552.24C230.362 552.672 229.546 553.332 228.802 554.22H227.416Z" fill="#F3EAE4"/>
<path d="M55.041 497.478C55.041 497.038 54.874 496.698 54.54 496.458C54.2119 496.212 53.6348 496.001 52.8086 495.825C51.9883 495.649 51.335 495.438 50.8486 495.192C50.3682 494.946 50.0107 494.653 49.7764 494.313C49.5479 493.974 49.4336 493.569 49.4336 493.101C49.4336 492.321 49.7617 491.662 50.418 491.123C51.0801 490.584 51.9238 490.314 52.9492 490.314C54.0273 490.314 54.9004 490.593 55.5684 491.149C56.2422 491.706 56.5791 492.418 56.5791 493.285H54.9443C54.9443 492.84 54.7539 492.456 54.373 492.134C53.998 491.812 53.5234 491.65 52.9492 491.65C52.3574 491.65 51.8945 491.779 51.5605 492.037C51.2266 492.295 51.0596 492.632 51.0596 493.048C51.0596 493.44 51.2148 493.736 51.5254 493.936C51.8359 494.135 52.3955 494.325 53.2041 494.507C54.0186 494.688 54.6777 494.905 55.1816 495.157C55.6855 495.409 56.0576 495.714 56.2979 496.071C56.5439 496.423 56.667 496.854 56.667 497.363C56.667 498.213 56.3271 498.896 55.6475 499.411C54.9678 499.921 54.0859 500.176 53.002 500.176C52.2402 500.176 51.5664 500.041 50.9805 499.771C50.3945 499.502 49.9346 499.127 49.6006 498.646C49.2725 498.16 49.1084 497.636 49.1084 497.073H50.7344C50.7637 497.618 50.9805 498.052 51.3848 498.374C51.7949 498.69 52.334 498.849 53.002 498.849C53.6172 498.849 54.1094 498.726 54.4785 498.479C54.8535 498.228 55.041 497.894 55.041 497.478ZM64.6562 500C64.5625 499.812 64.4863 499.479 64.4277 498.998C63.6719 499.783 62.7695 500.176 61.7207 500.176C60.7832 500.176 60.0127 499.912 59.4092 499.385C58.8115 498.852 58.5127 498.178 58.5127 497.363C58.5127 496.373 58.8877 495.605 59.6377 495.061C60.3936 494.51 61.4541 494.234 62.8193 494.234H64.4014V493.487C64.4014 492.919 64.2314 492.468 63.8916 492.134C63.5518 491.794 63.0508 491.624 62.3887 491.624C61.8086 491.624 61.3223 491.771 60.9297 492.063C60.5371 492.356 60.3408 492.711 60.3408 493.127H58.7061C58.7061 492.652 58.873 492.195 59.207 491.756C59.5469 491.311 60.0039 490.959 60.5781 490.701C61.1582 490.443 61.7939 490.314 62.4854 490.314C63.5811 490.314 64.4395 490.59 65.0605 491.141C65.6816 491.686 66.0039 492.438 66.0273 493.399V497.776C66.0273 498.649 66.1387 499.344 66.3613 499.859V500H64.6562ZM61.958 498.761C62.4678 498.761 62.9512 498.629 63.4082 498.365C63.8652 498.102 64.1963 497.759 64.4014 497.337V495.386H63.127C61.1348 495.386 60.1387 495.969 60.1387 497.135C60.1387 497.645 60.3086 498.043 60.6484 498.33C60.9883 498.617 61.4248 498.761 61.958 498.761ZM71.5732 497.794L73.9287 490.49H75.5898L72.1797 500H70.9404L67.4951 490.49H69.1562L71.5732 497.794ZM78.9209 500H77.2949V490.49H78.9209V500ZM77.1631 487.968C77.1631 487.704 77.2422 487.481 77.4004 487.3C77.5645 487.118 77.8047 487.027 78.1211 487.027C78.4375 487.027 78.6777 487.118 78.8418 487.3C79.0059 487.481 79.0879 487.704 79.0879 487.968C79.0879 488.231 79.0059 488.451 78.8418 488.627C78.6777 488.803 78.4375 488.891 78.1211 488.891C77.8047 488.891 77.5645 488.803 77.4004 488.627C77.2422 488.451 77.1631 488.231 77.1631 487.968ZM83.0693 490.49L83.1221 491.686C83.8486 490.771 84.7979 490.314 85.9697 490.314C87.9795 490.314 88.9932 491.448 89.0107 493.716V500H87.3848V493.707C87.3789 493.021 87.2207 492.515 86.9102 492.187C86.6055 491.858 86.1279 491.694 85.4775 491.694C84.9502 491.694 84.4873 491.835 84.0889 492.116C83.6904 492.397 83.3799 492.767 83.1572 493.224V500H81.5312V490.49H83.0693ZM91.0762 495.166C91.0762 493.684 91.4189 492.506 92.1045 491.633C92.79 490.754 93.6982 490.314 94.8291 490.314C95.9893 490.314 96.8945 490.725 97.5449 491.545L97.624 490.49H99.1094V499.771C99.1094 501.002 98.7432 501.972 98.0107 502.681C97.2842 503.39 96.3057 503.744 95.0752 503.744C94.3896 503.744 93.7188 503.598 93.0625 503.305C92.4062 503.012 91.9053 502.61 91.5596 502.101L92.4033 501.125C93.1006 501.986 93.9531 502.417 94.9609 502.417C95.752 502.417 96.3672 502.194 96.8066 501.749C97.252 501.304 97.4746 500.677 97.4746 499.868V499.051C96.8242 499.801 95.9365 500.176 94.8115 500.176C93.6982 500.176 92.7959 499.728 92.1045 498.831C91.4189 497.935 91.0762 496.713 91.0762 495.166ZM92.7109 495.351C92.7109 496.423 92.9307 497.267 93.3701 497.882C93.8096 498.491 94.4248 498.796 95.2158 498.796C96.2412 498.796 96.9941 498.33 97.4746 497.398V493.057C96.9766 492.148 96.2295 491.694 95.2334 491.694C94.4424 491.694 93.8242 492.002 93.3789 492.617C92.9336 493.232 92.7109 494.144 92.7109 495.351ZM108.241 488.188V490.49H110.017V491.747H108.241V497.645C108.241 498.025 108.32 498.312 108.479 498.506C108.637 498.693 108.906 498.787 109.287 498.787C109.475 498.787 109.732 498.752 110.061 498.682V500C109.633 500.117 109.217 500.176 108.812 500.176C108.086 500.176 107.538 499.956 107.169 499.517C106.8 499.077 106.615 498.453 106.615 497.645V491.747H104.884V490.49H106.615V488.188H108.241ZM113.55 491.642C114.271 490.757 115.208 490.314 116.362 490.314C118.372 490.314 119.386 491.448 119.403 493.716V500H117.777V493.707C117.771 493.021 117.613 492.515 117.303 492.187C116.998 491.858 116.521 491.694 115.87 491.694C115.343 491.694 114.88 491.835 114.481 492.116C114.083 492.397 113.772 492.767 113.55 493.224V500H111.924V486.5H113.55V491.642ZM125.784 500.176C124.495 500.176 123.446 499.754 122.638 498.91C121.829 498.061 121.425 496.927 121.425 495.509V495.21C121.425 494.267 121.604 493.426 121.961 492.688C122.324 491.943 122.828 491.363 123.473 490.947C124.123 490.525 124.826 490.314 125.582 490.314C126.818 490.314 127.779 490.722 128.465 491.536C129.15 492.351 129.493 493.517 129.493 495.034V495.711H123.051C123.074 496.648 123.347 497.407 123.868 497.987C124.396 498.562 125.063 498.849 125.872 498.849C126.446 498.849 126.933 498.731 127.331 498.497C127.729 498.263 128.078 497.952 128.377 497.565L129.37 498.339C128.573 499.563 127.378 500.176 125.784 500.176ZM125.582 491.65C124.926 491.65 124.375 491.891 123.93 492.371C123.484 492.846 123.209 493.514 123.104 494.375H127.867V494.252C127.82 493.426 127.598 492.787 127.199 492.336C126.801 491.879 126.262 491.65 125.582 491.65ZM143.881 495.351C143.881 496.798 143.55 497.964 142.888 498.849C142.226 499.733 141.329 500.176 140.198 500.176C139.044 500.176 138.136 499.81 137.474 499.077V503.656H135.848V490.49H137.333L137.412 491.545C138.074 490.725 138.994 490.314 140.172 490.314C141.314 490.314 142.217 490.745 142.879 491.606C143.547 492.468 143.881 493.666 143.881 495.201V495.351ZM142.255 495.166C142.255 494.094 142.026 493.247 141.569 492.626C141.112 492.005 140.485 491.694 139.688 491.694C138.704 491.694 137.966 492.131 137.474 493.004V497.548C137.96 498.415 138.704 498.849 139.706 498.849C140.485 498.849 141.104 498.541 141.561 497.926C142.023 497.305 142.255 496.385 142.255 495.166ZM147.722 500H146.096V486.5H147.722V500ZM156.203 500C156.109 499.812 156.033 499.479 155.975 498.998C155.219 499.783 154.316 500.176 153.268 500.176C152.33 500.176 151.56 499.912 150.956 499.385C150.358 498.852 150.06 498.178 150.06 497.363C150.06 496.373 150.435 495.605 151.185 495.061C151.94 494.51 153.001 494.234 154.366 494.234H155.948V493.487C155.948 492.919 155.778 492.468 155.438 492.134C155.099 491.794 154.598 491.624 153.936 491.624C153.355 491.624 152.869 491.771 152.477 492.063C152.084 492.356 151.888 492.711 151.888 493.127H150.253C150.253 492.652 150.42 492.195 150.754 491.756C151.094 491.311 151.551 490.959 152.125 490.701C152.705 490.443 153.341 490.314 154.032 490.314C155.128 490.314 155.986 490.59 156.607 491.141C157.229 491.686 157.551 492.438 157.574 493.399V497.776C157.574 498.649 157.686 499.344 157.908 499.859V500H156.203ZM153.505 498.761C154.015 498.761 154.498 498.629 154.955 498.365C155.412 498.102 155.743 497.759 155.948 497.337V495.386H154.674C152.682 495.386 151.686 495.969 151.686 497.135C151.686 497.645 151.855 498.043 152.195 498.33C152.535 498.617 152.972 498.761 153.505 498.761ZM161.661 490.49L161.714 491.686C162.44 490.771 163.39 490.314 164.562 490.314C166.571 490.314 167.585 491.448 167.603 493.716V500H165.977V493.707C165.971 493.021 165.812 492.515 165.502 492.187C165.197 491.858 164.72 491.694 164.069 491.694C163.542 491.694 163.079 491.835 162.681 492.116C162.282 492.397 161.972 492.767 161.749 493.224V500H160.123V490.49H161.661ZM174.001 500.176C172.712 500.176 171.663 499.754 170.854 498.91C170.046 498.061 169.642 496.927 169.642 495.509V495.21C169.642 494.267 169.82 493.426 170.178 492.688C170.541 491.943 171.045 491.363 171.689 490.947C172.34 490.525 173.043 490.314 173.799 490.314C175.035 490.314 175.996 490.722 176.682 491.536C177.367 492.351 177.71 493.517 177.71 495.034V495.711H171.268C171.291 496.648 171.563 497.407 172.085 497.987C172.612 498.562 173.28 498.849 174.089 498.849C174.663 498.849 175.149 498.731 175.548 498.497C175.946 498.263 176.295 497.952 176.594 497.565L177.587 498.339C176.79 499.563 175.595 500.176 174.001 500.176ZM173.799 491.65C173.143 491.65 172.592 491.891 172.146 492.371C171.701 492.846 171.426 493.514 171.32 494.375H176.084V494.252C176.037 493.426 175.814 492.787 175.416 492.336C175.018 491.879 174.479 491.65 173.799 491.65ZM181.806 488.188V490.49H183.581V491.747H181.806V497.645C181.806 498.025 181.885 498.312 182.043 498.506C182.201 498.693 182.471 498.787 182.852 498.787C183.039 498.787 183.297 498.752 183.625 498.682V500C183.197 500.117 182.781 500.176 182.377 500.176C181.65 500.176 181.103 499.956 180.733 499.517C180.364 499.077 180.18 498.453 180.18 497.645V491.747H178.448V490.49H180.18V488.188H181.806ZM189.522 495.157C189.522 494.226 189.704 493.388 190.067 492.644C190.437 491.899 190.946 491.325 191.597 490.921C192.253 490.517 193 490.314 193.838 490.314C195.133 490.314 196.179 490.763 196.976 491.659C197.778 492.556 198.18 493.748 198.18 495.236V495.351C198.18 496.276 198.001 497.108 197.644 497.847C197.292 498.579 196.785 499.15 196.123 499.561C195.467 499.971 194.711 500.176 193.855 500.176C192.566 500.176 191.521 499.728 190.718 498.831C189.921 497.935 189.522 496.748 189.522 495.271V495.157ZM191.157 495.351C191.157 496.405 191.4 497.252 191.887 497.891C192.379 498.529 193.035 498.849 193.855 498.849C194.682 498.849 195.338 498.526 195.824 497.882C196.311 497.231 196.554 496.323 196.554 495.157C196.554 494.114 196.305 493.271 195.807 492.626C195.314 491.976 194.658 491.65 193.838 491.65C193.035 491.65 192.388 491.97 191.896 492.608C191.403 493.247 191.157 494.161 191.157 495.351ZM201.757 490.49L201.81 491.686C202.536 490.771 203.485 490.314 204.657 490.314C206.667 490.314 207.681 491.448 207.698 493.716V500H206.072V493.707C206.066 493.021 205.908 492.515 205.598 492.187C205.293 491.858 204.815 491.694 204.165 491.694C203.638 491.694 203.175 491.835 202.776 492.116C202.378 492.397 202.067 492.767 201.845 493.224V500H200.219V490.49H201.757ZM214.097 500.176C212.808 500.176 211.759 499.754 210.95 498.91C210.142 498.061 209.737 496.927 209.737 495.509V495.21C209.737 494.267 209.916 493.426 210.273 492.688C210.637 491.943 211.141 491.363 211.785 490.947C212.436 490.525 213.139 490.314 213.895 490.314C215.131 490.314 216.092 490.722 216.777 491.536C217.463 492.351 217.806 493.517 217.806 495.034V495.711H211.363C211.387 496.648 211.659 497.407 212.181 497.987C212.708 498.562 213.376 498.849 214.185 498.849C214.759 498.849 215.245 498.731 215.644 498.497C216.042 498.263 216.391 497.952 216.689 497.565L217.683 498.339C216.886 499.563 215.69 500.176 214.097 500.176ZM213.895 491.65C213.238 491.65 212.688 491.891 212.242 492.371C211.797 492.846 211.521 493.514 211.416 494.375H216.18V494.252C216.133 493.426 215.91 492.787 215.512 492.336C215.113 491.879 214.574 491.65 213.895 491.65ZM223.765 495.166C223.765 493.707 224.11 492.535 224.802 491.65C225.493 490.76 226.398 490.314 227.518 490.314C228.631 490.314 229.513 490.695 230.163 491.457V486.5H231.789V500H230.295L230.216 498.98C229.565 499.777 228.66 500.176 227.5 500.176C226.398 500.176 225.499 499.725 224.802 498.822C224.11 497.92 223.765 496.742 223.765 495.289V495.166ZM225.391 495.351C225.391 496.429 225.613 497.272 226.059 497.882C226.504 498.491 227.119 498.796 227.904 498.796C228.936 498.796 229.688 498.333 230.163 497.407V493.039C229.677 492.143 228.93 491.694 227.922 491.694C227.125 491.694 226.504 492.002 226.059 492.617C225.613 493.232 225.391 494.144 225.391 495.351ZM240.191 500C240.098 499.812 240.021 499.479 239.963 498.998C239.207 499.783 238.305 500.176 237.256 500.176C236.318 500.176 235.548 499.912 234.944 499.385C234.347 498.852 234.048 498.178 234.048 497.363C234.048 496.373 234.423 495.605 235.173 495.061C235.929 494.51 236.989 494.234 238.354 494.234H239.937V493.487C239.937 492.919 239.767 492.468 239.427 492.134C239.087 491.794 238.586 491.624 237.924 491.624C237.344 491.624 236.857 491.771 236.465 492.063C236.072 492.356 235.876 492.711 235.876 493.127H234.241C234.241 492.652 234.408 492.195 234.742 491.756C235.082 491.311 235.539 490.959 236.113 490.701C236.693 490.443 237.329 490.314 238.021 490.314C239.116 490.314 239.975 490.59 240.596 491.141C241.217 491.686 241.539 492.438 241.562 493.399V497.776C241.562 498.649 241.674 499.344 241.896 499.859V500H240.191ZM237.493 498.761C238.003 498.761 238.486 498.629 238.943 498.365C239.4 498.102 239.731 497.759 239.937 497.337V495.386H238.662C236.67 495.386 235.674 495.969 235.674 497.135C235.674 497.645 235.844 498.043 236.184 498.33C236.523 498.617 236.96 498.761 237.493 498.761ZM247.082 497.618L249.297 490.49H251.037L247.214 501.468C246.622 503.05 245.682 503.841 244.393 503.841L244.085 503.814L243.479 503.7V502.382L243.918 502.417C244.469 502.417 244.896 502.306 245.201 502.083C245.512 501.86 245.767 501.453 245.966 500.861L246.326 499.895L242.934 490.49H244.709L247.082 497.618ZM262.832 500C262.738 499.812 262.662 499.479 262.604 498.998C261.848 499.783 260.945 500.176 259.896 500.176C258.959 500.176 258.188 499.912 257.585 499.385C256.987 498.852 256.688 498.178 256.688 497.363C256.688 496.373 257.063 495.605 257.813 495.061C258.569 494.51 259.63 494.234 260.995 494.234H262.577V493.487C262.577 492.919 262.407 492.468 262.067 492.134C261.728 491.794 261.227 491.624 260.564 491.624C259.984 491.624 259.498 491.771 259.105 492.063C258.713 492.356 258.517 492.711 258.517 493.127H256.882C256.882 492.652 257.049 492.195 257.383 491.756C257.723 491.311 258.18 490.959 258.754 490.701C259.334 490.443 259.97 490.314 260.661 490.314C261.757 490.314 262.615 490.59 263.236 491.141C263.857 491.686 264.18 492.438 264.203 493.399V497.776C264.203 498.649 264.314 499.344 264.537 499.859V500H262.832ZM260.134 498.761C260.644 498.761 261.127 498.629 261.584 498.365C262.041 498.102 262.372 497.759 262.577 497.337V495.386H261.303C259.311 495.386 258.314 495.969 258.314 497.135C258.314 497.645 258.484 498.043 258.824 498.33C259.164 498.617 259.601 498.761 260.134 498.761ZM268.958 488.188V490.49H270.733V491.747H268.958V497.645C268.958 498.025 269.037 498.312 269.195 498.506C269.354 498.693 269.623 498.787 270.004 498.787C270.191 498.787 270.449 498.752 270.777 498.682V500C270.35 500.117 269.934 500.176 269.529 500.176C268.803 500.176 268.255 499.956 267.886 499.517C267.517 499.077 267.332 498.453 267.332 497.645V491.747H265.601V490.49H267.332V488.188H268.958ZM282.977 500C282.883 499.812 282.807 499.479 282.748 498.998C281.992 499.783 281.09 500.176 280.041 500.176C279.104 500.176 278.333 499.912 277.729 499.385C277.132 498.852 276.833 498.178 276.833 497.363C276.833 496.373 277.208 495.605 277.958 495.061C278.714 494.51 279.774 494.234 281.14 494.234H282.722V493.487C282.722 492.919 282.552 492.468 282.212 492.134C281.872 491.794 281.371 491.624 280.709 491.624C280.129 491.624 279.643 491.771 279.25 492.063C278.857 492.356 278.661 492.711 278.661 493.127H277.026C277.026 492.652 277.193 492.195 277.527 491.756C277.867 491.311 278.324 490.959 278.898 490.701C279.479 490.443 280.114 490.314 280.806 490.314C281.901 490.314 282.76 490.59 283.381 491.141C284.002 491.686 284.324 492.438 284.348 493.399V497.776C284.348 498.649 284.459 499.344 284.682 499.859V500H282.977ZM280.278 498.761C280.788 498.761 281.271 498.629 281.729 498.365C282.186 498.102 282.517 497.759 282.722 497.337V495.386H281.447C279.455 495.386 278.459 495.969 278.459 497.135C278.459 497.645 278.629 498.043 278.969 498.33C279.309 498.617 279.745 498.761 280.278 498.761ZM293.567 488.188V490.49H295.343V491.747H293.567V497.645C293.567 498.025 293.646 498.312 293.805 498.506C293.963 498.693 294.232 498.787 294.613 498.787C294.801 498.787 295.059 498.752 295.387 498.682V500C294.959 500.117 294.543 500.176 294.139 500.176C293.412 500.176 292.864 499.956 292.495 499.517C292.126 499.077 291.941 498.453 291.941 497.645V491.747H290.21V490.49H291.941V488.188H293.567ZM299.017 500H297.391V490.49H299.017V500ZM297.259 487.968C297.259 487.704 297.338 487.481 297.496 487.3C297.66 487.118 297.9 487.027 298.217 487.027C298.533 487.027 298.773 487.118 298.938 487.3C299.102 487.481 299.184 487.704 299.184 487.968C299.184 488.231 299.102 488.451 298.938 488.627C298.773 488.803 298.533 488.891 298.217 488.891C297.9 488.891 297.66 488.803 297.496 488.627C297.338 488.451 297.259 488.231 297.259 487.968ZM303.156 490.49L303.2 491.545C303.897 490.725 304.838 490.314 306.021 490.314C307.352 490.314 308.257 490.824 308.737 491.844C309.054 491.387 309.464 491.018 309.968 490.736C310.478 490.455 311.078 490.314 311.77 490.314C313.855 490.314 314.916 491.419 314.951 493.628V500H313.325V493.725C313.325 493.045 313.17 492.538 312.859 492.204C312.549 491.864 312.027 491.694 311.295 491.694C310.691 491.694 310.19 491.876 309.792 492.239C309.394 492.597 309.162 493.08 309.098 493.689V500H307.463V493.769C307.463 492.386 306.786 491.694 305.433 491.694C304.366 491.694 303.637 492.148 303.244 493.057V500H301.618V490.49H303.156ZM321.358 500.176C320.069 500.176 319.021 499.754 318.212 498.91C317.403 498.061 316.999 496.927 316.999 495.509V495.21C316.999 494.267 317.178 493.426 317.535 492.688C317.898 491.943 318.402 491.363 319.047 490.947C319.697 490.525 320.4 490.314 321.156 490.314C322.393 490.314 323.354 490.722 324.039 491.536C324.725 492.351 325.067 493.517 325.067 495.034V495.711H318.625C318.648 496.648 318.921 497.407 319.442 497.987C319.97 498.562 320.638 498.849 321.446 498.849C322.021 498.849 322.507 498.731 322.905 498.497C323.304 498.263 323.652 497.952 323.951 497.565L324.944 498.339C324.147 499.563 322.952 500.176 321.358 500.176ZM321.156 491.65C320.5 491.65 319.949 491.891 319.504 492.371C319.059 492.846 318.783 493.514 318.678 494.375H323.441V494.252C323.395 493.426 323.172 492.787 322.773 492.336C322.375 491.879 321.836 491.65 321.156 491.65Z" fill="black"/>
<path d="M63.4925 296.034H93.395C100.865 296.034 106.895 291.118 106.895 285.065C106.895 279.44 101.709 274.839 95.0263 274.175C95.2036 273.438 95.2942 272.683 95.2963 271.925C95.2963 265.558 88.94 260.405 81.0988 260.405C79.003 260.397 76.924 260.779 74.9675 261.53C74.9675 261.406 74.9675 261.271 74.9675 261.148C74.9675 254.78 68.6113 249.628 60.77 249.628C54.9538 249.628 49.9588 252.463 47.765 256.524C46.2138 256.274 44.645 256.15 43.0738 256.153C30.5525 256.153 20.315 264.028 19.5275 274.063C12.1475 274.141 6.185 279.013 6.185 285.031C6.185 291.05 12.2487 296 19.685 296" fill="white"/>
<path d="M93.395 296.596H63.4925C63.3433 296.596 63.2002 296.537 63.0947 296.432C62.9893 296.326 62.93 296.183 62.93 296.034C62.93 295.885 62.9893 295.742 63.0947 295.636C63.2002 295.531 63.3433 295.471 63.4925 295.471H93.395C100.539 295.471 106.355 290.803 106.355 285.065C106.355 279.823 101.472 275.379 94.9925 274.738C94.9114 274.732 94.8326 274.708 94.7624 274.667C94.6921 274.626 94.6323 274.569 94.5875 274.501C94.5429 274.436 94.512 274.363 94.4965 274.285C94.4811 274.208 94.4814 274.128 94.4975 274.051C94.6652 273.362 94.752 272.656 94.7562 271.948C94.7562 265.906 88.6362 260.99 81.1212 260.99C79.0921 260.992 77.0813 261.374 75.1925 262.115C75.1058 262.149 75.0119 262.161 74.9194 262.149C74.8269 262.138 74.739 262.103 74.6637 262.048C74.5885 261.992 74.5278 261.919 74.4867 261.834C74.4455 261.75 74.4253 261.657 74.4275 261.564V261.384C74.4327 261.324 74.4327 261.264 74.4275 261.204C74.4275 255.163 68.3187 250.246 60.7925 250.246C55.3587 250.246 50.4537 252.834 48.2825 256.85C48.2276 256.954 48.1418 257.038 48.0369 257.09C47.932 257.142 47.8133 257.161 47.6975 257.143C46.1763 256.895 44.6375 256.771 43.0962 256.771C30.9687 256.771 20.8775 264.41 20.1125 274.164C20.1039 274.304 20.042 274.436 19.9396 274.532C19.8371 274.628 19.7018 274.682 19.5612 274.681C12.5075 274.76 6.77 279.429 6.77 285.088C6.77 290.746 12.5863 295.494 19.7413 295.494C19.8904 295.494 20.0335 295.553 20.139 295.659C20.2445 295.764 20.3038 295.907 20.3038 296.056C20.3038 296.205 20.2445 296.349 20.139 296.454C20.0335 296.56 19.8904 296.619 19.7413 296.619C11.9675 296.619 5.645 291.444 5.645 285.088C5.645 278.945 11.6075 273.838 19.0438 273.568C20.1688 263.443 30.5975 255.646 43.0962 255.646C44.5687 255.642 46.0393 255.751 47.495 255.973C49.9475 251.799 55.1112 249.121 60.7925 249.121C68.7687 249.121 75.2825 254.319 75.5525 260.776C77.3418 260.185 79.2143 259.885 81.0987 259.888C89.2325 259.888 95.8587 265.31 95.8587 271.97C95.8561 272.555 95.8034 273.138 95.7012 273.714C102.451 274.636 107.457 279.429 107.457 285.088C107.48 291.421 101.157 296.596 93.395 296.596Z" fill="#D1D3D4"/>
<path d="M188.457 363.196C253.044 363.196 305.401 310.839 305.401 246.253C305.401 181.666 253.044 129.309 188.457 129.309C123.871 129.309 71.5137 181.666 71.5137 246.253C71.5137 310.839 123.871 363.196 188.457 363.196Z" fill="white"/>
<path d="M188.458 129.331C211.6 129.32 234.227 136.173 253.475 149.022C272.722 161.871 287.727 180.14 296.591 201.518C305.456 222.896 307.781 246.423 303.272 269.122C298.764 291.822 287.626 312.674 271.265 329.043C254.905 345.411 234.057 356.56 211.36 361.079C188.663 365.598 165.135 363.284 143.753 354.431C122.371 345.577 104.094 330.581 91.2357 311.339C78.3771 292.097 71.5138 269.474 71.5138 246.331C71.5138 215.301 83.8405 185.542 105.782 163.6C127.724 141.658 157.483 129.331 188.514 129.331H188.458ZM188.514 128.308C165.176 128.296 142.359 135.207 122.949 148.166C103.54 161.124 88.4095 179.548 79.4723 201.107C70.5351 222.665 68.1927 246.39 72.7413 269.281C77.2899 292.171 88.5252 313.198 105.026 329.702C121.527 346.206 142.552 357.445 165.441 361.998C188.33 366.551 212.056 364.213 233.616 355.28C255.177 346.347 273.604 331.22 286.566 311.813C299.528 292.406 306.443 269.59 306.436 246.253C306.398 214.974 293.955 184.989 271.838 162.872C249.721 140.755 219.736 128.312 188.458 128.274L188.514 128.308Z" fill="#231F20"/>
<path d="M276.151 168.875C275.293 169.205 274.355 169.263 273.462 169.044L275.026 167.581C272.911 165.253 270.684 163.014 268.389 160.831C268.451 161.694 268.724 162.528 269.186 163.26C269.647 163.992 270.281 164.599 271.033 165.028C268.558 165.174 266.634 163.7 264.474 163.048C261.896 162.417 259.286 161.928 256.655 161.585L260.536 164.364C259.801 164.644 259.049 164.88 258.286 165.073C257.566 163.509 256.621 164.78 255.777 164.735C253.865 164.623 251.772 166.861 250.321 164.544C249.638 164.629 248.964 164.776 248.308 164.983C246.511 165.549 244.797 166.351 243.211 167.368C241.456 168.785 240.905 168.943 239.544 166.861L241.333 166.243V165.511L237.699 164.735C237.555 165.593 237.502 166.464 237.541 167.334C237.696 167.885 237.943 168.406 238.273 168.875C237.202 168.968 236.139 169.13 235.089 169.359C234.088 169.712 233.107 170.121 232.153 170.585L233.03 172.396L228.181 171.609L228.125 172.081L229.993 173.296C227.203 174.129 225.493 172.678 225.493 169.831L223.119 168.56C223.967 168.485 224.822 168.588 225.628 168.864C228.249 169.449 230.904 170.101 233.503 168.785C234.83 168.11 234.763 167.154 233.503 166.535C231.947 165.683 230.312 164.985 228.62 164.454C225.661 163.61 222.635 163.025 219.62 162.328C219.766 162.103 219.935 161.821 220.115 161.551C218.724 161.154 217.307 160.853 215.874 160.651C215.004 160.772 214.162 161.046 213.388 161.461C213.635 160.944 213.781 160.606 214.13 159.864C212.713 160.528 211.576 161.563 210.755 161.371C208.876 160.944 207.38 162.406 205.501 162.024C204.376 161.81 202.936 163.453 202.126 163.97C201.235 164.077 200.357 164.273 199.505 164.555C198.706 165.061 197.953 165.637 197.255 166.276L200.225 165.556C198.886 167.221 197.446 169.179 195.826 170.968C194.701 172.205 193.509 173.803 192.058 174.196C190.076 174.792 188.257 175.831 186.736 177.234C186.447 177.549 186.226 177.921 186.087 178.325C185.947 178.73 185.893 179.158 185.926 179.585C186.121 180.829 186.465 182.045 186.95 183.208C187.217 183.839 187.715 184.345 188.342 184.623C188.969 184.9 189.678 184.929 190.325 184.704C191.45 184.13 192.958 182.724 193.7 183.05C194.746 183.534 195.253 185.221 195.95 186.425C196.096 186.673 196.22 186.931 196.344 187.179C197.008 188.563 196.929 191.814 199.516 188.461C201.609 188.911 201.62 187.201 201.766 186.031C201.771 185.459 201.922 184.898 202.203 184.4C202.484 183.902 202.888 183.484 203.375 183.185C203.677 183.081 203.94 182.889 204.134 182.636C204.327 182.382 204.441 182.076 204.461 181.758C204.482 181.44 204.408 181.122 204.249 180.846C204.089 180.569 203.852 180.346 203.566 180.204C201.958 179.079 201.778 177.954 203.161 176.503C203.904 175.715 205.018 175.288 205.827 174.545C206.638 173.803 207.076 172.813 207.886 172.171C208.807 171.375 209.878 170.771 211.036 170.394C211.7 170.214 212.577 170.833 213.545 171.148C211.632 172.655 210.17 173.769 208.786 174.905C207.999 175.535 207.065 179.405 207.785 179.799C209.109 180.598 210.598 181.082 212.139 181.216C213.489 181.295 214.873 180.541 216.256 180.35C216.945 180.374 217.625 180.511 218.27 180.755V181.61C217.055 181.723 215.851 181.824 214.648 181.948C213.692 181.997 212.742 182.11 211.801 182.285C210.508 182.566 210.339 183.41 211.239 184.254C212.364 185.379 212.049 186.11 211.081 186.965C208.64 184.974 208.1 185.176 207.526 188.259C207.459 188.973 207.459 189.693 207.526 190.408C206.536 190.835 205.276 191.825 204.702 191.533C202.149 190.306 200.45 192.579 198.189 192.748C197.503 190.97 196.22 192.061 195.05 192.084C194.262 191.987 193.527 191.635 192.958 191.083C192.643 190.813 192.429 189.845 192.631 189.631C193.122 189.118 193.447 188.469 193.563 187.769C193.679 187.068 193.582 186.349 193.284 185.705C190.201 187.393 190.224 187.393 190.944 190.543C191.057 191.188 191.099 191.845 191.068 192.5L186.5 194.323C185.038 195.774 183.991 196.82 182.934 197.844C182.563 198.215 182 198.451 181.809 198.879C181.634 199.301 181.376 199.684 181.05 200.003C180.723 200.323 180.335 200.573 179.909 200.738C179.483 200.903 179.028 200.98 178.571 200.964C178.115 200.948 177.666 200.84 177.253 200.645C177.331 201.275 177.41 201.883 177.489 202.558L173.439 202.378C174.602 203.853 175.869 205.244 177.23 206.54C178.85 208.396 177.523 210.376 177.23 212.266C173.855 212.536 170.413 210.961 167.105 212.953C168.973 216.755 165.845 220.704 168.095 224.428L170.345 224.158C170.908 224.9 171.403 225.553 171.673 225.924C175.048 225.125 178.423 224.641 179.401 221.694C179.401 220.569 179.143 219.714 179.401 219.286C180.189 218.161 181.246 217.318 182.124 216.305C182.72 215.619 183.699 214.831 183.665 214.134C183.553 211.94 184.869 212.064 186.073 212.548C186.584 212.825 187.174 212.92 187.746 212.818C188.318 212.715 188.839 212.422 189.223 211.985C189.984 211.38 190.789 210.831 191.63 210.343C192.204 211.074 192.755 211.861 193.408 212.593C194.399 213.925 195.53 215.147 196.783 216.238C199.033 217.846 201.62 219.028 200.675 222.616L202.25 220.456L201.519 217.891L204.05 219.016C203.971 218.6 204.05 218.308 203.893 218.24C202.396 217.25 201.496 215.473 199.55 215.045C198.97 214.79 198.482 214.362 198.155 213.819C197.581 213.065 197.21 212.154 196.614 211.423C195.118 209.611 195.388 208.644 197.435 208.048C197.612 208.51 197.847 208.948 198.133 209.353C198.358 209.6 199.055 209.578 199.111 209.791C199.651 211.828 201.361 212.435 202.959 213.38C203.926 213.976 205.209 215.124 205.209 216.024C205.209 220.141 208.156 222.661 209.596 225.924C210.231 225.001 210.788 224.026 211.261 223.01C211.424 222.358 211.352 221.669 211.059 221.064C210.569 220.138 210.017 219.247 209.405 218.398C210.339 218.454 211.194 218.758 211.52 218.476C213.118 217.036 213.073 216.991 214.456 217.79C214.344 219.298 214.243 220.569 214.164 221.694C214.783 222.616 215.289 224.023 216.144 224.439C217.269 224.945 218.18 226.88 220.093 225.193C220.689 224.664 222.703 225.733 224.064 226.059C224.135 226.06 224.206 226.04 224.266 226.003L227.731 224.416C227.011 227.589 226.449 230.109 225.875 232.629C225.504 234.249 224.885 235.464 222.849 235.52C222.061 235.52 221.296 236.386 220.903 236.645L224.075 240.02L222.5 241.19C222.568 241.404 222.635 241.606 222.714 241.809L225.762 240.886C226.179 241.629 226.764 242.551 227.248 243.53C228.069 245.184 228.845 246.905 229.588 248.559C230.184 249.92 230.712 251.304 231.264 252.699C231.646 253.711 231.804 254.814 232.276 255.77C232.881 256.86 233.557 257.909 234.301 258.909C236.394 261.946 236.338 265.535 236.945 268.955C237.159 270.159 237.676 270.609 238.79 270.08C240.797 269.151 242.75 268.111 244.64 266.964C246.631 265.659 248.307 263.881 250.355 262.678C252.255 261.719 253.927 260.365 255.26 258.706C255.609 258.211 255.879 257.66 256.205 257.143C256.48 256.585 256.812 256.057 257.195 255.568C259.546 252.98 259.062 250.696 255.924 249.155C255.289 248.762 254.814 248.156 254.585 247.445C254.389 246.535 254.288 245.608 254.281 244.678C253.393 245.619 252.598 246.644 251.908 247.738C251.007 249.526 249.567 248.435 248.375 248.671C248.251 247.929 248.139 247.175 247.993 246.421C247.903 245.938 247.79 245.454 247.542 244.385L246.721 246.331L243.121 238.636C245.045 236.488 245.45 236.533 246.8 239.143C246.992 239.507 247.161 239.882 247.306 240.268C247.552 240.993 247.952 241.656 248.479 242.212C249.005 242.768 249.646 243.204 250.356 243.489C251.067 243.775 251.831 243.903 252.596 243.865C253.361 243.828 254.108 243.625 254.788 243.271C255.789 245.758 255.991 246.073 258.837 246.253C261.684 246.433 264.665 246.253 267.264 246.253L272.034 251.675L270.673 252.238L273.811 254.96L275.431 252.991C276.162 256.94 276.781 261.519 277.918 265.985C278.903 270.512 280.339 274.929 282.204 279.17C284.922 275.993 286.287 271.878 286.006 267.706C285.843 266.678 285.975 265.624 286.389 264.669C287.401 263.173 289.055 262.115 290.022 260.608C291.519 258.268 294.522 257.075 295.04 254.015C295.107 253.621 295.951 253.239 296.502 253.104C298.021 252.71 299.585 252.44 301.182 252.114C301.376 253.291 301.756 254.431 302.307 255.489C303.252 256.735 304.041 258.091 304.659 259.528C306.513 243.264 304.934 226.792 300.023 211.177C295.113 195.561 286.98 181.15 276.151 168.875Z" fill="#F2B32A"/>
<path d="M114.061 336.478C114.417 335.738 114.646 334.943 114.736 334.126C114.883 332.146 115.535 330.819 117.178 330.065C119.101 329.188 121.149 328.603 123.129 327.815C123.591 327.692 124.003 327.428 124.31 327.061C125.326 325.449 126.131 323.714 126.706 321.898C127.158 319.368 127.451 316.813 127.584 314.248C127.577 313.965 127.635 313.684 127.752 313.426C128.765 312.11 129.935 310.895 130.835 309.5C131.735 308.105 133.243 306.283 133.333 304.606C133.392 304.117 133.35 303.621 133.21 303.149C133.07 302.677 132.834 302.239 132.518 301.861C132.202 301.484 131.811 301.175 131.371 300.954C130.93 300.734 130.449 300.606 129.958 300.579C129.617 300.481 129.325 300.26 129.136 299.96C126.886 296.878 123.511 297.564 120.35 297.508C120.631 296.18 119.956 295.753 118.572 295.438C115.355 294.695 112.779 293.188 111.822 289.554C110.844 285.718 108.954 284.649 104.949 284.424C103.747 284.178 102.626 283.636 101.686 282.849C100.92 282.223 100.219 281.522 99.5937 280.756C99.2882 280.347 98.9414 279.97 98.5588 279.631C97.4338 278.866 96.6575 277.224 95.1838 277.539C93.71 277.854 92.0563 278.27 90.4925 277.539C88.9288 276.808 87.6688 276.211 85.9925 275.413L84.4287 279.688C83.3037 278.011 84.4287 276.369 84.6987 274.625C81.5825 276.549 77.9487 277.64 77.2625 281.893L77.06 281.769C83.8838 303.18 96.7295 322.173 114.061 336.478Z" fill="#F28988"/>
<path d="M90.5938 208.205C94.52 209.105 97.445 207.08 100.584 205.606C100.877 205.464 101.132 205.254 101.327 204.994C101.523 204.734 101.654 204.431 101.709 204.11C101.66 203.73 101.536 203.364 101.342 203.033C101.149 202.703 100.891 202.415 100.584 202.186C99.7035 201.826 98.7746 201.599 97.8275 201.511C98.3 201.208 98.84 200.848 99.0538 200.724C97.4661 199.934 95.959 198.993 94.5538 197.911C93.8675 197.293 94.0925 195.785 93.5638 194.874C92.5974 193.32 91.5497 191.818 90.425 190.374C89.3675 191.848 89.0863 194.514 86.5213 193.873C85.7292 193.71 85.0335 193.241 84.5863 192.568C77.3704 206.516 73.0573 221.782 71.9075 237.444C72.3105 237.011 72.7681 236.633 73.2688 236.319C76.4638 234.485 76.6437 233.911 75.8337 230.221C75.7127 229.021 75.7127 227.811 75.8337 226.61C76.1712 227.859 76.4075 228.77 76.6438 229.693C77.4088 228.354 78.5 227.251 78.6012 226.07C78.7925 223.966 79.8387 223.494 81.6163 223.46C82.3199 223.381 83.0135 223.231 83.6863 223.01L83.09 222.74C83.2025 221.694 82.9325 220.096 83.495 219.725C85.7267 218.387 88.0371 217.185 90.4138 216.125L88.9063 219.376L89.435 219.5L96.77 215.585C96.6575 215.394 96.5563 215.203 96.4438 215.023L95.5325 215.54L96.0388 213.819C95.8779 213.823 95.7209 213.869 95.5829 213.952C95.4449 214.034 95.3307 214.151 95.2513 214.291C93.9238 216.26 93.215 216.418 91.235 215C89.7613 213.943 89.2213 212.75 90.7963 211.231C90.9425 211.096 90.56 210.028 90.3688 210.005C89.5427 209.917 88.7075 209.981 87.905 210.196C86.8346 210.566 85.7866 210.998 84.7663 211.49C86.375 209.915 88.0738 207.631 90.5938 208.205Z" fill="black"/>
<path d="M191.72 287.709C192.272 288.619 192.468 289.7 192.271 290.746C191.36 293.851 191.338 296.45 193.869 299.049C194.936 300.189 195.755 301.539 196.272 303.013C196.789 304.487 196.994 306.053 196.873 307.61C196.844 308.037 196.951 308.462 197.176 308.825C198.211 310.209 197.581 311.21 196.895 312.616C195.388 315.721 193.936 318.905 196.074 322.55C197.334 324.699 198.718 326.836 198.819 329.683C198.755 332.4 199.714 335.042 201.508 337.085C202.633 338.3 203.758 340.28 203.6 341.788C203.47 342.556 203.594 343.347 203.953 344.039C204.313 344.731 204.888 345.288 205.591 345.624C206.235 345.336 206.906 345.114 207.594 344.96C209.523 344.907 211.445 344.704 213.343 344.353C218.101 342.98 220.441 338.896 222.86 335.049C223.31 334.34 223.018 333.17 223.096 331.809C223.378 331.651 224.03 331.246 224.716 330.92C225.133 330.786 225.517 330.567 225.844 330.276C226.171 329.985 226.433 329.629 226.614 329.231C226.795 328.832 226.891 328.401 226.896 327.963C226.9 327.526 226.813 327.092 226.64 326.69C226.426 325.948 226.066 325.239 225.886 324.44C225.785 324.024 225.729 323.315 225.954 323.146C227.54 321.695 229.329 320.401 230.836 318.928C231.849 317.96 233.188 316.891 233.446 315.676C233.693 313.8 233.598 311.894 233.165 310.051C232.963 308.803 232.13 307.655 231.905 306.395C231.68 305.135 232.569 303.436 231.106 302.221C230.926 302.075 231.016 301.321 231.23 301.029C233.604 297.755 235.516 293.885 238.554 291.421C242.581 288.159 244.595 283.873 246.811 279.575C247.266 278.277 247.535 276.921 247.61 275.548C244.539 276.324 241.816 277.078 239.06 277.685C238.765 277.695 238.472 277.634 238.205 277.507C237.939 277.38 237.707 277.19 237.53 276.954C237.069 276.178 237.136 275.041 236.585 274.378C235.584 273.151 234.245 272.195 233.131 271.003C232.489 270.405 231.982 269.676 231.646 268.865C230.735 266.075 228.654 263.859 228.328 260.698C228.125 258.751 226.336 257.008 225.448 255.073C224.322 252.682 223.334 250.23 222.489 247.726C221.87 245.893 220.835 246.05 219.373 246.444C218.287 246.812 217.125 246.897 215.998 246.691C213.813 246.058 211.665 245.307 209.563 244.441C207.673 243.721 206.188 244.543 205.985 246.455C205.861 247.839 205.265 248.593 203.938 247.58C202.61 246.568 200.011 247.13 199.539 244.655C199.539 244.565 199.033 244.655 198.808 244.531C196.805 243.665 194.083 244.768 192.958 242.641C193.509 241.033 193.959 239.683 194.454 238.209C193.539 238.006 192.61 237.878 191.675 237.826C189.245 237.916 186.815 237.995 184.419 238.321C182.697 238.548 181.01 238.994 179.401 239.649C176.848 240.695 174.384 241.629 172.089 239.784C170.964 241.021 170.064 242.461 168.793 243.159C168.067 243.519 167.458 244.077 167.034 244.767C166.611 245.457 166.39 246.253 166.396 247.063C166.396 249.639 165.046 250.539 163.021 251.169C162.502 251.317 162.047 251.633 161.727 252.069C160.524 254.026 159.32 255.995 158.285 258.054C157.565 259.494 156.238 260.72 157.565 262.835C158.341 264.05 158.206 266.21 157.711 267.751C157.084 269.928 156.927 272.214 157.25 274.456C157.396 274.966 157.68 275.426 158.071 275.784C158.375 276.144 158.847 276.38 159.106 276.751C160.214 278.601 161.439 280.379 162.774 282.073C164.314 283.53 165.937 284.897 167.634 286.168C168.08 286.551 168.626 286.798 169.209 286.88C169.791 286.962 170.384 286.874 170.919 286.629C172.666 286.296 174.439 286.123 176.218 286.111C176.905 286.084 177.588 285.982 178.254 285.808C179.604 285.246 180.982 284.755 182.383 284.334C183.789 284.03 185.758 283.141 186.376 285.256C186.973 287.169 188.053 287.101 189.583 286.955C189.972 286.917 190.365 286.965 190.735 287.096C191.104 287.226 191.44 287.435 191.72 287.709Z" fill="black"/>
<path d="M103.25 166.186C103.645 166.05 104.022 165.869 104.375 165.646L107.75 168.043L103.362 167.413L103.261 168.065L107.457 169.64V171.71L102.519 174.331L104.825 176.154C104.709 176.763 104.709 177.389 104.825 177.999C106.411 181.261 108.031 184.513 109.752 187.696C110.239 188.511 110.929 189.186 111.755 189.654C112.945 190.272 114.169 190.82 115.423 191.296C116.368 191.713 117.245 192.185 117.526 190.543C117.807 188.9 118.224 187.449 118.595 185.908C118.662 185.626 118.764 185.233 118.977 185.131C120.71 184.231 121.025 182.769 121.014 180.969C121.014 180.384 122.026 179.248 122.488 179.293C125.863 179.608 128.034 177.875 129.868 175.333C130.374 174.624 131.229 173.758 131.971 173.701C136.471 173.431 140.195 171.451 144.166 169.201L138.822 168.639L140.262 166.906L144.504 168.684C144.819 166.434 144.031 165.444 142.4 164.803C140.577 164.094 140.397 163.115 141.342 161.844H146.236L144.875 160.156L148.014 159.706L146.63 158.266C149.071 156.601 145.865 155.769 146.056 154.509L149.105 154.318C148.542 153.474 148.239 152.461 147.609 152.18C146.614 151.946 145.589 151.87 144.571 151.955C147.395 147.736 152.188 146.33 156.586 144.283C155.406 143.646 154.103 143.273 152.765 143.187C151.427 143.102 150.086 143.307 148.835 143.788C146.564 144.411 144.252 144.873 141.916 145.171L143.041 143.45C142.141 143.551 141.241 143.664 140.33 143.743C139.835 143.743 139.329 143.743 138.822 143.743L138.755 142.876L144.256 141.954C142.389 141.448 140.6 140.739 138.8 140.379C125.432 146.668 113.371 155.424 103.25 166.186Z" fill="#135E46"/>
<path d="M88.355 185.75C88.13 186.121 87.9162 186.504 87.6912 186.875C88.1412 187.021 88.5913 187.179 89.0413 187.359L88.355 185.75Z" fill="black"/>
<path d="M94.745 176.413H94.6775C94.3287 176.874 93.9912 177.335 93.6537 177.808C94.025 177.324 94.385 176.863 94.745 176.413Z" fill="black"/>
<path d="M90.4025 185.12C90.5639 184.319 90.5174 183.49 90.2675 182.713C89.7837 183.466 89.3113 184.209 88.8388 184.963L90.4025 185.12Z" fill="black"/>
<path d="M237.519 325.284C236.776 326.881 236.99 329.953 238.272 331.044C238.562 331.305 238.912 331.49 239.29 331.583C239.669 331.677 240.064 331.675 240.442 331.578C240.82 331.481 241.167 331.292 241.454 331.028C241.741 330.764 241.958 330.433 242.086 330.065C243.301 326.038 244.336 321.976 245.461 317.926C245.551 317.623 245.461 317.229 245.675 316.993C246.165 316.252 246.37 315.359 246.25 314.479C246.129 313.599 245.693 312.793 245.022 312.211C242.671 313.966 242.424 317.836 238.194 317.645C238.194 319.018 238.284 320.289 238.194 321.549C238.179 322.823 237.951 324.085 237.519 325.284Z" fill="black"/>
<path d="M181.066 196.37C181.257 195.853 181.752 195.11 181.572 194.885C181.259 194.601 180.867 194.42 180.447 194.368C178.805 192.118 177.387 190.149 175.869 188.056C177.106 185.806 177.05 185.041 175.396 183.973C174.373 183.298 172.021 184.231 170.998 185.728C170.514 186.414 171.223 187.719 173.045 189.451L172.786 190.768C173.146 190.768 173.405 190.768 173.551 190.869C174.204 191.364 175.171 191.791 175.363 192.444C175.554 193.096 174.957 193.895 173.877 193.445C173.624 193.642 173.439 193.913 173.349 194.221C173.27 194.998 173.349 195.774 173.349 196.741L175.104 197.27L171.999 199.644L180.38 198.305C180.74 197.27 180.875 196.831 181.066 196.37Z" fill="black"/>
<path d="M252.56 154.194C250.982 155.899 249.29 157.497 247.498 158.975C249.748 161.146 252.583 161.439 256.07 161.304C255.114 160.629 254.315 160.325 253.955 159.74C253.595 159.155 253.303 158.019 253.606 157.625C255.169 155.76 257.114 154.253 259.31 153.204C258.568 152.641 257.825 152.079 257.06 151.539C255.313 151.916 253.735 152.848 252.56 154.194Z" fill="black"/>
<path d="M146.923 185.143C147.746 185.345 148.607 185.345 149.431 185.143C150.736 184.807 151.965 184.226 153.054 183.433C153.864 182.758 155.72 182.206 154.831 180.676C153.965 179.564 152.946 178.579 151.805 177.751L151.636 178.449L145.235 179.956L143.683 177.875L143.919 178.573L141.129 180.181L141.421 180.541H144.425L141.702 181.97L144.718 182.836L143.199 183.961C144.459 184.456 145.674 184.873 146.923 185.143Z" fill="black"/>
<path d="M201.777 149.829C203.15 148.704 204.275 147.759 205.49 146.926C205.712 146.815 205.956 146.758 206.204 146.758C206.452 146.758 206.697 146.815 206.919 146.926C207.267 147.163 207.346 147.804 207.594 148.389H211.689C211.689 148.13 211.689 147.871 211.768 147.624L200.27 143.034C200.754 144.159 200.934 144.508 200.967 144.598L194.127 144.001L193.97 144.71C194.832 145.54 195.833 146.21 196.929 146.69C197.93 146.949 199.179 146.431 200.304 146.251L200.371 146.78L197.772 147.714L197.862 148.074L199.91 148.265L198.526 148.974L201.777 149.829Z" fill="#F28988"/>
<path d="M171.369 192.523C172.347 191.938 172.494 191.094 171.526 190.621C170.559 190.149 169.445 189.283 168.331 190.621C167.724 191.308 167.004 191.881 166.171 192.658V196.033L165.496 196.359C165.867 196.663 166.317 197.27 166.621 197.203C168.152 196.837 169.635 196.298 171.042 195.594C171.391 195.391 171.132 194.098 171.177 193.344C171.155 192.973 171.211 192.624 171.369 192.523Z" fill="black"/>
<path d="M73.1 259.28C72.8127 259.142 72.5108 259.036 72.2 258.965L72.3688 260.439C73.2143 260.727 74.0377 261.077 74.8325 261.485C75.665 261.901 76.1825 262.948 77.0825 263.949L80.9413 263.51C78.095 261.98 75.6425 260.551 73.1 259.28Z" fill="black"/>
<path d="M88.3213 266.379C88.49 264.489 85.115 263.296 82.055 264.129L83.675 265.985L80.4913 265.704C83 267.448 85.7113 266.165 88.3213 266.379Z" fill="black"/>
<path d="M215.131 143.169H204.331C205.741 143.905 207.261 144.407 208.831 144.654C210.932 144.691 213.032 144.593 215.12 144.361C215.131 143.956 215.131 143.563 215.131 143.169Z" fill="black"/>
<path d="M287.041 284.401C287.649 284.165 288.47 283.006 288.313 282.579C287.715 281.237 286.996 279.953 286.164 278.743L285.534 279.035C285.534 280.329 285.534 281.623 285.534 282.905C285.534 284.188 285.871 284.863 287.041 284.401Z" fill="#135E46"/>
<path d="M192.035 216.643L190.64 217.216V220.828C193.036 220.704 191.945 218.769 192.429 217.734C192.541 217.498 192.193 217.081 192.035 216.643Z" fill="black"/>
<path d="M199.797 222.526H195.984L195.871 222.976L199.359 225.091C199.516 224.135 199.674 223.28 199.797 222.526Z" fill="black"/>
<path d="M186.208 265.794L182.225 257.75C177.995 249.2 173.821 240.628 169.524 232.111C167.874 229.066 166.997 225.663 166.97 222.2C167.04 217.536 168.801 213.055 171.926 209.591C175.05 206.127 179.325 203.915 183.958 203.365C188.59 202.815 193.265 203.965 197.113 206.602C200.961 209.238 203.722 213.182 204.882 217.7C206.058 222.178 205.541 226.933 203.431 231.054C199.884 238.209 196.336 245.36 192.789 252.508C190.704 256.7 188.626 260.896 186.556 265.096L186.208 265.794ZM186.208 232.044C188.114 232.05 189.979 231.491 191.567 230.437C193.155 229.383 194.394 227.882 195.128 226.122C195.863 224.363 196.058 222.426 195.69 220.556C195.323 218.686 194.408 216.967 193.063 215.616C191.717 214.266 190.001 213.346 188.132 212.971C186.263 212.597 184.325 212.786 182.564 213.514C180.802 214.241 179.296 215.476 178.237 217.06C177.177 218.645 176.611 220.508 176.611 222.414C176.602 224.966 177.604 227.418 179.399 229.233C181.193 231.048 183.633 232.079 186.185 232.1L186.208 232.044Z" fill="#231F20"/>
<path d="M293.375 228.388C292.171 225.935 291.001 223.595 289.842 221.244C286.096 213.661 282.384 206.068 278.592 198.519C277.137 195.813 276.365 192.793 276.342 189.721C276.406 185.582 277.97 181.607 280.744 178.535C283.519 175.463 287.315 173.503 291.426 173.02C295.538 172.538 299.684 173.565 303.095 175.91C306.506 178.256 308.949 181.761 309.969 185.773C311.018 189.741 310.561 193.956 308.686 197.608C305.536 203.953 302.39 210.294 299.248 216.631L293.713 227.791C293.6 227.96 293.51 228.129 293.375 228.388ZM293.375 198.508C295.065 198.512 296.718 198.015 298.125 197.079C299.532 196.144 300.63 194.812 301.28 193.252C301.93 191.692 302.102 189.975 301.775 188.317C301.448 186.659 300.637 185.135 299.443 183.939C298.25 182.743 296.729 181.927 295.072 181.596C293.415 181.264 291.697 181.432 290.135 182.078C288.574 182.723 287.239 183.818 286.299 185.223C285.36 186.627 284.859 188.279 284.859 189.969C284.865 192.228 285.763 194.393 287.358 195.992C288.953 197.592 291.116 198.496 293.375 198.508Z" fill="#231F20"/>
<path d="M123.624 162.474C122.611 160.426 121.632 158.458 120.665 156.489C117.515 150.133 114.41 143.765 111.215 137.431C109.991 135.166 109.338 132.637 109.314 130.063C109.373 126.596 110.688 123.269 113.015 120.699C115.341 118.128 118.521 116.489 121.964 116.085C125.407 115.681 128.88 116.54 131.739 118.502C134.597 120.464 136.646 123.397 137.506 126.755C138.371 130.088 137.97 133.623 136.381 136.678L128.506 152.619L123.882 161.956L123.624 162.474ZM123.624 137.431C125.043 137.436 126.431 137.019 127.612 136.234C128.794 135.448 129.716 134.33 130.262 133.02C130.807 131.711 130.952 130.269 130.677 128.877C130.402 127.485 129.72 126.206 128.718 125.202C127.715 124.198 126.437 123.514 125.046 123.237C123.654 122.96 122.212 123.102 120.901 123.645C119.591 124.189 118.471 125.109 117.684 126.29C116.897 127.47 116.478 128.857 116.48 130.276C116.489 132.167 117.242 133.979 118.577 135.318C119.913 136.657 121.722 137.417 123.613 137.431H123.624Z" fill="#231F20"/>
<path d="M109.302 297.89C108.279 295.843 107.311 293.874 106.333 291.905C103.194 285.549 100.089 279.181 96.8938 272.859C95.6654 270.591 95.0126 268.057 94.9925 265.479C95.0521 262.012 96.3671 258.685 98.6934 256.115C101.02 253.544 104.2 251.905 107.643 251.501C111.086 251.097 114.559 251.956 117.417 253.918C120.275 255.88 122.325 258.813 123.185 262.171C124.038 265.505 123.637 269.036 122.06 272.094L114.185 288.046C112.64 291.159 111.095 294.275 109.55 297.395C109.483 297.541 109.404 297.688 109.302 297.89ZM109.302 272.848C110.722 272.854 112.111 272.439 113.294 271.655C114.477 270.872 115.401 269.754 115.948 268.445C116.496 267.135 116.642 265.692 116.368 264.3C116.094 262.907 115.414 261.627 114.412 260.622C113.41 259.617 112.132 258.932 110.74 258.654C109.348 258.376 107.905 258.517 106.594 259.061C105.283 259.604 104.162 260.524 103.375 261.705C102.587 262.885 102.168 264.273 102.17 265.693C102.173 267.581 102.922 269.393 104.253 270.733C105.584 272.073 107.391 272.833 109.28 272.848H109.302Z" fill="#231F20"/>
<path d="M199.73 257.953H199.618C199.545 257.938 199.476 257.909 199.415 257.868C199.354 257.826 199.301 257.773 199.261 257.712C199.22 257.65 199.192 257.581 199.178 257.508C199.164 257.436 199.164 257.361 199.179 257.289C199.246 256.974 206.176 225.193 241.186 209.679C252.751 204.56 262.921 203.84 271.404 207.541C283.273 212.716 287.604 224.956 287.649 225.08C287.696 225.222 287.686 225.376 287.621 225.511C287.555 225.645 287.44 225.749 287.3 225.8C287.158 225.847 287.004 225.837 286.869 225.772C286.735 225.707 286.631 225.592 286.58 225.451C286.58 225.328 282.361 213.538 270.943 208.576C262.753 205.021 252.943 205.741 241.693 210.725C207.223 225.991 200.394 257.21 200.326 257.525C200.297 257.657 200.22 257.774 200.11 257.852C200 257.931 199.865 257.967 199.73 257.953Z" fill="#231F20"/>
<path d="M115.366 296.81C115.277 296.809 115.189 296.79 115.107 296.754C115.041 296.719 114.983 296.672 114.935 296.615C114.887 296.558 114.851 296.492 114.829 296.421C114.808 296.349 114.8 296.275 114.807 296.201C114.814 296.126 114.836 296.054 114.871 295.989C138.755 249.954 178.996 265.119 179.345 265.276C179.419 265.299 179.488 265.336 179.547 265.387C179.605 265.437 179.653 265.499 179.687 265.568C179.721 265.638 179.74 265.714 179.743 265.791C179.747 265.868 179.734 265.945 179.706 266.018C179.678 266.09 179.635 266.155 179.581 266.21C179.527 266.265 179.461 266.308 179.389 266.337C179.318 266.366 179.241 266.379 179.163 266.377C179.086 266.374 179.01 266.356 178.94 266.323C178.546 266.165 139.272 251.394 115.861 296.506C115.814 296.597 115.743 296.673 115.656 296.727C115.569 296.781 115.469 296.809 115.366 296.81Z" fill="#231F20"/>
<path d="M177.129 201.208C177.013 201.207 176.9 201.172 176.806 201.105C176.711 201.039 176.639 200.945 176.6 200.836C176.476 200.499 163.663 167.086 131.87 163.036C131.721 163.018 131.585 162.942 131.492 162.824C131.399 162.706 131.357 162.555 131.375 162.406C131.393 162.257 131.469 162.121 131.587 162.028C131.706 161.935 131.856 161.893 132.005 161.911C164.484 166.063 177.534 200.094 177.657 200.431C177.685 200.501 177.698 200.575 177.696 200.649C177.694 200.724 177.678 200.797 177.647 200.865C177.617 200.933 177.573 200.994 177.519 201.046C177.465 201.097 177.401 201.136 177.331 201.163C177.267 201.188 177.198 201.204 177.129 201.208Z" fill="#231F20"/>
<path d="M345.777 143.956C345.895 143.455 345.955 142.941 345.957 142.426C345.957 138.061 341.592 134.551 336.215 134.551C334.78 134.547 333.357 134.81 332.019 135.328C332.019 135.238 332.019 135.148 332.019 135.058C332.019 130.704 327.654 127.183 322.276 127.183C320.503 127.11 318.742 127.511 317.175 128.343C315.607 129.175 314.289 130.409 313.355 131.919C312.291 131.746 311.215 131.66 310.137 131.66C301.554 131.581 294.5 137.049 293.994 143.956C288.931 143.956 284.848 147.331 284.848 151.483C284.848 155.634 288.999 159.009 294.129 159.009H320.769" fill="white"/>
<path d="M320.769 159.515H294.129C288.695 159.515 284.285 155.881 284.285 151.426C284.285 147.163 288.369 143.63 293.488 143.36C294.343 136.419 301.542 131.053 310.149 131.053C311.127 131.052 312.105 131.12 313.074 131.255C314.09 129.761 315.468 128.549 317.079 127.73C318.69 126.912 320.482 126.515 322.287 126.575C327.755 126.575 332.244 130.096 332.57 134.518C333.749 134.148 334.979 133.962 336.215 133.966C341.896 133.966 346.52 137.758 346.52 142.426C346.519 142.987 346.451 143.546 346.317 144.091C346.283 144.236 346.192 144.361 346.066 144.439C345.939 144.517 345.787 144.541 345.642 144.508C345.57 144.49 345.501 144.459 345.441 144.415C345.38 144.371 345.329 144.316 345.29 144.252C345.252 144.188 345.226 144.117 345.215 144.043C345.204 143.969 345.208 143.894 345.226 143.821C345.338 143.365 345.394 142.896 345.395 142.426C345.395 138.376 341.277 135.091 336.215 135.091C334.849 135.086 333.494 135.338 332.221 135.834C332.123 135.863 332.019 135.866 331.919 135.843C331.819 135.82 331.727 135.772 331.651 135.703C331.575 135.634 331.519 135.546 331.487 135.449C331.454 135.352 331.448 135.248 331.467 135.148C331.467 130.996 327.35 127.7 322.287 127.7C320.61 127.637 318.947 128.021 317.466 128.812C315.986 129.602 314.742 130.771 313.861 132.2C313.807 132.304 313.721 132.388 313.616 132.438C313.51 132.489 313.391 132.504 313.276 132.481C312.242 132.314 311.196 132.231 310.149 132.234C301.925 132.234 295.074 137.398 294.556 144.001C294.548 144.142 294.486 144.273 294.383 144.369C294.281 144.466 294.146 144.519 294.005 144.519C289.269 144.519 285.41 147.691 285.41 151.483C285.41 155.274 289.314 158.446 294.129 158.446H320.769C320.918 158.446 321.061 158.506 321.166 158.611C321.272 158.717 321.331 158.86 321.331 159.009C321.331 159.158 321.272 159.301 321.166 159.407C321.061 159.512 320.918 159.571 320.769 159.571V159.515Z" fill="#D1D3D4"/>
<path d="M349.625 346.456C349.625 339.144 342.369 333.204 333.38 333.103C332.435 320.941 319.97 311.311 304.737 311.311C302.823 311.309 300.912 311.464 299.022 311.773C296.356 306.823 290.27 303.369 283.194 303.369C273.654 303.369 265.914 309.646 265.914 317.386C265.914 317.544 265.914 317.701 265.914 317.859C263.535 316.94 261.005 316.471 258.455 316.475C248.904 316.475 241.175 322.753 241.175 330.493C241.175 331.406 241.284 332.316 241.501 333.204C233.368 334.014 227.056 339.628 227.056 346.456C227.056 353.825 234.425 359.81 243.515 359.81" fill="white"/>
<path d="M243.526 360.417C234.144 360.417 226.505 354.174 226.505 346.501C226.505 339.65 232.625 333.834 240.838 332.765C240.693 332.024 240.621 331.27 240.624 330.515C240.624 322.471 248.623 315.89 258.466 315.89C260.8 315.882 263.119 316.262 265.329 317.015C265.554 309.14 273.474 302.773 283.171 302.773C290.079 302.773 296.356 306.035 299.304 311.12C301.095 310.849 302.904 310.714 304.715 310.715C319.902 310.715 332.604 320.255 333.875 332.529C342.875 332.844 350.165 338.998 350.165 346.423C350.165 346.572 350.106 346.715 350 346.82C349.895 346.926 349.752 346.985 349.603 346.985C349.453 346.985 349.31 346.926 349.205 346.82C349.099 346.715 349.04 346.572 349.04 346.423C349.04 339.47 342.009 333.733 333.358 333.631C333.217 333.632 333.082 333.578 332.979 333.482C332.877 333.386 332.815 333.254 332.806 333.114C331.872 321.189 319.531 311.84 304.681 311.84C302.797 311.837 300.916 311.988 299.056 312.29C298.94 312.31 298.821 312.293 298.716 312.24C298.61 312.187 298.525 312.102 298.471 311.998C295.816 307.081 289.797 303.898 283.137 303.898C273.924 303.898 266.42 309.928 266.42 317.398C266.42 317.476 266.42 317.555 266.42 317.623V317.848C266.42 317.941 266.398 318.033 266.357 318.116C266.316 318.2 266.257 318.274 266.184 318.331C266.106 318.386 266.017 318.421 265.922 318.433C265.828 318.445 265.732 318.433 265.644 318.399C263.335 317.499 260.877 317.041 258.399 317.049C249.174 317.049 241.681 323.079 241.681 330.549C241.681 331.421 241.787 332.29 241.996 333.136C242.013 333.213 242.014 333.293 241.998 333.371C241.983 333.448 241.951 333.521 241.906 333.586C241.861 333.654 241.802 333.711 241.731 333.752C241.661 333.793 241.582 333.817 241.501 333.823C233.559 334.61 227.563 340.066 227.563 346.513C227.563 353.566 234.695 359.304 243.459 359.304C243.608 359.304 243.751 359.363 243.857 359.468C243.962 359.574 244.021 359.717 244.021 359.866C244.021 360.015 243.962 360.159 243.857 360.264C243.751 360.369 243.608 360.429 243.459 360.429L243.526 360.417Z" fill="#D1D3D4"/>
</svg>
